<svg xmlns="http://www.w3.org/2000/svg" width="296" height="57" fill="none"><path fill="#fff" d="M295.843 33.319c0 13.263-10.388 23.251-27.566 23.251-17.259 0-27.646-9.988-27.646-23.251V23.17C240.631 9.908 251.018 0 268.277 0c17.178 0 27.566 9.908 27.566 23.171V33.32Zm-22.373 1.917V21.334c0-3.836-1.598-5.913-5.193-5.913-3.596 0-5.274 2.077-5.274 5.913v13.902c0 3.756 1.678 5.833 5.274 5.833 3.595 0 5.193-2.077 5.193-5.833ZM233.191 6.792l-22.213 31.64h21.973v16.46h-51.217v-5.114l23.172-32.68h-21.973V1.679h50.258v5.114Zm-59.24 29.323c0 11.746-7.671 20.455-26.448 20.455-18.697 0-26.926-8.71-26.926-20.455V1.678h22.052v33.558c0 4.155 1.439 6.153 5.593 6.153 4.155 0 5.514-1.998 5.514-6.153V1.678h20.215v34.437Zm-60.435 18.777H90.344l-7.03-17.578-3.996 5.353v12.225H57.345V1.678h21.973v21.014L90.424 1.678h22.852L98.814 24.849l14.702 30.043Zm-66.934 0H0V1.678h46.582V16.38h-24.61v6.552h15.502V32.6H21.973v6.552h24.61v15.74Z"/></svg>