<svg width="1442" height="627" viewBox="0 0 1442 627" fill="none" xmlns="http://www.w3.org/2000/svg">
<path d="M-5.05447e-05 4.40915H229.276V115.52H130.511V253.968H225.749V364.197H130.511V510.581H231.04V621.692H-5.05447e-05V4.40915ZM555.713 621.692H420.792L389.928 373.897V621.692H259.417V4.40915H389.928V260.14L426.083 4.40915H557.476L507.212 305.114L555.713 621.692ZM859.704 4.40915V511.463C859.704 587.888 821.491 626.101 745.065 626.101H686.864C609.851 626.101 571.344 587.888 571.344 511.463V4.40915H701.856V508.817C701.856 515.872 705.089 519.399 711.556 519.399H719.492C725.959 519.399 729.192 515.872 729.192 508.817V4.40915H859.704ZM992.495 115.52H887.557V4.40915H1126.53V115.52L1018.07 510.581H1126.53V621.692H883.148V510.581L992.495 115.52ZM1441.44 114.638V511.463C1441.44 587.888 1403.23 626.101 1326.81 626.101H1265.96C1188.95 626.101 1150.44 587.888 1150.44 511.463V114.638C1150.44 38.2127 1188.95 -4.29386e-06 1265.96 -4.29386e-06H1326.81C1403.23 -4.29386e-06 1441.44 38.2127 1441.44 114.638ZM1311.81 508.817V117.284C1311.81 110.229 1308.29 106.702 1301.23 106.702H1290.65C1284.18 106.702 1280.95 110.229 1280.95 117.284V508.817C1280.95 515.872 1284.18 519.399 1290.65 519.399H1301.23C1308.29 519.399 1311.81 515.872 1311.81 508.817Z" fill="black"/>
</svg>
