<svg width="107" height="21" viewBox="0 0 107 21" fill="none" xmlns="http://www.w3.org/2000/svg">
<path d="M106.434 11.987C106.434 16.7588 102.697 20.352 96.5168 20.352C90.3078 20.352 86.5708 16.7588 86.5708 11.987V8.33627C86.5708 3.56448 90.3078 0 96.5168 0C102.697 0 106.434 3.56448 106.434 8.33627V11.987ZM98.3853 12.6769V7.67512C98.3853 6.29532 97.8104 5.54793 96.5168 5.54793C95.2233 5.54793 94.6196 6.29532 94.6196 7.67512V12.6769C94.6196 14.0279 95.2233 14.7753 96.5168 14.7753C97.8104 14.7753 98.3853 14.0279 98.3853 12.6769Z" fill="white"/>
<path d="M83.8941 2.44324L75.9028 13.8266H83.8079V19.7482H65.3818V17.9085L73.7181 6.15145H65.813V0.603516H83.8941V2.44324Z" fill="white"/>
<path d="M62.5816 12.9929C62.5816 17.2186 59.822 20.3519 53.0667 20.3519C46.3402 20.3519 43.3794 17.2186 43.3794 12.9929V0.603516H51.3132V12.6767C51.3132 14.1715 51.8306 14.8902 53.3254 14.8902C54.8202 14.8902 55.3089 14.1715 55.3089 12.6767V0.603516H62.5816V12.9929Z" fill="white"/>
<path d="M40.8391 19.7482H32.5029L29.9732 13.4241L28.5359 15.3501V19.7482H20.6309V0.603516H28.5359V8.16365L32.5316 0.603516H40.7529L35.5499 8.93979L40.8391 19.7482Z" fill="white"/>
<path d="M16.7588 19.7482H0V0.603516H16.7588V5.89274H7.90508V8.24989H13.4818V11.7281H7.90508V14.0853H16.7588V19.7482Z" fill="white"/>
</svg>
