<?xml version="1.0" encoding="UTF-8"?>
<svg id="Layer_1" xmlns="http://www.w3.org/2000/svg" version="1.1" viewBox="0 0 1431.2 140" preserveAspectRatio="xMidYMid meet">
  <!-- Generator: Adobe Illustrator 30.2.1, SVG Export Plug-In . SVG Version: 2.1.1 Build 1)  -->
  <defs>
    <style>
      .st0 {
        fill: #fff;
      }
    </style>
  </defs>
  <path class="st0" d="M0,34.9c.5.5,1.9,2.3,2.8,2.8.9.5,1.9.3,2.8.4h2.8c.9,0,1.9.6,2.8.7.9,0,1.9-.2,2.8,0,.9.2,1.9.9,2.8,1.1.9.2,1.9.4,2.8,0s1.9-1.9,2.8-2.5,1.9-.5,2.8-1.1c.9-.5,1.9-1.8,2.8-2.1s1.9.4,2.8.4,1.9-.5,2.8-.4c.9,0,1.9,1,2.8,1.1.9,0,1.9-.6,2.8-.7.9,0,1.9.3,2.8.4h8.6c.9,0,1.9,0,2.8.4.9.4,1.9,1.4,2.8,1.8.9.4,1.9,0,2.8.4.9.2,1.9,1,2.8,1.1.9,0,1.9-.8,2.8-.7.9,0,1.9.8,2.8,1.1s1.9.8,2.8.7,1.9-1.4,2.8-1.4,1.9.9,2.8,1.1c.9,0,1.9-.2,2.8-.4.9,0,1.9-.3,2.8-.4h5.6c.9,0,1.9-.2,2.8-.4s1.9-.5,2.8-.7,1.9-.4,2.8-.4,1.9.4,2.8.4,1.9-.3,2.8-.4c.9,0,1.9-.2,2.8,0s1.9.8,2.8,1.1c.9.2,1.9.3,2.8.4h2.8c.9,0,1.9.6,2.8.7h2.8c.9,0,1.9,0,2.8-.4.9-.3,1.9-1.3,2.8-1.4.9,0,1.9.7,2.8.7s1.9-.6,2.8-.7c.9,0,1.9.4,2.8.4s1.9,0,2.8-.4,1.9-1.2,2.8-1.1c.9,0,1.9,1.5,2.8,1.8.9.3,1.9,0,2.8,0s1.9.2,2.8.4c.9,0,1.9.4,2.8.4s1.9-.4,2.8-.4,1.9.2,2.8.4c.9.2,1.9.5,2.8.7.9.2,1.9.8,2.8.7.9,0,1.9-1.4,2.8-1.1.9.3,1.9,2.4,2.8,2.8.9.5,1.9,0,2.8,0s1.9-.4,2.8-.4,1.9.6,2.8.4,1.9-1.2,2.8-1.8c.9-.6,1.9-1.4,2.8-1.8.9-.4,1.9-.4,2.8-.7.9-.4,1.9-.8,2.8-1.4.9-.6,1.9-1.1,2.8-2.1.9-1,1.9-3.1,2.8-3.9.9-.8,1.9-.6,2.8-.7.9-.1,1.9-.2,2.8,0s1.9.9,2.8,1.1c.9.2,1.9,0,2.8,0h2.8c.9,0,1.9.2,2.8.4.9.2,1.9.5,2.8.7.9.2,1.9.4,2.8.4s1.9-.2,2.8-.4c.9-.2,1.9-.8,2.8-.7.9,0,1.9.9,2.8,1.1.9.2,1.9,0,2.8,0s1.9.5,2.8.4c.9,0,1.9-1.1,2.8-1.1s1.9,1.1,2.8,1.1,1.9-.9,2.8-1.1c.9-.2,1.9,0,2.8,0h5.6c.9,0,1.9-.2,2.8-.4.9-.1,1.9-.2,2.8-.4.9-.2,1.9-.3,2.8-.7.9-.4,1.9-1.5,2.8-1.8.9-.3,1.9,0,2.8,0s1.9.1,2.8,0,1.9-.5,2.8-.7,1.9-.4,2.8-.4,1.9.5,2.8.4,1.9-.8,2.8-1.1c.9-.2,1.9-.4,2.8-.4s1.9.4,2.8.4,1.9-.5,2.8-.7,1.9-.7,2.8-.7,1.9.6,2.8.7,1.9-.2,2.8-.4c.9-.2,1.9-.5,2.8-.7s1.9-.4,2.8-.4,1.9.5,2.8.4,1.9-.9,2.8-1.1c.9-.1,1.9.2,2.8.4.9.1,1.9.1,2.8.4.9.2,1.9.9,2.8,1.1.9.1,1.9-.2,2.8-.4.9-.1,1.9-.2,2.8-.4.9-.2,1.9-.7,2.8-.7s1.9.5,2.8.7,1.9.3,2.8.4c.9,0,1.9-.1,2.8,0s1.9.5,2.8.7,1.9,0,2.8.4c.9.3,1.9,1.1,2.8,1.4s1.9.4,2.8.4,1.9-.4,2.8-.4,1.9.6,2.8.7c.9,0,1.9-.4,2.8-.4s1.9.6,2.8.7,1.9-.1,2.8,0,1.9.5,2.8.7,1.9.1,2.8.4c.9.2,1.9,1.1,2.8,1.1s1.9-1,2.8-1.1c.9,0,1.9.5,2.8.7s1.9.4,2.8.7c.9.3,1.9.6,2.8,1.1.9.5,1.9,1.2,2.8,1.8.9.5,1.9,1.1,2.8,1.4.9.3,1.9.3,2.8.4.9,0,1.9-.4,2.8,0s1.9,1.4,2.8,2.1c.9.7,1.9,1.6,2.8,2.1s1.9.8,2.8,1.1c.9.2,1.9,0,2.8.4s1.9,1.9,2.8,2.5,1.9.9,2.8,1.1c.9.2,1.9,0,2.8,0s1.9.2,2.8,0,1.9-1.2,2.8-1.4,1.9.5,2.8.4c.9-.2,1.9-1,2.8-1.4s1.9-.8,2.8-1.1c.9-.2,1.9-.4,2.8-.4s1.9.5,2.8.4,1.9-1,2.8-1.1c.9,0,1.9.6,2.8.7h2.8c.9,0,1.9.5,2.8.7s1.9,0,2.8.4c.9.3,1.9,1.1,2.8,1.4s1.9.2,2.8.4c.9,0,1.9.2,2.8.4s1.9.2,2.8.7,1.9,1.7,2.8,2.1c.9.4,1.9.4,2.8.4s1.9-.2,2.8-.4c.9,0,1.9,0,2.8-.4.9-.2,1.9-.4,2.8-1.1.9-.6,1.9-2.1,2.8-2.8s1.9-1.1,2.8-1.4c.9-.3,1.9-.4,2.8-.4s1.9.3,2.8.4h5.6c.9,0,1.9.5,2.8.7s1.9,0,2.8.4c.9.2,1.9.8,2.8,1.1s1.9.6,2.8.7h2.8c.9,0,1.9.4,2.8.7s1.9.8,2.8,1.1c.9.2,1.9.2,2.8.4.9,0,1.9.2,2.8.4s1.9.6,2.8.7h2.8c.9,0,1.9-.5,2.8-.7s1.9-.2,2.8-.4c.9,0,1.9-.2,2.8-.4.9-.2,1.9-.4,2.8-.7.9-.3,1.9-.8,2.8-1.1s1.9-.2,2.8-.4c.9,0,1.9,0,2.8-.4s1.9-.6,2.8-1.1c.9-.5,1.9-1.2,2.8-1.8s1.9-1.2,2.8-1.4c.9-.2,1.9.4,2.8.4s1.9-.4,2.8-.4,1.9.6,2.8.7c.9,0,1.9,0,2.8-.4.9-.2,1.9-.8,2.8-1.1s1.9-.4,2.8-.4,1.9.5,2.8.7,1.9.4,2.8.7c.9.4,1.9,1.3,2.8,1.4.9,0,1.9-.4,2.8-.7.9-.4,1.9-.7,2.8-1.4.9-.7,1.9-2.1,2.8-2.8.9-.7,1.9-.9,2.8-1.4.9-.5,1.9-1,2.8-1.8.9-.8,1.9-2.2,2.8-2.8.9-.6,1.9-1.3,2.8-1.1.9.2,1.9,1.7,2.8,2.5.9.8,1.9,1.6,2.8,2.1.9.5,1.9.6,2.8.7h2.8c.9,0,1.9-.2,2.8-.4.9,0,1.9-.3,2.8-.4h2.8c.9,0,1.9.2,2.8.4.9.2,1.9.6,2.8.7h2.8c.9,0,1.9-.2,2.8-.4.9,0,1.9,0,2.8-.4.9-.2,1.9-.9,2.8-1.1s1.9.4,2.8.4,1.9-.3,2.8-.7c.9-.4,1.9-1.6,2.8-1.8.9-.1,1.9,1.2,2.8,1.1s1.9-.8,2.8-1.8c.9-1,1.9-3,2.8-4.2s1.9-2.5,2.8-3.2c.9-.7,1.9-1.1,2.8-1.1s1.9.9,2.8,1.1c.9.2,1.9.4,2.8,0,.9-.4,1.9-1.4,2.8-2.1.9-.7,1.9-2.1,2.8-2.1s1.9,1.5,2.8,2.1c.9.6,1.9,1.4,2.8,1.4s1.9-1.1,2.8-1.4c.9-.3,1.9-.4,2.8-.4s1.9.4,2.8.7c.9.4,1.9.9,2.8,1.4.9.5,1.9,1.4,2.8,1.8.9.4,1.9.5,2.8.7.9.2,1.9.3,2.8.4.9,0,1.9-.1,2.8,0,.9.1,1.9.8,2.8.7.9-.1,1.9-1.3,2.8-1.4.9-.1,1.9.5,2.8.7.9.2,1.9.4,2.8.7s1.9.9,2.8,1.1c.9.2,1.9,0,2.8,0s1.9-.2,2.8,0c.9.2,1.9.8,2.8,1.1.9.3,1.9.5,2.8.7.9.2,1.9.7,2.8.7s1.9-.6,2.8-.7c.9,0,1.9.4,2.8.4s1.9-.6,2.8-.7c.9,0,1.9.4,2.8.4s1.9-.6,2.8-.7c.9-.1,1.9.1,2.8,0,.9-.1,1.9-.6,2.8-.7.9-.1,1.9,0,2.8,0h2.8c.9,0,1.9-.2,2.8,0,.9.2,1.9.8,2.8,1.1.9.3,1.9.5,2.8.7s1.9.4,2.8.4,1.9-.5,2.8-.4,1.9,1.1,2.8,1.4c.9.4,1.9.5,2.8.7.9.2,1.9.5,2.8.7.9.2,1.9.6,2.8.7.9,0,1.9-.4,2.8-.4s1.9.6,2.8.7,1.9,0,2.8,0h5.6c.9,0,1.9.4,2.8.4s1.9-.6,2.8-.7h2.8c.9,0,1.9.2,2.8,0,.9-.2,1.9-1.2,2.8-1.4.9-.2,1.9-.2,2.8,0,.9.2,1.9.8,2.8,1.1s1.9.6,2.8.7c.9,0,1.9-.2,2.8-.4.9,0,1.9-.4,2.8-.4s1.9.4,2.8.7c.9.3,1.9.7,2.8,1.1.9.4,1.9.8,2.8,1.1.9.3,1.9.5,2.8.7.9.2,1.9.3,2.8.4.9,0,1.9-.3,2.8,0,.9.3,1.9,1.3,2.8,1.8.9.5,1.9.6,2.8,1.1.9.4,1.9,1.1,2.8,1.4.9.4,1.9.3,2.8.7.9.4,1.9,1.3,2.8,1.8.9.5,1.9.6,2.8,1.1.9.4,1.9.7,2.8,1.4.9.7,1.9,2.2,2.8,2.8.9.6,1.9.6,2.8.7s1.9-.2,2.8,0c.9.2,1.9,1.4,2.8,1.4s1.9-1.4,2.8-1.4,1.9.9,2.8,1.1c.9,0,1.9,0,2.8-.4.9-.3,1.9-1,2.8-1.4.9-.4,1.9-.8,2.8-1.1.9-.3,1.9-.8,2.8-.7.9,0,1.9.9,2.8,1.1.9.2,1.9,0,2.8,0s1.9.2,2.8-.4c.9-.6,1.9-2.3,2.8-3.2s1.9-1.6,2.8-2.1c.9-.5,1.9-.8,2.8-1.1s1.9-.4,2.8-.4,1.9.5,2.8.7c.9.2,1.9,0,2.8.7.9.7,1.9,2.6,2.8,3.5.9.9,1.9,1.4,2.8,2.1.9.7,1.9,2.1,2.8,2.1s1.9-1.3,2.8-1.8c.9-.5,1.9-.6,2.8-1.1.9-.4,1.9-1.1,2.8-1.4.9-.4,1.9-.9,2.8-.7.9.2,1.9,1.3,2.8,2.1.9.8,1.9,1.6,2.8,2.8.9,1.2,1.9,3.4,2.8,4.6.9,1.2,1.9,2.5,2.8,2.5s1.9-2.2,2.8-2.8c.9-.6,1.9-.8,2.8-1.1.9-.3,1.9-.6,2.8-.7.9,0,1.9.2,2.8.4.9.2,1.9,1,2.8.7.9-.3,1.9-1.9,2.8-2.5.9-.5,1.9-.3,2.8-.7.9-.4,1.9-1.1,2.8-1.8.9-.6,1.9-2,2.8-2.1.9,0,1.9,1,2.8,1.4.9.4,1.9.8,2.8,1.1.9.2,1.9.2,2.8.4.9.2,1.9.5,2.8.7.9.2,1.9.3,2.8.4h2.8c.9,0,1.9-.4,2.8-.4s1.9.4,2.8.7c.9.3,1.9.7,2.8,1.1.9.4,1.9.6,2.8,1.1.9.5,1.9,1.4,2.8,1.8.9.4,1.9,0,2.8.4.9.4,1.9,1.4,2.8,1.8.9.4,1.9.4,2.8.7.9.4,1.9,1,2.8,1.4.9.4,1.9,1.4,2.8,1.1.9-.3,1.9-1.9,2.8-2.8.9-.9,1.9-1.8,2.8-2.8.9-1,1.9-2.3,2.8-3.2.9-.9,1.9-1.3,2.8-2.1.9-.8,1.9-1.9,2.8-2.8.9-.9,1.9-1.7,2.8-2.8.9-1.1,1.9-2.8,2.8-3.9s1.9-2.3,2.8-2.8c.9-.5,1.9-.3,2.8-.4.9,0,1.9-.4,2.8,0,.9.4,1.9,1.8,2.8,2.1.9.3,1.9-.3,2.8-.4h2.8c.9,0,1.9-.5,2.8-.7s1.9-.7,2.8-.7,1.9.6,2.8.7c.9,0,1.9,0,2.8-.4.9-.3,1.9-1.4,2.8-1.4s1.9.8,2.8,1.1,1.9.4,2.8.4,1.9-.4,2.8-.7,1.9-1.1,2.8-1.4c.9-.3,1.9-.2,2.8-.4.9,0,1.9-.2,2.8-.4.9,0,1.9-.4,2.8-.4s1.9.4,2.8.4,1.9-.6,2.8-.4c.9.2,1.9,1.3,2.8,1.8s1.9.7,2.8,1.1c.9.4,1.9.6,2.8,1.1s1.9,1.2,2.8,1.8,1.9.9,2.8,1.4,1.9.7,2.8,1.4,1.9,2.1,2.8,2.8c.9.8,1.9,1.4,2.8,1.8.9.4,1.9.5,2.8.7s1.9.2,2.8.4,1.9.8,2.8.7c.9,0,1.9-.9,2.8-1.1.9,0,1.9.3,2.8.4h2.8c.9,0,1.9.7,2.8.7s1.9-.6,2.8-.7h2.8c.9,0,1.9.2,2.8.4.9,0,1.9.4,2.8.4s1.9-.6,2.8-.7h2.8c.9,0,1.9-.4,2.8-.4s1.9.3,2.8.4h2.8c.9,0,1.9.4,2.8.4s1.9-.8,2.8-.7c.9,0,1.9.7,2.8,1.1.9.4,1.9,1,2.8,1.1.9,0,1.9-.2,2.8-.7s1.9-1.6,2.8-2.1,1.9-.9,2.8-1.1c.9-.2,1.9.4,2.8,0s1.9-1.8,2.8-2.1,1.9.3,2.8.4h2.8c.9,0,1.9.4,2.8.4s1.9-.4,2.8-.7,1.9-.7,2.8-1.1c.9-.4,1.9-.9,2.8-1.1.9-.2,1.9,0,2.8,0s1.9-.6,2.8-.7h2.8c.9,0,1.9.2,2.8.4s1.9.4,2.8.7,1.9.6,2.8,1.1c.9.4,1.9.9,2.8,1.4s1.9.9,2.8,1.4,1.9,1.3,2.8,1.4c.9,0,1.9-.6,2.8-.7.9,0,1.9-.2,2.8,0s1.9.9,2.8,1.1c.9,0,1.9-.3,2.8-.4h2.8c.9,0,1.9.5,2.8.7s1.9.2,2.8.4c.9,0,1.9.3,2.8.4h2.8c.9,0,1.9-.7,2.8-.7s1.9.6,2.8.7h2.8c.9,0,1.9.4,2.8.4s1.9-.8,2.8-.7c.9,0,1.9,1.1,2.8,1.1s1.9-.9,2.8-1.1c.9-.2,1.9,0,2.8,0h5.6c.9,0,1.9-.2,2.8-.4.9,0,1.9,0,2.8-.4.9-.2,1.9-.6,2.8-1.1s1.9-1.5,2.8-1.8c.9-.2,1.9.4,2.8.4s1.9-.2,2.8-.4,1.9-.5,2.8-.7,1.9-.4,2.8-.4,1.9.8,2.8.7c.9,0,1.9-.8,2.8-1.1.9-.2,1.9-.4,2.8-.4s1.9.5,2.8.4,1.9-.8,2.8-1.1,1.9-.4,2.8-.4,1.9.6,2.8.7c.9,0,1.9-.2,2.8-.4s1.9-.5,2.8-.7,1.9-.3,2.8-.4h2.8c.9,0,1.9-.6,2.8-.7.9,0,1.9.2,2.8.4.9,0,1.9,0,2.8.4.9.2,1.9.9,2.8,1.1.9,0,1.9-.2,2.8-.4.9,0,1.9-.2,2.8-.4s1.9-.6,2.8-.7c.9,0,1.9.2,2.8.4.9,0,1.9.2,2.8.4.9,0,1.9.2,2.8.4s1.9.6,2.8.7c.9,0,1.9-.2,2.8,0s1.9,1.1,2.8,1.4c.9.4,1.9.6,2.8.7.9,0,1.9-.4,2.8-.4s1.9.3,2.8.4h2.8c.9,0,1.9.6,2.8.7.9,0,1.9-.4,2.8-.4s1.9.5,2.8.7,1.9.5,2.8.7,1.9.4,2.8.7,1.9.8,2.8,1.1,1.9.4,2.8.7c.9.4,1.9,1.2,2.8,1.4s1.9-.4,2.8,0,1.9,1.6,2.8,2.1,1.9.7,2.8,1.1c.9.4,1.9.7,2.8,1.1.9.4,1.9.6,2.8,1.1.9.4,1.9,1.2,2.8,1.4s1.9,0,2.8,0,1.9.5,2.8.7,1.9.2,2.8.4c.9,0,1.9.4,2.8.4s1.9-.2,2.8-.4c.9,0,1.9-.2,2.8-.4s1.9-.5,2.8-.7,1.9-.2,2.8-.4,1.9-.5,2.8-.7,1.9-.2,2.8-.4c.9,0,1.9-.3,2.8-.4h8.6v53.2c-.5,0-1.9-.6-2.8-.7-.9,0-1.9.4-2.8.4s-1.9-.5-2.8-.7-1.9,0-2.8-.4c-.9-.2-1.9-.9-2.8-1.1s-1.9-.4-2.8,0-1.9,1.5-2.8,2.1-1.9.8-2.8,1.4-1.9,2.1-2.8,2.5-1.9-.3-2.8-.4c-.9,0-1.9.2-2.8,0s-1.9-.9-2.8-1.1c-.9,0-1.9.3-2.8.4s-1.9,0-2.8,0-1.9.3-2.8.4h-2.8c-.9,0-1.9-.2-2.8-.4-.9,0-1.9,0-2.8-.4s-1.9-1.5-2.8-1.8-1.9.2-2.8,0-1.9-1.3-2.8-1.4-1.9.7-2.8.7-1.9-.4-2.8-.7c-.9-.3-1.9-1.1-2.8-1.1s-1.9,1.3-2.8,1.4-1.9-.5-2.8-.7-1.9-.4-2.8-.4-1.9.6-2.8.7-1.9,0-2.8,0h-5.6c-.9,0-1.9.5-2.8.7s-1.9.2-2.8.4c-.9,0-1.9.3-2.8.4h-2.8c-.9,0-1.9.5-2.8.4s-1.9-.8-2.8-1.1-1.9-.5-2.8-.7-1.9-.2-2.8-.4c-.9,0-1.9-.3-2.8-.4h-2.8c-.9,0-1.9.4-2.8.7-.9.3-1.9,1-2.8,1.1-.9,0-1.9-.7-2.8-.7s-1.9.6-2.8.7c-.9,0-1.9-.4-2.8-.4s-1.9,0-2.8.4c-.9.2-1.9,1.2-2.8,1.1s-1.9-1.5-2.8-1.8-1.9,0-2.8,0-1.9-.2-2.8-.4c-.9,0-1.9-.3-2.8-.4h-5.6c-.9,0-1.9,0-2.8-.4-.9-.2-1.9-1.1-2.8-1.1s-1.9,1.4-2.8,1.1-1.9-2.4-2.8-2.8c-.9-.5-1.9,0-2.8,0s-1.9.4-2.8.4-1.9-.6-2.8-.4-1.9,1.2-2.8,1.8c-.9.5-1.9.9-2.8,1.4s-1.9,1-2.8,1.4-1.9.5-2.8,1.1-1.9,1.2-2.8,2.1-1.9,2.8-2.8,3.5-1.9.9-2.8,1.1-1.9.2-2.8,0-1.9-.9-2.8-1.1-1.9,0-2.8,0h-2.8c-.9,0-1.9-.2-2.8-.4-.9-.2-1.9-.5-2.8-.7s-1.9-.4-2.8-.4-1.9.2-2.8.4c-.9.2-1.9.7-2.8.7s-1.9-.5-2.8-.7-1.9-.2-2.8-.4c-.9,0-1.9-.4-2.8-.4s-1.9.8-2.8.7c-.9,0-1.9-1.1-2.8-1.1s-1.9,1.2-2.8,1.4-1.9,0-2.8,0h-8.5c-.9,0-1.9.5-2.8.7s-1.9.2-2.8.7-1.9,1.8-2.8,2.1c-.9.3-1.9-.4-2.8-.4s-1.9.2-2.8.4c-.9,0-1.9.2-2.8.4-.9.2-1.9.7-2.8.7s-1.9-.8-2.8-.7c-.9,0-1.9.8-2.8,1.1-.9.2-1.9.4-2.8.4s-1.9-.4-2.8-.4-1.9.5-2.8.7-1.9.8-2.8.7c-.9,0-1.9-1-2.8-1.1s-1.9.5-2.8.7-1.9.6-2.8.7-1.9,0-2.8,0-1.9.2-2.8.4c-.9.2-1.9.6-2.8.7-.9,0-1.9-.2-2.8-.4-.9,0-1.9,0-2.8-.4-.9-.2-1.9-.9-2.8-1.1-.9,0-1.9.2-2.8.4-.9,0-1.9.2-2.8.4-.9.2-1.9.6-2.8.7-.9,0-1.9-.2-2.8-.4-.9,0-1.9-.2-2.8-.4-.9,0-1.9-.2-2.8-.4s-1.9-.6-2.8-.7-1.9.2-2.8,0-1.9-1.1-2.8-1.4c-.9-.4-1.9-.6-2.8-.7s-1.9.4-2.8.4-1.9-.3-2.8-.4-1.9,0-2.8,0-1.9-.6-2.8-.7-1.9,0-2.8,0-1.9-.5-2.8-.7-1.9-.2-2.8-.4c-.9-.2-1.9-.7-2.8-.7s-1.9.7-2.8.7-1.9-.5-2.8-.7-1.9-.4-2.8-.7c-.9-.3-1.9-.6-2.8-1.1s-1.9-1.3-2.8-1.8-1.9-.8-2.8-1.1-1.9-.6-2.8-.7-1.9.2-2.8,0-1.9-.8-2.8-1.4-1.9-1.5-2.8-2.1-1.9-1.1-2.8-1.4c-.9-.4-1.9-.2-2.8-.7s-1.9-1.9-2.8-2.5c-.9-.5-1.9-.5-2.8-.7s-1.9-.4-2.8-.4-1.9.2-2.8.4c-.9.2-1.9.5-2.8.7s-1.9,0-2.8.4-1.9.7-2.8,1.1c-.9.4-1.9.8-2.8,1.1s-1.9.4-2.8.4-1.9-.5-2.8-.4c-.9,0-1.9.9-2.8,1.1-.9,0-1.9-.2-2.8-.4-.9,0-1.9-.2-2.8-.4-.9-.2-1.9-.5-2.8-.7-.9-.2-1.9,0-2.8-.4-.9-.2-1.9-.8-2.8-1.1s-1.9-.5-2.8-.7c-.9-.2-1.9-.2-2.8-.4-.9,0-1.9,0-2.8-.4-.9-.4-1.9-1.6-2.8-2.1-.9-.5-1.9-.6-2.8-.7-.9,0-1.9.2-2.8.4-.9,0-1.9,0-2.8.4-.9.2-1.9.5-2.8,1.1-.9.5-1.9,1.5-2.8,2.1-.9.6-1.9,1.4-2.8,1.8-.9.4-1.9.6-2.8.7-.9,0-1.9-.2-2.8-.4-.9,0-1.9-.4-2.8-.4s-1.9.4-2.8.4-1.9-.6-2.8-.7c-.9,0-1.9.2-2.8,0s-1.9-1.1-2.8-1.4c-.9-.4-1.9-.6-2.8-.7s-1.9.4-2.8.4-1.9-.4-2.8-.7c-.9-.3-1.9-.8-2.8-1.1-.9-.3-1.9-.5-2.8-.7-.9-.2-1.9-.2-2.8-.4-.9,0-1.9-.2-2.8-.4-.9,0-1.9-.4-2.8-.4s-1.9.2-2.8.4-1.9.5-2.8.7c-.9.2-1.9.2-2.8.4s-1.9.5-2.8.7c-.9.2-1.9.4-2.8.7-.9.3-1.9.9-2.8,1.1-.9.2-1.9-.2-2.8,0-.9.2-1.9.6-2.8,1.1-.9.4-1.9.9-2.8,1.4-.9.5-1.9,1.1-2.8,1.4-.9.3-1.9.4-2.8.4s-1.9-.3-2.8-.4h-2.8c-.9,0-1.9-.5-2.8-.4-.9.2-1.9,1.1-2.8,1.4-.9.3-1.9.4-2.8.4s-1.9-.5-2.8-.7-1.9-.4-2.8-.7c-.9-.3-1.9-.9-2.8-1.1-.9,0-1.9,0-2.8.4-.9.3-1.9.7-2.8,1.4-.9.7-1.9,2.2-2.8,2.8-.9.6-1.9.5-2.8,1.1s-1.9,1.4-2.8,2.1c-.9.7-1.9,1.4-2.8,2.1-.9.7-1.9,2.2-2.8,2.1-.9,0-1.9-1.7-2.8-2.5-.9-.8-1.9-1.6-2.8-2.1-.9-.5-1.9-.9-2.8-1.1s-1.9,0-2.8,0-1.9.2-2.8.4c-.9,0-1.9.3-2.8.4h-2.8c-.9,0-1.9-.2-2.8-.4-.9-.2-1.9-.6-2.8-.7h-2.8c-.9,0-1.9.2-2.8.4s-1.9.5-2.8.7c-.9.2-1.9.3-2.8.4s-1.9,0-2.8,0-1.9.2-2.8.7c-.9.5-1.9,2-2.8,2.1-.9,0-1.9-1.4-2.8-1.4s-1.9.5-2.8,1.4c-.9.9-1.9,2.8-2.8,3.9-.9,1.1-1.9,2.1-2.8,2.8-.9.8-1.9,1.5-2.8,1.8s-1.9-.2-2.8-.4c-.9,0-1.9-.6-2.8-.4-.9.3-1.9,1.4-2.8,2.1-.9.7-1.9,2-2.8,2.1-.9,0-1.9-1-2.8-1.4-.9-.4-1.9-.9-2.8-1.1-.9-.2-1.9,0-2.8,0s-1.9.7-2.8.7-1.9-.4-2.8-.7c-.9-.3-1.9-.6-2.8-1.1-.9-.5-1.9-1.3-2.8-1.8-.9-.5-1.9-.8-2.8-1.1-.9-.2-1.9-.3-2.8-.4h-2.8c-.9,0-1.9-.8-2.8-.7-.9,0-1.9.9-2.8,1.1-.9,0-1.9-.2-2.8-.4-.9-.2-1.9-.4-2.8-.7-.9-.3-1.9-.9-2.8-1.1-.9-.2-1.9,0-2.8,0s-1.9.5-2.8.4c-.9,0-1.9-.8-2.8-1.1-.9-.3-1.9-.4-2.8-.7-.9-.3-1.9-1-2.8-1.1-.9,0-1.9.6-2.8.7-.9,0-1.9-.4-2.8-.4s-1.9.6-2.8.7c-.9,0-1.9-.4-2.8-.4s-1.9.6-2.8.7h-2.8c-.9,0-1.9.2-2.8.4-.9,0-1.9.3-2.8.4s-1.9,0-2.8,0-1.9.2-2.8,0c-.9-.2-1.9-.8-2.8-1.1-.9-.2-1.9-.2-2.8-.4-.9,0-1.9-.2-2.8-.4-.9-.2-1.9-.5-2.8-.7-.9-.2-1.9-.5-2.8-.7-.9-.2-1.9-.5-2.8-.7-.9-.2-1.9,0-2.8-.4-.9-.2-1.9-1-2.8-1.1-.9,0-1.9.8-2.8.7-.9,0-1.9-.9-2.8-1.1-.9-.2-1.9,0-2.8,0h-8.6c-.9,0-1.9.3-2.8.4h-2.8c-.9,0-1.9-.2-2.8,0-.9.2-1.9.8-2.8,1.1s-1.9.8-2.8.7c-.9,0-1.9-1.1-2.8-1.4-.9-.4-1.9-.6-2.8-.7h-2.8c-.9,0-1.9.7-2.8.7s-1.9-.5-2.8-.7c-.9-.2-1.9-.4-2.8-.7-.9-.4-1.9-1.1-2.8-1.4-.9-.4-1.9-.5-2.8-.7-.9-.2-1.9-.3-2.8-.4s-1.9.2-2.8,0c-.9-.2-1.9-.9-2.8-1.4-.9-.5-1.9-.9-2.8-1.4-.9-.5-1.9-1.1-2.8-1.4-.9-.4-1.9-.4-2.8-.7-.9-.4-1.9-1-2.8-1.4-.9-.4-1.9-.6-2.8-1.1-.9-.4-1.9-.7-2.8-1.4-.9-.7-1.9-2.2-2.8-2.8-.9-.6-1.9-.9-2.8-1.1-.9,0-1.9.5-2.8.4-.9-.2-1.9-1.4-2.8-1.4s-1.9,1-2.8,1.1c-.9,0-1.9-.6-2.8-.7-.9,0-1.9-.2-2.8,0-.9.2-1.9,1-2.8,1.4-.9.4-1.9.8-2.8,1.1-.9.3-1.9.8-2.8.7-.9,0-1.9-.9-2.8-1.1-.9-.2-1.9,0-2.8,0s-1.9-.5-2.8,0c-.9.5-1.9,2.2-2.8,3.2s-1.9,1.9-2.8,2.5c-.9.6-1.9.8-2.8,1.1-.9.2-1.9.4-2.8.4s-1.9,0-2.8-.4c-.9-.2-1.9-.4-2.8-1.1-.9-.7-1.9-2.3-2.8-3.2-.9-.9-1.9-1.1-2.8-2.1-.9-1-1.9-3.8-2.8-3.9-.9,0-1.9,2.5-2.8,3.2-.9.7-1.9.6-2.8,1.1-.9.4-1.9,1.1-2.8,1.4-.9.4-1.9.9-2.8.7-.9-.2-1.9-1.4-2.8-2.1-.9-.8-1.9-1.4-2.8-2.5-.9-1.1-1.9-2.9-2.8-4.2-.9-1.3-1.9-3.5-2.8-3.5s-1.9,2.5-2.8,3.2c-.9.7-1.9.8-2.8,1.1-.9.3-1.9.6-2.8.7s-1.9.2-2.8,0-1.9-1.6-2.8-1.4-1.9,1.9-2.8,2.5-1.9.4-2.8.7c-.9.3-1.9.4-2.8,1.1s-1.9,2.8-2.8,3.2c-.9.4-1.9-.6-2.8-1.1-.9-.4-1.9-1.1-2.8-1.4s-1.9-.2-2.8-.4c-.9-.2-1.9-.5-2.8-.7s-1.9-.3-2.8-.4-1.9,0-2.8,0-1.9.4-2.8.4-1.9-.5-2.8-.7-1.9-.4-2.8-.7c-.9-.3-1.9-.6-2.8-1.1-.9-.4-1.9-1-2.8-1.4s-1.9-.6-2.8-1.1c-.9-.4-1.9-1-2.8-1.4s-1.9-.7-2.8-1.1-1.9-.6-2.8-1.1-1.9-1.9-2.8-1.8c-.9.2-1.9,1.9-2.8,2.8s-1.9,1.8-2.8,2.8-1.9,2.3-2.8,3.2c-.9.9-1.9,1.4-2.8,2.1-.9.8-1.9,1.5-2.8,2.5-.9.9-1.9,1.9-2.8,3.2-.9,1.2-1.9,3.1-2.8,4.2s-1.9,1.9-2.8,2.5c-.9.5-1.9.6-2.8.7s-1.9.4-2.8,0-1.9-1.8-2.8-2.1-1.9.2-2.8.4c-.9,0-1.9.2-2.8.4s-1.9.5-2.8.7-1.9.4-2.8.4-1.9-.6-2.8-.7c-.9,0-1.9,0-2.8.4s-1.9.9-2.8,1.1c-.9,0-1.9-.2-2.8-.4-.9-.2-1.9-.6-2.8-.7-.9,0-1.9,0-2.8.4s-1.9,1.1-2.8,1.4c-.9.4-1.9.5-2.8.7s-1.9.2-2.8.4c-.9,0-1.9.4-2.8.4s-1.9-.4-2.8-.4-1.9.5-2.8.4-1.9-.9-2.8-1.4-1.9-1-2.8-1.4-1.9-.6-2.8-1.1-1.9-1.3-2.8-1.8-1.9-.6-2.8-1.1-1.9-1.1-2.8-1.8c-.9-.7-1.9-1.8-2.8-2.5-.9-.6-1.9-1-2.8-1.4s-1.9-.8-2.8-1.1c-.9-.3-1.9-.5-2.8-.7s-1.9-.8-2.8-.7c-.9,0-1.9.9-2.8,1.1-.9,0-1.9-.3-2.8-.4h-2.8c-.9,0-1.9-.4-2.8-.4s-1.9.3-2.8.4h-2.8c-.9,0-1.9-.2-2.8-.4-.9,0-1.9-.4-2.8-.4s-1.9.2-2.8.4c-.9,0-1.9.3-2.8.4h-2.8c-.9,0-1.9.4-2.8.4s-1.9-.2-2.8-.4c-.9,0-1.9-.4-2.8-.4s-1.9.7-2.8.7-1.9-.4-2.8-.7c-.9-.4-1.9-1.2-2.8-1.4-.9-.2-1.9,0-2.8.4s-1.9,1.9-2.8,2.5-1.9.9-2.8,1.1-1.9-.3-2.8,0-1.9,1.5-2.8,1.8-1.9,0-2.8,0h-2.8c-.9,0-1.9-.4-2.8-.4s-1.9.4-2.8.7c-.9.3-1.9.8-2.8,1.1-.9.3-1.9.5-2.8.7s-1.9.2-2.8.4c-.9,0-1.9.2-2.8.4-.9,0-1.9.4-2.8.4s-1.9-.2-2.8-.4c-.9-.2-1.9-.5-2.8-.7s-1.9-.3-2.8-.7c-.9-.4-1.9-1.3-2.8-1.8-.9-.5-1.9-.6-2.8-1.1-.9-.5-1.9-1.6-2.8-1.8-.9-.2-1.9.6-2.8.7-.9,0-1.9.2-2.8,0s-1.9-.9-2.8-1.1c-.9,0-1.9.3-2.8.4h-2.8c-.9,0-1.9-.2-2.8-.4s-1.9-.5-2.8-.7c-.9-.2-1.9-.3-2.8-.4s-1.9-.2-2.8,0c-.9.2-1.9,1.1-2.8,1.1s-1.9-.9-2.8-1.1c-.9-.2-1.9,0-2.8,0s-1.9-.4-2.8-.4-1.9.4-2.8.4-1.9-.8-2.8-.7c-.9,0-1.9.9-2.8,1.1-.9.2-1.9,0-2.8,0s-1.9.4-2.8.4-1.9-.4-2.8-.4-1.9.2-2.8.4c-.9,0-1.9,0-2.8.4-.9.2-1.9.5-2.8,1.1s-1.9,1.9-2.8,2.1c-.9.2-1.9-.6-2.8-.7-.9,0-1.9.2-2.8.4-.9.2-1.9.5-2.8.7s-1.9.8-2.8.7c-.9,0-1.9-1.1-2.8-1.1s-1.9.8-2.8,1.1c-.9.2-1.9.3-2.8.4h-2.8c-.9,0-1.9.2-2.8.4-.9.2-1.9.7-2.8.7s-1.9-.7-2.8-.7-1.9.5-2.8.7c-.9.2-1.9.2-2.8.4-.9,0-1.9.3-2.8.4h-2.8c-.9,0-1.9.6-2.8.7s-1.9,0-2.8,0-1.9-.5-2.8-.7-1.9-.6-2.8-.7-1.9.3-2.8.4h-2.8c-.9,0-1.9.6-2.8.7s-1.9,0-2.8,0-1.9-.2-2.8-.4c-.9-.2-1.9-.5-2.8-.7s-1.9-.6-2.8-.7c-.9,0-1.9.6-2.8.4s-1.9-1.4-2.8-1.8-1.9-.6-2.8-.7-1.9.4-2.8.4-1.9-.3-2.8-.4-1.9,0-2.8,0-1.9-.6-2.8-.7c-.9,0-1.9.4-2.8.4s-1.9-.5-2.8-.7-1.9,0-2.8-.4c-.9-.2-1.9-.8-2.8-1.1-.9-.3-1.9-.4-2.8-.7-.9-.3-1.9-.7-2.8-1.1-.9-.4-1.9-.8-2.8-1.1-.9-.2-1.9,0-2.8-.4-.9-.4-1.9-1.3-2.8-1.8-.9-.5-1.9-.7-2.8-1.1-.9-.4-1.9-.6-2.8-1.1-.9-.4-1.9-1-2.8-1.4s-1.9-.8-2.8-1.1c-.9-.2-1.9-.2-2.8-.4-.9,0-1.9-.2-2.8-.4-.9,0-1.9-.2-2.8-.4-.9-.2-1.9-.6-2.8-.7-.9,0-1.9.2-2.8.4-.9,0-1.9.2-2.8.4-.9.2-1.9.5-2.8.7s-1.9.2-2.8.4c-.9.2-1.9.5-2.8.7s-1.9.2-2.8.4c-.9,0-1.9.3-2.8.4H0v-55.7h0Z"/>
</svg>