<?xml version="1.0" encoding="UTF-8"?>
<svg id="Layer_2" data-name="Layer 2" xmlns="http://www.w3.org/2000/svg" viewBox="0 0 816.25 108.4">
  <defs>
    <style>
      .cls-1 {
        fill: #fff;
      }
    </style>
  </defs>
  <g id="Layer_1-2" data-name="Layer 1">
    <path class="cls-1" d="M815.52,29.5h-2.8c-.9.1-1.9.7-2.8.7s-1.9-.4-2.8-.4c-.9-.2-1.9-.4-2.8-.4h-2.8c-.9.1-1.9.7-2.8.7s-1.9-.7-2.8-.7h-2.8c-.9-.1-1.9-.4-2.8-.4-.9.2-1.9,1.1-2.8,1.1-.9.1-1.9-.5-2.8-.7s-1.9-.2-2.8-.4c-.9-.2-1.9-.3-2.8-.7-.9-.4-1.9-1-2.8-1.8-.9-.7-1.9-2.1-2.8-2.8s-1.9-.9-2.8-1.4-1.9-.8-2.8-1.4-1.9-1.3-2.8-1.8-1.9-.7-2.8-1.1c-.9-.4-1.9-.6-2.8-1.1s-1.9-1.6-2.8-1.8-1.9.4-2.8.4-1.9-.4-2.8-.4-1.9.4-2.8.4c-.9.2-1.9.4-2.8.4-.9.2-1.9.1-2.8.4s-1.9,1.1-2.8,1.4c-.9.3-1.9.7-2.8.7s-1.9-.1-2.8-.4c-.9-.3-1.9-1.1-2.8-1.1s-1.9,1.1-2.8,1.4c-.9.4-1.9.4-2.8.4-.9-.1-1.9-.7-2.8-.7s-1.9.5-2.8.7c-.9.2-1.9.7-2.8.7h-2.8c-.9.1-1.9.7-2.8.4-.9-.3-1.9-1.7-2.8-2.1-.9-.4-1.9,0-2.8,0-.9.1-1.9-.1-2.8.4-.9.5-1.9,1.7-2.8,2.8-.9,1.1-1.9,2.8-2.8,3.9-.9,1.1-1.9,1.9-2.8,2.8-.9.9-1.9,2-2.8,2.8-.9.8-1.9,1.2-2.8,2.1s-1.9,2.2-2.8,3.2c-.9,1-1.9,1.9-2.8,2.8s-1.9,2.5-2.8,2.8c-.9.3-1.9-.7-2.8-1.1-.9-.4-1.9-1-2.8-1.4-.9-.3-1.9-.3-2.8-.7-.9-.4-1.9-1.4-2.8-1.8-.9-.4-1.9,0-2.8-.4-.9-.4-1.9-1.3-2.8-1.8-.9-.5-1.9-.7-2.8-1.1-.9-.4-1.9-.8-2.8-1.1-.9-.3-1.9-.7-2.8-.7s-1.9.4-2.8.4h-2.8c-.9-.1-1.9-.2-2.8-.4-.9-.2-1.9-.5-2.8-.7-.9-.2-1.9-.2-2.8-.4-.9-.3-1.9-.7-2.8-1.1-.9-.4-1.9-1.4-2.8-1.4-.9.1-1.9,1.5-2.8,2.1-.9.7-1.9,1.4-2.8,1.8-.9.4-1.9.2-2.8.7-.9.6-1.9,2.2-2.8,2.5-.9.3-1.9-.5-2.8-.7-.9-.2-1.9-.4-2.8-.4-.9.1-1.9.4-2.8.7-.9.3-1.9.5-2.8,1.1-.9.6-1.9,2.8-2.8,2.8s-1.9-1.3-2.8-2.5c-.9-1.2-1.9-3.4-2.8-4.6-.9-1.2-1.9-2-2.8-2.8-.9-.8-1.9-1.9-2.8-2.1-.9-.2-1.9.3-2.8.7-.9.3-1.9,1-2.8,1.4-.9.5-1.9.6-2.8,1.1-.9.5-1.9,1.8-2.8,1.8s-1.9-1.4-2.8-2.1c-.9-.7-1.9-1.2-2.8-2.1-.9-.9-1.9-2.8-2.8-3.5-.9-.7-1.9-.5-2.8-.7-.9-.2-1.9-.7-2.8-.7s-1.9.1-2.8.4-1.9.6-2.8,1.1c-.9.5-1.9,1.2-2.8,2.1-.9.9-1.9,2.6-2.8,3.2-.9.6-1.9.4-2.8.4s-1.9.2-2.8,0c-.9-.2-1.9-1.1-2.8-1.1-.9-.1-1.9.4-2.8.7-.9.3-1.9.7-2.8,1.1-.9.4-1.9,1.1-2.8,1.4-.9.4-1.9.4-2.8.4-.9-.2-1.9-1.1-2.8-1.1s-1.9,1.4-2.8,1.4-1.9-1.2-2.8-1.4c-.9-.2-1.9.1-2.8,0-.9-.1-1.9-.1-2.8-.7-.9-.6-1.9-2.1-2.8-2.8-.9-.7-1.9-1-2.8-1.4-.9-.5-1.9-.6-2.8-1.1-.9-.5-1.9-1.4-2.8-1.8-.9-.4-1.9-.3-2.8-.7-.9-.3-1.9-1-2.8-1.4-.9-.5-1.9-.6-2.8-1.1-.9-.5-1.9-1.5-2.8-1.8-.9-.3-1.9,0-2.8,0-.9-.1-1.9-.2-2.8-.4-.9-.2-1.9-.4-2.8-.7-.9-.3-1.9-.7-2.8-1.1-.9-.4-1.9-.8-2.8-1.1-.9-.3-1.9-.7-2.8-.7s-1.9.4-2.8.4c-.9.2-1.9.4-2.8.4-.9-.1-1.9-.4-2.8-.7s-1.9-.9-2.8-1.1c-.9-.2-1.9-.2-2.8,0-.9.2-1.9,1.2-2.8,1.4-.9.2-1.9,0-2.8,0h-2.8c-.9.1-1.9.7-2.8.7s-1.9-.4-2.8-.4h-5.6c-.9,0-1.9.1-2.8,0-.9-.1-1.9-.7-2.8-.7s-1.9.4-2.8.4c-.9-.1-1.9-.5-2.8-.7-.9-.2-1.9-.5-2.8-.7-.9-.2-1.9-.3-2.8-.7-.9-.3-1.9-1.3-2.8-1.4s-1.9.4-2.8.4-1.9-.2-2.8-.4-1.9-.4-2.8-.7c-.9-.3-1.9-.9-2.8-1.1-.9-.2-1.9,0-2.8,0h-2.8c-.9,0-1.9-.1-2.8,0-.9.1-1.9.6-2.8.7-.9.1-1.9-.1-2.8,0-.9.1-1.9.7-2.8.7s-1.9-.4-2.8-.4c-.9.1-1.9.7-2.8.7s-1.9-.4-2.8-.4c-.9.1-1.9.7-2.8.7s-1.9-.5-2.8-.7c-.9-.2-1.9-.4-2.8-.7-.9-.3-1.9-.9-2.8-1.1-.9-.2-1.9,0-2.8,0s-1.9.2-2.8,0c-.9-.2-1.9-.8-2.8-1.1-.9-.3-1.9-.5-2.8-.7-.9-.2-1.9-.8-2.8-.7-.9.1-1.9,1.3-2.8,1.4-.9.1-1.9-.6-2.8-.7-.9-.1-1.9,0-2.8,0-.9-.1-1.9-.2-2.8-.4-.9-.2-1.9-.3-2.8-.7-.9-.4-1.9-1.3-2.8-1.8-.9-.5-1.9-1-2.8-1.4-.9-.3-1.9-.7-2.8-.7s-1.9.1-2.8.4c-.9.3-1.9,1.4-2.8,1.4s-1.9-.8-2.8-1.4c-.9-.6-1.9-2.1-2.8-2.1s-1.9,1.4-2.8,2.1c-.9.7-1.9,1.7-2.8,2.1-.9.4-1.9.2-2.8,0-.9-.2-1.9-1.1-2.8-1.1s-1.9.4-2.8,1.1c-.9.7-1.9,2-2.8,3.2-.9,1.2-1.9,3.2-2.8,4.2-.9,1-1.9,1.7-2.8,1.8-.9.1-1.9-1.2-2.8-1.1-.9.2-1.9,1.4-2.8,1.8-.9.4-1.9.7-2.8.7s-1.9-.6-2.8-.4c-.9.2-1.9.9-2.8,1.1-.9.4-1.9.4-2.8.4-.9.2-1.9.4-2.8.4h-2.8c-.9-.1-1.9-.5-2.8-.7-.9-.2-1.9-.4-2.8-.4h-2.8c-.9.1-1.9.4-2.8.4-.9.2-1.9.4-2.8.4h-2.8c-.9-.1-1.9-.2-2.8-.7-.9-.5-1.9-1.3-2.8-2.1-.9-.8-1.9-2.3-2.8-2.5-.9-.2-1.9.5-2.8,1.1-.9.6-1.9,2-2.8,2.8-.9.8-1.9,1.3-2.8,1.8-.9.5-1.9.7-2.8,1.4-.9.7-1.9,2.1-2.8,2.8-.9.7-1.9,1-2.8,1.4-.9.3-1.9.7-2.8.7-.9-.1-1.9-1-2.8-1.4-.9-.3-1.9-.5-2.8-.7s-1.9-.7-2.8-.7-1.9.1-2.8.4-1.9.9-2.8,1.1c-.9.4-1.9.4-2.8.4-.9-.1-1.9-.7-2.8-.7s-1.9.4-2.8.4-1.9-.6-2.8-.4c-.9.2-1.9.8-2.8,1.4-.9.6-1.9,1.3-2.8,1.8-.9.5-1.9.7-2.8,1.1-.9.4-1.9.4-2.8.4-.9.2-1.9.1-2.8.4-.9.3-1.9.8-2.8,1.1-.9.3-1.9.5-2.8.7-.9.2-1.9.4-2.8.4-.9.2-1.9.2-2.8.4-.9.2-1.9.7-2.8.7h-2.8c-.9-.1-1.9-.5-2.8-.7-.9-.2-1.9-.4-2.8-.4-.9-.2-1.9-.2-2.8-.4-.9-.3-1.9-.8-2.8-1.1-.9-.3-1.9-.7-2.8-.7h-2.8c-.9-.1-1.9-.4-2.8-.7-.9-.3-1.9-.9-2.8-1.1-.9-.4-1.9-.2-2.8-.4-.9-.2-1.9-.7-2.8-.7h-5.6c-.9-.1-1.9-.4-2.8-.4s-1.9.1-2.8.4c-.9.3-1.9.7-2.8,1.4-.9.7-1.9,2.2-2.8,2.8-.9.7-1.9.9-2.8,1.1-.9.4-1.9.4-2.8.4-.9.2-1.9.4-2.8.4s-1.9,0-2.8-.4c-.9-.4-1.9-1.6-2.8-2.1-.9-.5-1.9-.5-2.8-.7-.9-.2-1.9-.4-2.8-.4-.9-.2-1.9-.1-2.8-.4-.9-.3-1.9-1.1-2.8-1.4-.9-.4-1.9-.2-2.8-.4-.9-.2-1.9-.7-2.8-.7h-2.8c-.9-.1-1.9-.7-2.8-.7-.9.1-1.9,1-2.8,1.1-.9.1-1.9-.4-2.8-.4s-1.9.2-2.8.4c-.9.3-1.9.7-2.8,1.1-.9.4-1.9,1.2-2.8,1.4-.9.1-1.9-.6-2.8-.4-.9.2-1.9,1.2-2.8,1.4-.9.2-1.9,0-2.8,0s-1.9.2-2.8,0c-.9-.2-1.9-.5-2.8-1.1-.9-.6-1.9-2.1-2.8-2.5-.9-.4-1.9-.2-2.8-.4-.9-.3-1.9-.6-2.8-1.1-.9-.5-1.9-1.4-2.8-2.1-.9-.7-1.9-1.7-2.8-2.1-.9-.4-1.9,0-2.8,0-.9-.1-1.9-.1-2.8-.4-.9-.3-1.9-.9-2.8-1.4-.9-.6-1.9-1.3-2.8-1.8-.9-.5-1.9-.8-2.8-1.1-.9-.3-1.9-.5-2.8-.7-.9-.2-1.9-.7-2.8-.7-.9.1-1.9,1.1-2.8,1.1s-1.9-.9-2.8-1.1c-.9-.3-1.9-.2-2.8-.4-.9-.2-1.9-.6-2.8-.7-.9-.1-1.9.1-2.8,0-.9-.1-1.9-.7-2.8-.7s-1.9.4-2.8.4c-.9-.1-1.9-.7-2.8-.7s-1.9.4-2.8.4-1.9-.1-2.8-.4c-.9-.3-1.9-1.1-2.8-1.4-.9-.4-1.9-.2-2.8-.4-.9-.2-1.9-.6-2.8-.7-.9-.1-1.9,0-2.8,0-.9-.1-1.9-.2-2.8-.4-.9-.2-1.9-.7-2.8-.7s-1.9.5-2.8.7c-.9.2-1.9.3-2.8.4-.9.2-1.9.5-2.8.4-.24-.05-.48-.14-.72-.24v72.4c.21-.03.42-.06.62-.06h2.8c.9-.1,1.9-.4,2.8-.4.9-.2,1.9-.4,2.8-.4s1.9.4,2.8.4c.9.2,1.9.4,2.8.4h2.8c.9-.1,1.9-.4,2.8-.4s1.9.4,2.8.4h2.8c.9.1,1.9.4,2.8.4.9-.2,1.9-1.1,2.8-1.1.9-.1,1.9.5,2.8.7.9.2,1.9.4,2.8.7.9.3,1.9.7,2.8,1.1.9.4,1.9.8,2.8,1.4.9.7,1.9,1.8,2.8,2.5.9.7,1.9,1.3,2.8,1.8.9.5,1.9.6,2.8,1.1.9.5,1.9,1.3,2.8,1.8.9.5,1.9.7,2.8,1.1.9.4,1.9.9,2.8,1.4.9.5,1.9,1.3,2.8,1.4.9.1,1.9-.4,2.8-.4s1.9.4,2.8.4,1.9-.4,2.8-.4c.9-.2,1.9-.2,2.8-.4.9-.2,1.9-.3,2.8-.7.9-.3,1.9-1,2.8-1.4.9-.4,1.9-.4,2.8-.4.9.1,1.9.5,2.8.7.9.2,1.9.4,2.8.4.9-.2,1.9-.7,2.8-1.1.9-.4,1.9-.4,2.8-.4.9.1,1.9.7,2.8.7s1.9-.2,2.8-.4c.9-.2,1.9-.5,2.8-.7.9-.2,1.9-.4,2.8-.4.9-.2,1.9-.7,2.8-.4.9.3,1.9,1.7,2.8,2.1.9.4,1.9.1,2.8,0,.9-.1,1.9-.2,2.8-.7.9-.6,1.9-1.4,2.8-2.5.9-1.1,1.9-3,2.8-4.2.9-1.3,1.9-2.3,2.8-3.2.9-1,1.9-1.7,2.8-2.5.9-.7,1.9-1.2,2.8-2.1.9-.9,1.9-2.2,2.8-3.2.9-1,1.9-1.9,2.8-2.8.9-.9,1.9-2.6,2.8-2.8.9-.1,1.9,1.3,2.8,1.8.9.5,1.9.7,2.8,1.1.9.4,1.9.7,2.8,1.1.9.4,1.9,1,2.8,1.4.9.5,1.9.7,2.8,1.1.9.4,1.9,1,2.8,1.4.9.5,1.9.8,2.8,1.1.9.3,1.9.5,2.8.7.9.2,1.9.7,2.8.7s1.9-.4,2.8-.4,1.9-.1,2.8,0c.9.1,1.9.2,2.8.4.9.2,1.9.5,2.8.7.9.2,1.9.1,2.8.4.9.3,1.9,1,2.8,1.4.9.5,1.9,1.5,2.8,1.1.9-.4,1.9-2.5,2.8-3.2.9-.7,1.9-.8,2.8-1.1.9-.3,1.9-.1,2.8-.7.9-.6,1.9-2.3,2.8-2.5.9-.2,1.9,1.2,2.8,1.4.9.2,1.9.1,2.8,0,.9-.1,1.9-.4,2.8-.7.9-.3,1.9-.4,2.8-1.1.9-.7,1.9-3.2,2.8-3.2s1.9,2.2,2.8,3.5c.9,1.3,1.9,3.1,2.8,4.2.9,1.1,1.9,1.7,2.8,2.5.9.7,1.9,1.9,2.8,2.1.9.2,1.9-.3,2.8-.7.9-.3,1.9-1,2.8-1.4.9-.5,1.9-.4,2.8-1.1.9-.7,1.9-3.2,2.8-3.2.9.1,1.9,2.9,2.8,3.9.9,1,1.9,1.2,2.8,2.1.9.9,1.9,2.5,2.8,3.2.9.7,1.9.9,2.8,1.1.9.4,1.9.4,2.8.4s1.9-.2,2.8-.4c.9-.3,1.9-.5,2.8-1.1.9-.6,1.9-1.5,2.8-2.5s1.9-2.7,2.8-3.2c.9-.5,1.9,0,2.8,0s1.9-.2,2.8,0c.9.2,1.9,1.1,2.8,1.1.9.1,1.9-.4,2.8-.7.9-.3,1.9-.7,2.8-1.1.9-.4,1.9-1.2,2.8-1.4.9-.2,1.9,0,2.8,0,.9.1,1.9.7,2.8.7.9-.1,1.9-1.1,2.8-1.1s1.9,1.2,2.8,1.4c.9.1,1.9-.4,2.8-.4.9.2,1.9.5,2.8,1.1.9.6,1.9,2.1,2.8,2.8.9.7,1.9,1,2.8,1.4.9.5,1.9.7,2.8,1.1.9.4,1.9,1,2.8,1.4.9.3,1.9.3,2.8.7.9.3,1.9.9,2.8,1.4.9.5,1.9.9,2.8,1.4.9.5,1.9,1.2,2.8,1.4.9.2,1.9-.1,2.8,0s1.9.2,2.8.4c.9.2,1.9.3,2.8.7.9.3,1.9,1,2.8,1.4.9.3,1.9.5,2.8.7.9.2,1.9.7,2.8.7s1.9-.7,2.8-.7h2.8c.9.1,1.9.3,2.8.7.9.3,1.9,1.4,2.8,1.4.9.1,1.9-.4,2.8-.7.9-.3,1.9-.9,2.8-1.1.9-.2,1.9,0,2.8,0h2.8c.9-.1,1.9-.4,2.8-.4h8.6c.9,0,1.9-.2,2.8,0,.9.2,1.9,1.1,2.8,1.1.9.1,1.9-.7,2.8-.7.9.1,1.9.9,2.8,1.1.9.4,1.9.2,2.8.4.9.2,1.9.5,2.8.7.9.2,1.9.5,2.8.7.9.2,1.9.5,2.8.7.9.2,1.9.4,2.8.4.9.2,1.9.2,2.8.4.9.3,1.9.9,2.8,1.1.9.2,1.9,0,2.8,0s1.9.1,2.8,0,1.9-.4,2.8-.4c.9-.2,1.9-.4,2.8-.4h2.8c.9-.1,1.9-.7,2.8-.7s1.9.4,2.8.4c.9-.1,1.9-.7,2.8-.7s1.9.4,2.8.4c.9-.1,1.9-.7,2.8-.7.9.1,1.9.8,2.8,1.1.9.3,1.9.4,2.8.7.9.3,1.9,1.1,2.8,1.1.9.1,1.9-.4,2.8-.4s1.9-.2,2.8,0c.9.2,1.9.8,2.8,1.1.9.3,1.9.5,2.8.7.9.2,1.9.4,2.8.4.9-.2,1.9-1.1,2.8-1.1.9-.1,1.9.7,2.8.7h2.8c.9.1,1.9.2,2.8.4.9.3,1.9.6,2.8,1.1.9.5,1.9,1.3,2.8,1.8.9.5,1.9.8,2.8,1.1.9.3,1.9.7,2.8.7s1.9-.7,2.8-.7,1.9-.2,2.8,0c.9.2,1.9.7,2.8,1.1.9.4,1.9,1.4,2.8,1.4.9-.1,1.9-1.4,2.8-2.1.9-.7,1.9-1.8,2.8-2.1.9-.2,1.9.4,2.8.4.9.2,1.9.7,2.8.4s1.9-1,2.8-1.8c.9-.7,1.9-1.7,2.8-2.8.9-1.1,1.9-3,2.8-3.9.9-.9,1.9-1.4,2.8-1.4s1.9,1.4,2.8,1.4c.9-.1,1.9-1.6,2.8-2.1.9-.5,1.9-.7,2.8-.7s1.9.1,2.8,0c.9-.1,1.9-.2,2.8-.4.9-.2,1.9-.5,2.8-.7s1.9-.4,2.8-.4h2.8c.9.1,1.9.5,2.8.7.9.2,1.9.4,2.8.4h2.8c.9-.1,1.9-.4,2.8-.4.9-.2,1.9-.4,2.8-.4s1.9-.2,2.8,0c.9.2,1.9.6,2.8,1.1.9.5,1.9,1.3,2.8,2.1.9.8,1.9,2.5,2.8,2.5.9.1,1.9-1.4,2.8-2.1.9-.7,1.9-1.4,2.8-2.1.9-.7,1.9-1.5,2.8-2.1.9-.6,1.9-.5,2.8-1.1.9-.6,1.9-2.1,2.8-2.8.9-.7,1.9-1.1,2.8-1.4.9-.4,1.9-.4,2.8-.4.9.2,1.9.8,2.8,1.1.9.3,1.9.5,2.8.7.9.2,1.9.7,2.8.7s1.9-.1,2.8-.4c.9-.3,1.9-1.2,2.8-1.4.9-.1,1.9.4,2.8.4h2.8c.9.1,1.9.4,2.8.4s1.9-.1,2.8-.4c.9-.3,1.9-.9,2.8-1.4.9-.5,1.9-1,2.8-1.4.9-.5,1.9-.9,2.8-1.1.9-.2,1.9.2,2.8,0,.9-.2,1.9-.8,2.8-1.1.9-.3,1.9-.5,2.8-.7.9-.2,1.9-.5,2.8-.7s1.9-.2,2.8-.4c.9-.2,1.9-.5,2.8-.7s1.9-.4,2.8-.4,1.9.4,2.8.4c.9.2,1.9.4,2.8.4.9.2,1.9.2,2.8.4.9.2,1.9.4,2.8.7.9.3,1.9.8,2.8,1.1.9.3,1.9.7,2.8.7s1.9-.5,2.8-.4c.9.1,1.9.3,2.8.7.9.3,1.9,1.2,2.8,1.4.9.2,1.9,0,2.8,0,.9.1,1.9.7,2.8.7s1.9-.4,2.8-.4,1.9.4,2.8.4c.9.2,1.9.4,2.8.4.9-.1,1.9-.3,2.8-.7.9-.4,1.9-1.2,2.8-1.8.9-.6,1.9-1.6,2.8-2.1.9-.6,1.9-.9,2.8-1.1.9-.4,1.9-.4,2.8-.4.9-.2,1.9-.4,2.8-.4.9.1,1.9.2,2.8.7.9.5,1.9,1.7,2.8,2.1.9.4,1.9.4,2.8.4.9.2,1.9.2,2.8.4.9.2,1.9.4,2.8.7s1.9.9,2.8,1.1c.9.4,1.9.2,2.8.4.9.2,1.9.5,2.8.7.9.2,1.9.4,2.8.4.9.2,1.9.4,2.8.4.9-.2,1.9-1.1,2.8-1.1.9-.1,1.9.4,2.8.4s1.9-.1,2.8-.4,1.9-.7,2.8-1.1c.9-.4,1.9-.7,2.8-1.1s1.9-.2,2.8-.4c.9-.2,1.9-.5,2.8-.7.9-.2,1.9-.4,2.8-.4s1.9.2,2.8.4c.9.2,1.9.2,2.8.7.9.6,1.9,2,2.8,2.5s1.9.3,2.8.7c.9.3,1.9.8,2.8,1.4.9.6,1.9,1.5,2.8,2.1.9.6,1.9,1.2,2.8,1.4s1.9-.1,2.8,0c.9.1,1.9.4,2.8.7.9.3,1.9.6,2.8,1.1s1.9,1.3,2.8,1.8,1.9.8,2.8,1.1c.9.3,1.9.5,2.8.7.9.2,1.9.7,2.8.7s1.9-.7,2.8-.7,1.9.5,2.8.7,1.9.2,2.8.4c.9.2,1.9.7,2.8.7s1.9-.1,2.8,0c.9.1,1.9.7,2.8.7s1.9-.1,2.8,0c.9.1,1.9.4,2.8.4s1.9-.5,2.8-.4c.9.1,1.9.3,2.8.7.9.3,1.9,1.2,2.8,1.4.9.2,1.9-.1,2.8,0,.9.1,1.9.5,2.8.7s1.9.4,2.8.4c.9.2,1.9.4,2.8.4.9.2,1.9.4,2.8.4.9-.1,1.9-.5,2.8-.7.9-.2,1.9-.4,2.8-.4.2-.05.42-.09.63-.13V29.43c-.25.04-.49.07-.73.07Z"/>
  </g>
</svg>