<?xml version="1.0" encoding="UTF-8"?>
<svg width="1440" height="113" viewBox="0 0 1440 113" 
     fill="none" xmlns="http://www.w3.org/2000/svg">
  <path d="M 0.000,50.096 C 0.469,50.096 1.875,50.048 2.812,50.096 C 3.750,50.143 4.688,50.285 5.625,50.380 C 6.562,50.475 7.500,50.570 8.438,50.665 C 9.375,50.760 10.312,50.902 11.250,50.950 C 12.188,50.997 13.125,51.187 14.062,50.950 C 15.000,50.712 15.938,49.859 16.875,49.526 C 17.812,49.194 18.750,49.242 19.688,48.957 C 20.625,48.673 21.562,48.293 22.500,47.819 C 23.438,47.344 24.375,46.917 25.312,46.111 C 26.250,45.304 27.188,43.549 28.125,42.980 C 29.062,42.411 30.000,42.743 30.938,42.695 C 31.875,42.648 32.812,42.553 33.750,42.695 C 34.688,42.838 35.625,43.454 36.562,43.549 C 37.500,43.644 38.438,43.264 39.375,43.264 C 40.312,43.264 41.250,43.502 42.188,43.549 C 43.125,43.597 44.062,43.407 45.000,43.549 C 45.938,43.691 46.875,44.261 47.812,44.403 C 48.750,44.545 49.688,44.450 50.625,44.403 C 51.562,44.356 52.500,44.213 53.438,44.118 C 54.375,44.024 55.312,43.786 56.250,43.834 C 57.188,43.881 58.125,44.261 59.062,44.403 C 60.000,44.545 60.938,44.640 61.875,44.688 C 62.812,44.735 63.750,44.783 64.688,44.688 C 65.625,44.593 66.562,44.118 67.500,44.118 C 68.438,44.118 69.375,44.688 70.312,44.688 C 71.250,44.688 72.188,44.213 73.125,44.118 C 74.062,44.024 75.000,44.166 75.938,44.118 C 76.875,44.071 77.812,43.834 78.750,43.834 C 79.688,43.834 80.625,44.118 81.562,44.118 C 82.500,44.118 83.438,43.976 84.375,43.834 C 85.312,43.691 86.250,43.454 87.188,43.264 C 88.125,43.075 89.062,42.932 90.000,42.695 C 90.938,42.458 91.875,42.031 92.812,41.841 C 93.750,41.652 94.688,41.652 95.625,41.557 C 96.562,41.462 97.500,41.414 98.438,41.272 C 99.375,41.130 100.312,40.798 101.250,40.703 C 102.188,40.608 103.125,40.655 104.062,40.703 C 105.000,40.750 105.938,41.130 106.875,40.987 C 107.812,40.845 108.750,40.039 109.688,39.849 C 110.625,39.659 111.562,39.849 112.500,39.849 C 113.438,39.849 114.375,39.944 115.312,39.849 C 116.250,39.754 117.188,39.422 118.125,39.280 C 119.062,39.137 120.000,38.948 120.938,38.995 C 121.875,39.042 122.812,39.564 123.750,39.564 C 124.688,39.564 125.625,39.137 126.562,38.995 C 127.500,38.853 128.438,38.805 129.375,38.710 C 130.312,38.615 131.250,38.473 132.188,38.426 C 133.125,38.378 134.062,38.521 135.000,38.426 C 135.938,38.331 136.875,37.904 137.812,37.856 C 138.750,37.809 139.688,37.999 140.625,38.141 C 141.562,38.283 142.500,38.568 143.438,38.710 C 144.375,38.853 145.312,38.948 146.250,38.995 C 147.188,39.042 148.125,39.042 149.062,38.995 C 150.000,38.948 150.938,38.900 151.875,38.710 C 152.812,38.521 153.750,37.856 154.688,37.856 C 155.625,37.856 156.562,38.568 157.500,38.710 C 158.438,38.853 159.375,38.663 160.312,38.710 C 161.250,38.758 162.188,38.853 163.125,38.995 C 164.062,39.137 165.000,39.469 165.938,39.564 C 166.875,39.659 167.812,39.327 168.750,39.564 C 169.688,39.801 170.625,40.703 171.562,40.987 C 172.500,41.272 173.438,41.272 174.375,41.272 C 175.312,41.272 176.250,40.987 177.188,40.987 C 178.125,40.987 179.062,41.225 180.000,41.272 C 180.938,41.319 181.875,41.225 182.812,41.272 C 183.750,41.319 184.688,41.509 185.625,41.557 C 186.562,41.604 187.500,41.414 188.438,41.557 C 189.375,41.699 190.312,42.268 191.250,42.411 C 192.188,42.553 193.125,42.268 194.062,42.411 C 195.000,42.553 195.938,42.932 196.875,43.264 C 197.812,43.597 198.750,44.118 199.688,44.403 C 200.625,44.688 201.562,44.735 202.500,44.972 C 203.438,45.209 204.375,45.636 205.312,45.826 C 206.250,46.016 207.188,45.826 208.125,46.111 C 209.062,46.395 210.000,47.107 210.938,47.534 C 211.875,47.961 212.812,48.340 213.750,48.673 C 214.688,49.005 215.625,49.242 216.562,49.526 C 217.500,49.811 218.438,50.048 219.375,50.380 C 220.312,50.712 221.250,51.329 222.188,51.519 C 223.125,51.709 224.062,51.471 225.000,51.519 C 225.938,51.566 226.875,51.661 227.812,51.804 C 228.750,51.946 229.688,51.946 230.625,52.373 C 231.562,52.800 232.500,53.938 233.438,54.365 C 234.375,54.792 235.312,54.792 236.250,54.935 C 237.188,55.077 238.125,55.172 239.062,55.219 C 240.000,55.267 240.938,55.172 241.875,55.219 C 242.812,55.267 243.750,55.456 244.688,55.504 C 245.625,55.551 246.562,55.504 247.500,55.504 C 248.438,55.504 249.375,55.504 250.312,55.504 C 251.250,55.504 252.188,55.504 253.125,55.504 C 254.062,55.504 255.000,55.504 255.938,55.504 C 256.875,55.504 257.812,55.504 258.750,55.504 C 259.688,55.504 260.625,55.504 261.562,55.504 C 262.500,55.504 263.438,55.599 264.375,55.504 C 265.312,55.409 266.250,55.314 267.188,54.935 C 268.125,54.555 269.062,53.464 270.000,53.227 C 270.938,52.990 271.875,53.654 272.812,53.511 C 273.750,53.369 274.688,52.468 275.625,52.373 C 276.562,52.278 277.500,52.895 278.438,52.942 C 279.375,52.990 280.312,52.705 281.250,52.657 C 282.188,52.610 283.125,52.705 284.062,52.657 C 285.000,52.610 285.938,52.373 286.875,52.373 C 287.812,52.373 288.750,52.705 289.688,52.657 C 290.625,52.610 291.562,52.373 292.500,52.088 C 293.438,51.804 294.375,51.187 295.312,50.950 C 296.250,50.712 297.188,50.618 298.125,50.665 C 299.062,50.712 300.000,51.187 300.938,51.234 C 301.875,51.282 302.812,51.045 303.750,50.950 C 304.688,50.855 305.625,50.760 306.562,50.665 C 307.500,50.570 308.438,50.618 309.375,50.380 C 310.312,50.143 311.250,49.289 312.188,49.242 C 313.125,49.194 314.062,50.048 315.000,50.096 C 315.938,50.143 316.875,49.479 317.812,49.526 C 318.750,49.574 319.688,50.238 320.625,50.380 C 321.562,50.523 322.500,50.523 323.438,50.380 C 324.375,50.238 325.312,49.716 326.250,49.526 C 327.188,49.337 328.125,49.194 329.062,49.242 C 330.000,49.289 330.938,49.621 331.875,49.811 C 332.812,50.001 333.750,50.143 334.688,50.380 C 335.625,50.618 336.562,50.997 337.500,51.234 C 338.438,51.471 339.375,51.851 340.312,51.804 C 341.250,51.756 342.188,51.234 343.125,50.950 C 344.062,50.665 345.000,50.096 345.938,50.096 C 346.875,50.096 347.812,50.807 348.750,50.950 C 349.688,51.092 350.625,50.950 351.562,50.950 C 352.500,50.950 353.438,50.950 354.375,50.950 C 355.312,50.950 356.250,50.997 357.188,50.950 C 358.125,50.902 359.062,50.665 360.000,50.665 C 360.938,50.665 361.875,50.997 362.812,50.950 C 363.750,50.902 364.688,50.428 365.625,50.380 C 366.562,50.333 367.500,50.523 368.438,50.665 C 369.375,50.807 370.312,51.045 371.250,51.234 C 372.188,51.424 373.125,51.709 374.062,51.804 C 375.000,51.898 375.938,51.756 376.875,51.804 C 377.812,51.851 378.750,52.088 379.688,52.088 C 380.625,52.088 381.562,51.898 382.500,51.804 C 383.438,51.709 384.375,51.566 385.312,51.519 C 386.250,51.471 387.188,51.519 388.125,51.519 C 389.062,51.519 390.000,51.471 390.938,51.519 C 391.875,51.566 392.812,51.709 393.750,51.804 C 394.688,51.898 395.625,52.088 396.562,52.088 C 397.500,52.088 398.438,51.851 399.375,51.804 C 400.312,51.756 401.250,51.898 402.188,51.804 C 403.125,51.709 404.062,51.519 405.000,51.234 C 405.938,50.950 406.875,50.428 407.812,50.096 C 408.750,49.764 409.688,49.479 410.625,49.242 C 411.562,49.005 412.500,49.052 413.438,48.673 C 414.375,48.293 415.312,47.107 416.250,46.965 C 417.188,46.822 418.125,47.581 419.062,47.819 C 420.000,48.056 420.938,48.340 421.875,48.388 C 422.812,48.435 423.750,47.866 424.688,48.103 C 425.625,48.340 426.562,49.432 427.500,49.811 C 428.438,50.191 429.375,50.380 430.312,50.380 C 431.250,50.380 432.188,50.096 433.125,49.811 C 434.062,49.526 435.000,49.005 435.938,48.673 C 436.875,48.340 437.812,48.056 438.750,47.819 C 439.688,47.581 440.625,47.487 441.562,47.249 C 442.500,47.012 443.438,46.538 444.375,46.395 C 445.312,46.253 446.250,46.395 447.188,46.395 C 448.125,46.395 449.062,46.443 450.000,46.395 C 450.938,46.348 451.875,46.158 452.812,46.111 C 453.750,46.063 454.688,46.111 455.625,46.111 C 456.562,46.111 457.500,46.111 458.438,46.111 C 459.375,46.111 460.312,46.206 461.250,46.111 C 462.188,46.016 463.125,45.684 464.062,45.542 C 465.000,45.399 465.938,45.399 466.875,45.257 C 467.812,45.115 468.750,45.020 469.688,44.688 C 470.625,44.356 471.562,43.597 472.500,43.264 C 473.438,42.932 474.375,43.075 475.312,42.695 C 476.250,42.316 477.188,41.414 478.125,40.987 C 479.062,40.560 480.000,40.276 480.938,40.134 C 481.875,39.991 482.812,40.134 483.750,40.134 C 484.688,40.134 485.625,40.276 486.562,40.134 C 487.500,39.991 488.438,39.469 489.375,39.280 C 490.312,39.090 491.250,39.232 492.188,38.995 C 493.125,38.758 494.062,38.141 495.000,37.856 C 495.938,37.572 496.875,37.335 497.812,37.287 C 498.750,37.240 499.688,37.667 500.625,37.572 C 501.562,37.477 502.500,36.955 503.438,36.718 C 504.375,36.481 505.312,36.386 506.250,36.149 C 507.188,35.911 508.125,35.437 509.062,35.295 C 510.000,35.152 510.938,35.342 511.875,35.295 C 512.812,35.247 513.750,35.058 514.688,35.010 C 515.625,34.963 516.562,34.915 517.500,35.010 C 518.438,35.105 519.375,35.532 520.312,35.579 C 521.250,35.627 522.188,35.200 523.125,35.295 C 524.062,35.390 525.000,35.911 525.938,36.149 C 526.875,36.386 527.812,36.386 528.750,36.718 C 529.688,37.050 530.625,37.762 531.562,38.141 C 532.500,38.521 533.438,38.473 534.375,38.995 C 535.312,39.517 536.250,40.703 537.188,41.272 C 538.125,41.841 539.062,42.126 540.000,42.411 C 540.938,42.695 541.875,42.980 542.812,42.980 C 543.750,42.980 544.688,42.600 545.625,42.411 C 546.562,42.221 547.500,42.221 548.438,41.841 C 549.375,41.462 550.312,40.513 551.250,40.134 C 552.188,39.754 553.125,39.564 554.062,39.564 C 555.000,39.564 555.938,40.181 556.875,40.134 C 557.812,40.086 558.750,39.564 559.688,39.280 C 560.625,38.995 561.562,38.615 562.500,38.426 C 563.438,38.236 564.375,38.236 565.312,38.141 C 566.250,38.046 567.188,37.856 568.125,37.856 C 569.062,37.856 570.000,37.999 570.938,38.141 C 571.875,38.283 572.812,38.473 573.750,38.710 C 574.688,38.948 575.625,39.232 576.562,39.564 C 577.500,39.896 578.438,40.276 579.375,40.703 C 580.312,41.130 581.250,41.794 582.188,42.126 C 583.125,42.458 584.062,42.790 585.000,42.695 C 585.938,42.600 586.875,41.746 587.812,41.557 C 588.750,41.367 589.688,41.604 590.625,41.557 C 591.562,41.509 592.500,41.367 593.438,41.272 C 594.375,41.177 595.312,41.082 596.250,40.987 C 597.188,40.893 598.125,40.655 599.062,40.703 C 600.000,40.750 600.938,41.130 601.875,41.272 C 602.812,41.414 603.750,41.462 604.688,41.557 C 605.625,41.652 606.562,41.841 607.500,41.841 C 608.438,41.841 609.375,41.699 610.312,41.557 C 611.250,41.414 612.188,40.940 613.125,40.987 C 614.062,41.035 615.000,41.604 615.938,41.841 C 616.875,42.079 617.812,42.316 618.750,42.411 C 619.688,42.505 620.625,42.553 621.562,42.411 C 622.500,42.268 623.438,42.031 624.375,41.557 C 625.312,41.082 626.250,40.086 627.188,39.564 C 628.125,39.042 629.062,39.042 630.000,38.426 C 630.938,37.809 631.875,36.765 632.812,35.864 C 633.750,34.963 634.688,33.777 635.625,33.018 C 636.562,32.259 637.500,31.642 638.438,31.310 C 639.375,30.978 640.312,30.883 641.250,31.025 C 642.188,31.168 643.125,32.211 644.062,32.164 C 645.000,32.116 645.938,31.310 646.875,30.741 C 647.812,30.171 648.750,28.890 649.688,28.748 C 650.625,28.606 651.562,29.555 652.500,29.887 C 653.438,30.219 654.375,30.598 655.312,30.741 C 656.250,30.883 657.188,30.835 658.125,30.741 C 659.062,30.646 660.000,30.266 660.938,30.171 C 661.875,30.076 662.812,29.934 663.750,30.171 C 664.688,30.408 665.625,31.168 666.562,31.594 C 667.500,32.021 668.438,32.353 669.375,32.733 C 670.312,33.113 671.250,33.634 672.188,33.872 C 673.125,34.109 674.062,34.109 675.000,34.156 C 675.938,34.204 676.875,34.109 677.812,34.156 C 678.750,34.204 679.688,34.536 680.625,34.441 C 681.562,34.346 682.500,33.634 683.438,33.587 C 684.375,33.539 685.312,33.966 686.250,34.156 C 687.188,34.346 688.125,34.536 689.062,34.725 C 690.000,34.915 690.938,35.152 691.875,35.295 C 692.812,35.437 693.750,35.579 694.688,35.579 C 695.625,35.579 696.562,35.200 697.500,35.295 C 698.438,35.390 699.375,35.959 700.312,36.149 C 701.250,36.338 702.188,36.243 703.125,36.433 C 704.062,36.623 705.000,37.240 705.938,37.287 C 706.875,37.335 707.812,36.765 708.750,36.718 C 709.688,36.670 710.625,37.003 711.562,37.003 C 712.500,37.003 713.438,36.718 714.375,36.718 C 715.312,36.718 716.250,37.050 717.188,37.003 C 718.125,36.955 719.062,36.576 720.000,36.433 C 720.938,36.291 721.875,36.196 722.812,36.149 C 723.750,36.101 724.688,36.196 725.625,36.149 C 726.562,36.101 727.500,35.911 728.438,35.864 C 729.375,35.817 730.312,35.864 731.250,35.864 C 732.188,35.864 733.125,35.769 734.062,35.864 C 735.000,35.959 735.938,36.243 736.875,36.433 C 737.812,36.623 738.750,36.860 739.688,37.003 C 740.625,37.145 741.562,37.145 742.500,37.287 C 743.438,37.429 744.375,37.714 745.312,37.856 C 746.250,37.999 747.188,37.951 748.125,38.141 C 749.062,38.331 750.000,38.853 750.938,38.995 C 751.875,39.137 752.812,38.853 753.750,38.995 C 754.688,39.137 755.625,39.754 756.562,39.849 C 757.500,39.944 758.438,39.517 759.375,39.564 C 760.312,39.612 761.250,40.039 762.188,40.134 C 763.125,40.228 764.062,40.134 765.000,40.134 C 765.938,40.134 766.875,40.086 767.812,40.134 C 768.750,40.181 769.688,40.371 770.625,40.418 C 771.562,40.466 772.500,40.466 773.438,40.418 C 774.375,40.371 775.312,40.228 776.250,40.134 C 777.188,40.039 778.125,39.896 779.062,39.849 C 780.000,39.801 780.938,39.896 781.875,39.849 C 782.812,39.801 783.750,39.754 784.688,39.564 C 785.625,39.374 786.562,38.710 787.500,38.710 C 788.438,38.710 789.375,39.232 790.312,39.564 C 791.250,39.896 792.188,40.608 793.125,40.703 C 794.062,40.798 795.000,40.323 795.938,40.134 C 796.875,39.944 797.812,39.564 798.750,39.564 C 799.688,39.564 800.625,39.896 801.562,40.134 C 802.500,40.371 803.438,40.655 804.375,40.987 C 805.312,41.319 806.250,41.841 807.188,42.126 C 808.125,42.411 809.062,42.600 810.000,42.695 C 810.938,42.790 811.875,42.648 812.812,42.695 C 813.750,42.743 814.688,42.790 815.625,42.980 C 816.562,43.170 817.500,43.502 818.438,43.834 C 819.375,44.166 820.312,45.020 821.250,44.972 C 822.188,44.925 823.125,43.691 824.062,43.549 C 825.000,43.407 825.938,43.929 826.875,44.118 C 827.812,44.308 828.750,44.498 829.688,44.688 C 830.625,44.877 831.562,44.925 832.500,45.257 C 833.438,45.589 834.375,46.301 835.312,46.680 C 836.250,47.060 837.188,47.202 838.125,47.534 C 839.062,47.866 840.000,48.340 840.938,48.673 C 841.875,49.005 842.812,49.432 843.750,49.526 C 844.688,49.621 845.625,49.242 846.562,49.242 C 847.500,49.242 848.438,49.574 849.375,49.526 C 850.312,49.479 851.250,48.957 852.188,48.957 C 853.125,48.957 854.062,49.242 855.000,49.526 C 855.938,49.811 856.875,50.523 857.812,50.665 C 858.750,50.807 859.688,50.285 860.625,50.380 C 861.562,50.475 862.500,51.139 863.438,51.234 C 864.375,51.329 865.312,50.902 866.250,50.950 C 867.188,50.997 868.125,51.471 869.062,51.519 C 870.000,51.566 870.938,51.187 871.875,51.234 C 872.812,51.282 873.750,51.709 874.688,51.804 C 875.625,51.898 876.562,51.614 877.500,51.804 C 878.438,51.993 879.375,52.705 880.312,52.942 C 881.250,53.179 882.188,53.132 883.125,53.227 C 884.062,53.322 885.000,53.227 885.938,53.511 C 886.875,53.796 887.812,54.555 888.750,54.935 C 889.688,55.314 890.625,55.646 891.562,55.788 C 892.500,55.931 893.438,55.741 894.375,55.788 C 895.312,55.836 896.250,55.978 897.188,56.073 C 898.125,56.168 899.062,56.310 900.000,56.358 C 900.938,56.405 901.875,56.358 902.812,56.358 C 903.750,56.358 904.688,56.358 905.625,56.358 C 906.562,56.358 907.500,56.358 908.438,56.358 C 909.375,56.358 910.312,56.500 911.250,56.358 C 912.188,56.215 913.125,55.978 914.062,55.504 C 915.000,55.029 915.938,54.270 916.875,53.511 C 917.812,52.752 918.750,51.471 919.688,50.950 C 920.625,50.428 921.562,50.523 922.500,50.380 C 923.438,50.238 924.375,50.143 925.312,50.096 C 926.250,50.048 927.188,50.001 928.125,50.096 C 929.062,50.191 930.000,50.618 930.938,50.665 C 931.875,50.712 932.812,50.428 933.750,50.380 C 934.688,50.333 935.625,50.096 936.562,50.380 C 937.500,50.665 938.438,51.566 939.375,52.088 C 940.312,52.610 941.250,53.132 942.188,53.511 C 943.125,53.891 944.062,54.745 945.000,54.365 C 945.938,53.986 946.875,51.898 947.812,51.234 C 948.750,50.570 949.688,50.950 950.625,50.380 C 951.562,49.811 952.500,48.578 953.438,47.819 C 954.375,47.060 955.312,46.538 956.250,45.826 C 957.188,45.115 958.125,44.166 959.062,43.549 C 960.000,42.932 960.938,42.505 961.875,42.126 C 962.812,41.746 963.750,41.509 964.688,41.272 C 965.625,41.035 966.562,41.177 967.500,40.703 C 968.438,40.228 969.375,38.853 970.312,38.426 C 971.250,37.999 972.188,38.283 973.125,38.141 C 974.062,37.999 975.000,37.524 975.938,37.572 C 976.875,37.619 977.812,38.188 978.750,38.426 C 979.688,38.663 980.625,38.710 981.562,38.995 C 982.500,39.280 983.438,39.801 984.375,40.134 C 985.312,40.466 986.250,40.703 987.188,40.987 C 988.125,41.272 989.062,41.414 990.000,41.841 C 990.938,42.268 991.875,43.122 992.812,43.549 C 993.750,43.976 994.688,43.976 995.625,44.403 C 996.562,44.830 997.500,45.542 998.438,46.111 C 999.375,46.680 1000.312,47.249 1001.250,47.819 C 1002.188,48.388 1003.125,49.052 1004.062,49.526 C 1005.000,50.001 1005.938,50.380 1006.875,50.665 C 1007.812,50.950 1008.750,50.855 1009.688,51.234 C 1010.625,51.614 1011.562,53.037 1012.500,52.942 C 1013.438,52.847 1014.375,51.329 1015.312,50.665 C 1016.250,50.001 1017.188,49.526 1018.125,48.957 C 1019.062,48.388 1020.000,47.771 1020.938,47.249 C 1021.875,46.728 1022.812,46.538 1023.750,45.826 C 1024.688,45.115 1025.625,43.834 1026.562,42.980 C 1027.500,42.126 1028.438,41.367 1029.375,40.703 C 1030.312,40.039 1031.250,39.612 1032.188,38.995 C 1033.125,38.378 1034.062,37.429 1035.000,37.003 C 1035.938,36.576 1036.875,36.718 1037.812,36.433 C 1038.750,36.149 1039.688,35.627 1040.625,35.295 C 1041.562,34.963 1042.500,34.441 1043.438,34.441 C 1044.375,34.441 1045.312,35.010 1046.250,35.295 C 1047.188,35.579 1048.125,35.769 1049.062,36.149 C 1050.000,36.528 1050.938,37.145 1051.875,37.572 C 1052.812,37.999 1053.750,38.331 1054.688,38.710 C 1055.625,39.090 1056.562,39.612 1057.500,39.849 C 1058.438,40.086 1059.375,40.086 1060.312,40.134 C 1061.250,40.181 1062.188,40.134 1063.125,40.134 C 1064.062,40.134 1065.000,40.039 1065.938,40.134 C 1066.875,40.228 1067.812,40.513 1068.750,40.703 C 1069.688,40.893 1070.625,41.367 1071.562,41.272 C 1072.500,41.177 1073.438,40.134 1074.375,40.134 C 1075.312,40.134 1076.250,41.035 1077.188,41.272 C 1078.125,41.509 1079.062,41.414 1080.000,41.557 C 1080.938,41.699 1081.875,42.126 1082.812,42.126 C 1083.750,42.126 1084.688,41.794 1085.625,41.557 C 1086.562,41.319 1087.500,40.845 1088.438,40.703 C 1089.375,40.560 1090.312,40.513 1091.250,40.703 C 1092.188,40.893 1093.125,41.699 1094.062,41.841 C 1095.000,41.984 1095.938,41.652 1096.875,41.557 C 1097.812,41.462 1098.750,41.509 1099.688,41.272 C 1100.625,41.035 1101.562,40.418 1102.500,40.134 C 1103.438,39.849 1104.375,39.754 1105.312,39.564 C 1106.250,39.374 1107.188,39.137 1108.125,38.995 C 1109.062,38.853 1110.000,38.758 1110.938,38.710 C 1111.875,38.663 1112.812,38.758 1113.750,38.710 C 1114.688,38.663 1115.625,38.426 1116.562,38.426 C 1117.500,38.426 1118.438,38.710 1119.375,38.710 C 1120.312,38.710 1121.250,38.236 1122.188,38.426 C 1123.125,38.615 1124.062,39.422 1125.000,39.849 C 1125.938,40.276 1126.875,40.750 1127.812,40.987 C 1128.750,41.225 1129.688,40.987 1130.625,41.272 C 1131.562,41.557 1132.500,42.221 1133.438,42.695 C 1134.375,43.170 1135.312,43.691 1136.250,44.118 C 1137.188,44.545 1138.125,44.830 1139.062,45.257 C 1140.000,45.684 1140.938,46.206 1141.875,46.680 C 1142.812,47.154 1143.750,47.534 1144.688,48.103 C 1145.625,48.673 1146.562,49.574 1147.500,50.096 C 1148.438,50.618 1149.375,50.855 1150.312,51.234 C 1151.250,51.614 1152.188,51.993 1153.125,52.373 C 1154.062,52.752 1155.000,53.416 1155.938,53.511 C 1156.875,53.606 1157.812,52.942 1158.750,52.942 C 1159.688,52.942 1160.625,53.511 1161.562,53.511 C 1162.500,53.511 1163.438,53.037 1164.375,52.942 C 1165.312,52.847 1166.250,52.895 1167.188,52.942 C 1168.125,52.990 1169.062,53.227 1170.000,53.227 C 1170.938,53.227 1171.875,52.895 1172.812,52.942 C 1173.750,52.990 1174.688,53.416 1175.625,53.511 C 1176.562,53.606 1177.500,53.654 1178.438,53.511 C 1179.375,53.369 1180.312,52.705 1181.250,52.657 C 1182.188,52.610 1183.125,53.084 1184.062,53.227 C 1185.000,53.369 1185.938,53.464 1186.875,53.511 C 1187.812,53.559 1188.750,53.559 1189.688,53.511 C 1190.625,53.464 1191.562,53.274 1192.500,53.227 C 1193.438,53.179 1194.375,53.227 1195.312,53.227 C 1196.250,53.227 1197.188,53.274 1198.125,53.227 C 1199.062,53.179 1200.000,53.084 1200.938,52.942 C 1201.875,52.800 1202.812,52.325 1203.750,52.373 C 1204.688,52.420 1205.625,53.132 1206.562,53.227 C 1207.500,53.322 1208.438,52.895 1209.375,52.942 C 1210.312,52.990 1211.250,53.606 1212.188,53.511 C 1213.125,53.416 1214.062,52.420 1215.000,52.373 C 1215.938,52.325 1216.875,53.037 1217.812,53.227 C 1218.750,53.416 1219.688,53.416 1220.625,53.511 C 1221.562,53.606 1222.500,53.749 1223.438,53.796 C 1224.375,53.843 1225.312,53.986 1226.250,53.796 C 1227.188,53.606 1228.125,53.037 1229.062,52.657 C 1230.000,52.278 1230.938,51.851 1231.875,51.519 C 1232.812,51.187 1233.750,51.329 1234.688,50.665 C 1235.625,50.001 1236.562,48.103 1237.500,47.534 C 1238.438,46.965 1239.375,47.202 1240.312,47.249 C 1241.250,47.297 1242.188,47.771 1243.125,47.819 C 1244.062,47.866 1245.000,47.724 1245.938,47.534 C 1246.875,47.344 1247.812,46.680 1248.750,46.680 C 1249.688,46.680 1250.625,47.439 1251.562,47.534 C 1252.500,47.629 1253.438,47.487 1254.375,47.249 C 1255.312,47.012 1256.250,46.395 1257.188,46.111 C 1258.125,45.826 1259.062,45.636 1260.000,45.542 C 1260.938,45.447 1261.875,45.589 1262.812,45.542 C 1263.750,45.494 1264.688,45.304 1265.625,45.257 C 1266.562,45.209 1267.500,45.115 1268.438,45.257 C 1269.375,45.399 1270.312,45.779 1271.250,46.111 C 1272.188,46.443 1273.125,46.870 1274.062,47.249 C 1275.000,47.629 1275.938,48.008 1276.875,48.388 C 1277.812,48.767 1278.750,49.147 1279.688,49.526 C 1280.625,49.906 1281.562,50.760 1282.500,50.665 C 1283.438,50.570 1284.375,49.194 1285.312,48.957 C 1286.250,48.720 1287.188,48.910 1288.125,49.242 C 1289.062,49.574 1290.000,50.807 1290.938,50.950 C 1291.875,51.092 1292.812,50.048 1293.750,50.096 C 1294.688,50.143 1295.625,50.807 1296.562,51.234 C 1297.500,51.661 1298.438,52.420 1299.375,52.657 C 1300.312,52.895 1301.250,52.895 1302.188,52.657 C 1303.125,52.420 1304.062,51.614 1305.000,51.234 C 1305.938,50.855 1306.875,50.665 1307.812,50.380 C 1308.750,50.096 1309.688,49.811 1310.625,49.526 C 1311.562,49.242 1312.500,48.862 1313.438,48.673 C 1314.375,48.483 1315.312,48.435 1316.250,48.388 C 1317.188,48.340 1318.125,48.388 1319.062,48.388 C 1320.000,48.388 1320.938,48.388 1321.875,48.388 C 1322.812,48.388 1323.750,48.435 1324.688,48.388 C 1325.625,48.340 1326.562,48.103 1327.500,48.103 C 1328.438,48.103 1329.375,48.435 1330.312,48.388 C 1331.250,48.340 1332.188,48.008 1333.125,47.819 C 1334.062,47.629 1335.000,47.392 1335.938,47.249 C 1336.875,47.107 1337.812,47.249 1338.750,46.965 C 1339.688,46.680 1340.625,45.874 1341.562,45.542 C 1342.500,45.209 1343.438,45.257 1344.375,44.972 C 1345.312,44.688 1346.250,44.261 1347.188,43.834 C 1348.125,43.407 1349.062,42.695 1350.000,42.411 C 1350.938,42.126 1351.875,42.126 1352.812,42.126 C 1353.750,42.126 1354.688,42.458 1355.625,42.411 C 1356.562,42.363 1357.500,41.984 1358.438,41.841 C 1359.375,41.699 1360.312,41.794 1361.250,41.557 C 1362.188,41.319 1363.125,40.750 1364.062,40.418 C 1365.000,40.086 1365.938,39.707 1366.875,39.564 C 1367.812,39.422 1368.750,39.564 1369.688,39.564 C 1370.625,39.564 1371.562,39.707 1372.500,39.564 C 1373.438,39.422 1374.375,39.042 1375.312,38.710 C 1376.250,38.378 1377.188,37.762 1378.125,37.572 C 1379.062,37.382 1380.000,37.619 1380.938,37.572 C 1381.875,37.524 1382.812,37.382 1383.750,37.287 C 1384.688,37.192 1385.625,36.908 1386.562,37.003 C 1387.500,37.097 1388.438,37.762 1389.375,37.856 C 1390.312,37.951 1391.250,37.524 1392.188,37.572 C 1393.125,37.619 1394.062,37.951 1395.000,38.141 C 1395.938,38.331 1396.875,38.426 1397.812,38.710 C 1398.750,38.995 1399.688,39.469 1400.625,39.849 C 1401.562,40.228 1402.500,40.513 1403.438,40.987 C 1404.375,41.462 1405.312,42.173 1406.250,42.695 C 1407.188,43.217 1408.125,43.691 1409.062,44.118 C 1410.000,44.545 1410.938,45.115 1411.875,45.257 C 1412.812,45.399 1413.750,45.162 1414.688,44.972 C 1415.625,44.783 1416.562,44.450 1417.500,44.118 C 1418.438,43.786 1419.375,43.454 1420.312,42.980 C 1421.250,42.505 1422.188,41.319 1423.125,41.272 C 1424.062,41.225 1425.000,42.648 1425.938,42.695 C 1426.875,42.743 1427.812,41.889 1428.750,41.557 C 1429.688,41.225 1430.625,40.940 1431.562,40.703 C 1432.500,40.466 1433.438,40.228 1434.375,40.134 C 1435.312,40.039 1436.719,40.134 1437.188,40.134 L 1437.188,91.652 C 1436.719,91.652 1435.312,91.700 1434.375,91.652 C 1433.438,91.605 1432.500,91.320 1431.562,91.368 C 1430.625,91.415 1429.688,91.984 1428.750,91.937 C 1427.812,91.890 1426.875,91.036 1425.938,91.083 C 1425.000,91.131 1424.062,91.984 1423.125,92.222 C 1422.188,92.459 1421.250,92.364 1420.312,92.506 C 1419.375,92.649 1418.438,93.028 1417.500,93.076 C 1416.562,93.123 1415.625,92.933 1414.688,92.791 C 1413.750,92.649 1412.812,92.174 1411.875,92.222 C 1410.938,92.269 1410.000,93.076 1409.062,93.076 C 1408.125,93.076 1407.188,92.411 1406.250,92.222 C 1405.312,92.032 1404.375,92.174 1403.438,91.937 C 1402.500,91.700 1401.562,91.036 1400.625,90.798 C 1399.688,90.561 1398.750,90.466 1397.812,90.514 C 1396.875,90.561 1395.938,90.988 1395.000,91.083 C 1394.062,91.178 1393.125,91.131 1392.188,91.083 C 1391.250,91.036 1390.312,90.751 1389.375,90.798 C 1388.438,90.846 1387.500,91.225 1386.562,91.368 C 1385.625,91.510 1384.688,91.558 1383.750,91.652 C 1382.812,91.747 1381.875,91.937 1380.938,91.937 C 1380.000,91.937 1379.062,91.890 1378.125,91.652 C 1377.188,91.415 1376.250,90.893 1375.312,90.514 C 1374.375,90.134 1373.438,89.707 1372.500,89.375 C 1371.562,89.043 1370.625,88.853 1369.688,88.521 C 1368.750,88.189 1367.812,87.668 1366.875,87.383 C 1365.938,87.098 1365.000,86.956 1364.062,86.814 C 1363.125,86.671 1362.188,86.766 1361.250,86.529 C 1360.312,86.292 1359.375,85.628 1358.438,85.390 C 1357.500,85.153 1356.562,85.248 1355.625,85.106 C 1354.688,84.963 1353.750,84.631 1352.812,84.537 C 1351.875,84.442 1350.938,84.489 1350.000,84.537 C 1349.062,84.584 1348.125,84.916 1347.188,84.821 C 1346.250,84.726 1345.312,84.110 1344.375,83.967 C 1343.438,83.825 1342.500,83.920 1341.562,83.967 C 1340.625,84.015 1339.688,84.394 1338.750,84.252 C 1337.812,84.110 1336.875,83.493 1335.938,83.113 C 1335.000,82.734 1334.062,82.165 1333.125,81.975 C 1332.188,81.785 1331.250,81.927 1330.312,81.975 C 1329.375,82.022 1328.438,82.259 1327.500,82.259 C 1326.562,82.259 1325.625,81.880 1324.688,81.975 C 1323.750,82.070 1322.812,82.734 1321.875,82.829 C 1320.938,82.924 1320.000,82.639 1319.062,82.544 C 1318.125,82.449 1317.188,82.307 1316.250,82.259 C 1315.312,82.212 1314.375,82.212 1313.438,82.259 C 1312.500,82.307 1311.562,82.497 1310.625,82.544 C 1309.688,82.592 1308.750,82.497 1307.812,82.544 C 1306.875,82.592 1305.938,82.781 1305.000,82.829 C 1304.062,82.876 1303.125,82.734 1302.188,82.829 C 1301.250,82.924 1300.312,83.351 1299.375,83.398 C 1298.438,83.445 1297.500,83.066 1296.562,83.113 C 1295.625,83.161 1294.688,83.635 1293.750,83.683 C 1292.812,83.730 1291.875,83.351 1290.938,83.398 C 1290.000,83.445 1289.062,83.825 1288.125,83.967 C 1287.188,84.110 1286.250,84.157 1285.312,84.252 C 1284.375,84.347 1283.438,84.631 1282.500,84.537 C 1281.562,84.442 1280.625,83.967 1279.688,83.683 C 1278.750,83.398 1277.812,82.971 1276.875,82.829 C 1275.938,82.686 1275.000,82.876 1274.062,82.829 C 1273.125,82.781 1272.188,82.592 1271.250,82.544 C 1270.312,82.497 1269.375,82.639 1268.438,82.544 C 1267.500,82.449 1266.562,82.022 1265.625,81.975 C 1264.688,81.927 1263.750,82.165 1262.812,82.259 C 1261.875,82.354 1260.938,82.402 1260.000,82.544 C 1259.062,82.686 1258.125,82.829 1257.188,83.113 C 1256.250,83.398 1255.312,83.825 1254.375,84.252 C 1253.438,84.679 1252.500,85.153 1251.562,85.675 C 1250.625,86.197 1249.688,87.098 1248.750,87.383 C 1247.812,87.668 1246.875,87.335 1245.938,87.383 C 1245.000,87.430 1244.062,87.478 1243.125,87.668 C 1242.188,87.857 1241.250,88.284 1240.312,88.521 C 1239.375,88.759 1238.438,88.759 1237.500,89.091 C 1236.562,89.423 1235.625,90.229 1234.688,90.514 C 1233.750,90.798 1232.812,90.846 1231.875,90.798 C 1230.938,90.751 1230.000,89.850 1229.062,90.229 C 1228.125,90.609 1227.188,92.506 1226.250,93.076 C 1225.312,93.645 1224.375,93.503 1223.438,93.645 C 1222.500,93.787 1221.562,93.787 1220.625,93.929 C 1219.688,94.072 1218.750,94.356 1217.812,94.499 C 1216.875,94.641 1215.938,94.688 1215.000,94.783 C 1214.062,94.878 1213.125,94.973 1212.188,95.068 C 1211.250,95.163 1210.312,94.973 1209.375,95.353 C 1208.438,95.732 1207.500,96.871 1206.562,97.345 C 1205.625,97.819 1204.688,97.867 1203.750,98.199 C 1202.812,98.531 1201.875,99.243 1200.938,99.338 C 1200.000,99.432 1199.062,98.768 1198.125,98.768 C 1197.188,98.768 1196.250,99.243 1195.312,99.338 C 1194.375,99.432 1193.438,99.432 1192.500,99.338 C 1191.562,99.243 1190.625,98.958 1189.688,98.768 C 1188.750,98.579 1187.812,98.484 1186.875,98.199 C 1185.938,97.914 1185.000,97.298 1184.062,97.060 C 1183.125,96.823 1182.188,97.060 1181.250,96.776 C 1180.312,96.491 1179.375,95.685 1178.438,95.353 C 1177.500,95.021 1176.562,94.926 1175.625,94.783 C 1174.688,94.641 1173.750,94.641 1172.812,94.499 C 1171.875,94.356 1170.938,94.072 1170.000,93.929 C 1169.062,93.787 1168.125,93.740 1167.188,93.645 C 1166.250,93.550 1165.312,93.408 1164.375,93.360 C 1163.438,93.313 1162.500,93.408 1161.562,93.360 C 1160.625,93.313 1159.688,92.981 1158.750,93.076 C 1157.812,93.170 1156.875,94.024 1155.938,93.929 C 1155.000,93.835 1154.062,92.743 1153.125,92.506 C 1152.188,92.269 1151.250,92.696 1150.312,92.506 C 1149.375,92.317 1148.438,91.747 1147.500,91.368 C 1146.562,90.988 1145.625,90.561 1144.688,90.229 C 1143.750,89.897 1142.812,89.613 1141.875,89.375 C 1140.938,89.138 1140.000,89.043 1139.062,88.806 C 1138.125,88.569 1137.188,88.332 1136.250,87.952 C 1135.312,87.573 1134.375,86.719 1133.438,86.529 C 1132.500,86.339 1131.562,86.956 1130.625,86.814 C 1129.688,86.671 1128.750,85.675 1127.812,85.675 C 1126.875,85.675 1125.938,86.814 1125.000,86.814 C 1124.062,86.814 1123.125,86.149 1122.188,85.675 C 1121.250,85.201 1120.312,84.299 1119.375,83.967 C 1118.438,83.635 1117.500,83.777 1116.562,83.683 C 1115.625,83.588 1114.688,83.540 1113.750,83.398 C 1112.812,83.256 1111.875,82.971 1110.938,82.829 C 1110.000,82.686 1109.062,82.781 1108.125,82.544 C 1107.188,82.307 1106.250,81.643 1105.312,81.406 C 1104.375,81.168 1103.438,81.121 1102.500,81.121 C 1101.562,81.121 1100.625,81.358 1099.688,81.406 C 1098.750,81.453 1097.812,81.406 1096.875,81.406 C 1095.938,81.406 1095.000,81.311 1094.062,81.406 C 1093.125,81.500 1092.188,81.643 1091.250,81.975 C 1090.312,82.307 1089.375,82.781 1088.438,83.398 C 1087.500,84.015 1086.562,85.248 1085.625,85.675 C 1084.688,86.102 1083.750,85.770 1082.812,85.960 C 1081.875,86.149 1080.938,86.434 1080.000,86.814 C 1079.062,87.193 1078.125,87.857 1077.188,88.237 C 1076.250,88.616 1075.312,88.901 1074.375,89.091 C 1073.438,89.280 1072.500,89.328 1071.562,89.375 C 1070.625,89.423 1069.688,89.470 1068.750,89.375 C 1067.812,89.280 1066.875,89.091 1065.938,88.806 C 1065.000,88.521 1064.062,87.952 1063.125,87.668 C 1062.188,87.383 1061.250,87.335 1060.312,87.098 C 1059.375,86.861 1058.438,86.624 1057.500,86.244 C 1056.562,85.865 1055.625,85.296 1054.688,84.821 C 1053.750,84.347 1052.812,83.730 1051.875,83.398 C 1050.938,83.066 1050.000,82.829 1049.062,82.829 C 1048.125,82.829 1047.188,83.303 1046.250,83.398 C 1045.312,83.493 1044.375,83.208 1043.438,83.398 C 1042.500,83.588 1041.562,84.157 1040.625,84.537 C 1039.688,84.916 1038.750,85.248 1037.812,85.675 C 1036.875,86.102 1035.938,86.671 1035.000,87.098 C 1034.062,87.525 1033.125,88.047 1032.188,88.237 C 1031.250,88.427 1030.312,88.284 1029.375,88.237 C 1028.438,88.189 1027.500,87.810 1026.562,87.952 C 1025.625,88.094 1024.688,88.853 1023.750,89.091 C 1022.812,89.328 1021.875,89.328 1020.938,89.375 C 1020.000,89.423 1019.062,89.375 1018.125,89.375 C 1017.188,89.375 1016.250,89.328 1015.312,89.375 C 1014.375,89.423 1013.438,89.518 1012.500,89.660 C 1011.562,89.802 1010.625,90.182 1009.688,90.229 C 1008.750,90.277 1007.812,90.372 1006.875,89.945 C 1005.938,89.518 1005.000,88.189 1004.062,87.668 C 1003.125,87.146 1002.188,86.908 1001.250,86.814 C 1000.312,86.719 999.375,87.098 998.438,87.098 C 997.500,87.098 996.562,86.956 995.625,86.814 C 994.688,86.671 993.750,86.387 992.812,86.244 C 991.875,86.102 990.938,86.149 990.000,85.960 C 989.062,85.770 988.125,85.153 987.188,85.106 C 986.250,85.058 985.312,85.248 984.375,85.675 C 983.438,86.102 982.500,87.193 981.562,87.668 C 980.625,88.142 979.688,88.000 978.750,88.521 C 977.812,89.043 976.875,90.514 975.938,90.798 C 975.000,91.083 974.062,90.324 973.125,90.229 C 972.188,90.134 971.250,90.277 970.312,90.229 C 969.375,90.182 968.438,90.087 967.500,89.945 C 966.562,89.802 965.625,89.375 964.688,89.375 C 963.750,89.375 962.812,89.897 961.875,89.945 C 960.938,89.992 960.000,89.707 959.062,89.660 C 958.125,89.613 957.188,89.565 956.250,89.660 C 955.312,89.755 954.375,89.992 953.438,90.229 C 952.500,90.466 951.562,90.846 950.625,91.083 C 949.688,91.320 948.750,91.558 947.812,91.652 C 946.875,91.747 945.938,91.605 945.000,91.652 C 944.062,91.700 943.125,91.652 942.188,91.937 C 941.250,92.222 940.312,93.076 939.375,93.360 C 938.438,93.645 937.500,93.455 936.562,93.645 C 935.625,93.835 934.688,94.641 933.750,94.499 C 932.812,94.356 931.875,93.076 930.938,92.791 C 930.000,92.506 929.062,92.791 928.125,92.791 C 927.188,92.791 926.250,92.459 925.312,92.791 C 924.375,93.123 923.438,94.119 922.500,94.783 C 921.562,95.448 920.625,96.444 919.688,96.776 C 918.750,97.108 917.812,96.918 916.875,96.776 C 915.938,96.634 915.000,96.159 914.062,95.922 C 913.125,95.685 912.188,95.353 911.250,95.353 C 910.312,95.353 909.375,95.590 908.438,95.922 C 907.500,96.254 906.562,96.918 905.625,97.345 C 904.688,97.772 903.750,98.152 902.812,98.484 C 901.875,98.816 900.938,98.958 900.000,99.338 C 899.062,99.717 898.125,100.381 897.188,100.761 C 896.250,101.140 895.312,101.425 894.375,101.615 C 893.438,101.804 892.500,101.804 891.562,101.899 C 890.625,101.994 889.688,102.089 888.750,102.184 C 887.812,102.279 886.875,102.374 885.938,102.469 C 885.000,102.563 884.062,102.658 883.125,102.753 C 882.188,102.848 881.250,102.848 880.312,103.038 C 879.375,103.228 878.438,103.749 877.500,103.892 C 876.562,104.034 875.625,103.939 874.688,103.892 C 873.750,103.844 872.812,103.749 871.875,103.607 C 870.938,103.465 870.000,103.417 869.062,103.038 C 868.125,102.658 867.188,101.852 866.250,101.330 C 865.312,100.808 864.375,100.239 863.438,99.907 C 862.500,99.575 861.562,99.480 860.625,99.338 C 859.688,99.195 858.750,99.100 857.812,99.053 C 856.875,99.005 855.938,99.385 855.000,99.053 C 854.062,98.721 853.125,97.677 852.188,97.060 C 851.250,96.444 850.312,96.207 849.375,95.353 C 848.438,94.499 847.500,92.743 846.562,91.937 C 845.625,91.131 844.688,90.893 843.750,90.514 C 842.812,90.134 841.875,90.182 840.938,89.660 C 840.000,89.138 839.062,87.905 838.125,87.383 C 837.188,86.861 836.250,86.766 835.312,86.529 C 834.375,86.292 833.438,86.197 832.500,85.960 C 831.562,85.723 830.625,85.390 829.688,85.106 C 828.750,84.821 827.812,84.584 826.875,84.252 C 825.938,83.920 825.000,83.256 824.062,83.113 C 823.125,82.971 822.188,83.445 821.250,83.398 C 820.312,83.351 819.375,83.018 818.438,82.829 C 817.500,82.639 816.562,82.592 815.625,82.259 C 814.688,81.927 813.750,80.931 812.812,80.836 C 811.875,80.741 810.938,81.216 810.000,81.690 C 809.062,82.165 808.125,83.256 807.188,83.683 C 806.250,84.110 805.312,84.252 804.375,84.252 C 803.438,84.252 802.500,83.588 801.562,83.683 C 800.625,83.777 799.688,84.584 798.750,84.821 C 797.812,85.058 796.875,84.916 795.938,85.106 C 795.000,85.296 794.062,85.628 793.125,85.960 C 792.188,86.292 791.250,86.861 790.312,87.098 C 789.375,87.335 788.438,87.478 787.500,87.383 C 786.562,87.288 785.625,86.908 784.688,86.529 C 783.750,86.149 782.812,85.390 781.875,85.106 C 780.938,84.821 780.000,84.963 779.062,84.821 C 778.125,84.679 777.188,84.537 776.250,84.252 C 775.312,83.967 774.375,83.540 773.438,83.113 C 772.500,82.686 771.562,82.022 770.625,81.690 C 769.688,81.358 768.750,81.358 767.812,81.121 C 766.875,80.884 765.938,80.457 765.000,80.267 C 764.062,80.077 763.125,80.125 762.188,79.982 C 761.250,79.840 760.312,79.461 759.375,79.413 C 758.438,79.366 757.500,79.887 756.562,79.698 C 755.625,79.508 754.688,78.702 753.750,78.275 C 752.812,77.848 751.875,77.373 750.938,77.136 C 750.000,76.899 749.062,76.899 748.125,76.851 C 747.188,76.804 746.250,76.899 745.312,76.851 C 744.375,76.804 743.438,76.614 742.500,76.567 C 741.562,76.519 740.625,76.614 739.688,76.567 C 738.750,76.519 737.812,76.377 736.875,76.282 C 735.938,76.187 735.000,75.855 734.062,75.997 C 733.125,76.140 732.188,76.757 731.250,77.136 C 730.312,77.516 729.375,78.037 728.438,78.275 C 727.500,78.512 726.562,78.464 725.625,78.559 C 724.688,78.654 723.750,78.702 722.812,78.844 C 721.875,78.986 720.938,79.413 720.000,79.413 C 719.062,79.413 718.125,78.796 717.188,78.844 C 716.250,78.891 715.312,79.366 714.375,79.698 C 713.438,80.030 712.500,80.267 711.562,80.836 C 710.625,81.406 709.688,82.592 708.750,83.113 C 707.812,83.635 706.875,83.588 705.938,83.967 C 705.000,84.347 704.062,85.106 703.125,85.390 C 702.188,85.675 701.250,85.580 700.312,85.675 C 699.375,85.770 698.438,85.817 697.500,85.960 C 696.562,86.102 695.625,86.434 694.688,86.529 C 693.750,86.624 692.812,86.624 691.875,86.529 C 690.938,86.434 690.000,86.244 689.062,85.960 C 688.125,85.675 687.188,85.011 686.250,84.821 C 685.312,84.631 684.375,84.679 683.438,84.821 C 682.500,84.963 681.562,86.197 680.625,85.675 C 679.688,85.153 678.750,82.259 677.812,81.690 C 676.875,81.121 675.938,81.975 675.000,82.259 C 674.062,82.544 673.125,83.113 672.188,83.398 C 671.250,83.683 670.312,83.777 669.375,83.967 C 668.438,84.157 667.500,84.584 666.562,84.537 C 665.625,84.489 664.688,83.920 663.750,83.683 C 662.812,83.445 661.875,83.161 660.938,83.113 C 660.000,83.066 659.062,83.256 658.125,83.398 C 657.188,83.540 656.250,83.493 655.312,83.967 C 654.375,84.442 653.438,85.580 652.500,86.244 C 651.562,86.908 650.625,88.000 649.688,87.952 C 648.750,87.905 647.812,86.197 646.875,85.960 C 645.938,85.723 645.000,86.482 644.062,86.529 C 643.125,86.576 642.188,86.197 641.250,86.244 C 640.312,86.292 639.375,86.434 638.438,86.814 C 637.500,87.193 636.562,88.094 635.625,88.521 C 634.688,88.948 633.750,89.138 632.812,89.375 C 631.875,89.613 630.938,89.518 630.000,89.945 C 629.062,90.372 628.125,91.558 627.188,91.937 C 626.250,92.317 625.312,92.127 624.375,92.222 C 623.438,92.317 622.500,92.411 621.562,92.506 C 620.625,92.601 619.688,92.696 618.750,92.791 C 617.812,92.886 616.875,92.886 615.938,93.076 C 615.000,93.265 614.062,93.882 613.125,93.929 C 612.188,93.977 611.250,93.360 610.312,93.360 C 609.375,93.360 608.438,93.787 607.500,93.929 C 606.562,94.072 605.625,94.214 604.688,94.214 C 603.750,94.214 602.812,94.167 601.875,93.929 C 600.938,93.692 600.000,93.265 599.062,92.791 C 598.125,92.317 597.188,91.558 596.250,91.083 C 595.312,90.609 594.375,90.229 593.438,89.945 C 592.500,89.660 591.562,89.423 590.625,89.375 C 589.688,89.328 588.750,89.660 587.812,89.660 C 586.875,89.660 585.938,89.897 585.000,89.375 C 584.062,88.853 583.125,87.573 582.188,86.529 C 581.250,85.485 580.312,83.730 579.375,83.113 C 578.438,82.497 577.500,82.924 576.562,82.829 C 575.625,82.734 574.688,82.686 573.750,82.544 C 572.812,82.402 571.875,82.165 570.938,81.975 C 570.000,81.785 569.062,81.500 568.125,81.406 C 567.188,81.311 566.250,81.453 565.312,81.406 C 564.375,81.358 563.438,81.358 562.500,81.121 C 561.562,80.884 560.625,80.172 559.688,79.982 C 558.750,79.793 557.812,79.982 556.875,79.982 C 555.938,79.982 555.000,80.220 554.062,79.982 C 553.125,79.745 552.188,78.986 551.250,78.559 C 550.312,78.132 549.375,77.658 548.438,77.421 C 547.500,77.183 546.562,77.278 545.625,77.136 C 544.688,76.994 543.750,76.709 542.812,76.567 C 541.875,76.424 540.938,76.187 540.000,76.282 C 539.062,76.377 538.125,76.757 537.188,77.136 C 536.250,77.516 535.312,78.037 534.375,78.559 C 533.438,79.081 532.500,79.555 531.562,80.267 C 530.625,80.979 529.688,82.212 528.750,82.829 C 527.812,83.445 526.875,83.777 525.938,83.967 C 525.000,84.157 524.062,83.920 523.125,83.967 C 522.188,84.015 521.250,84.347 520.312,84.252 C 519.375,84.157 518.438,83.493 517.500,83.398 C 516.562,83.303 515.625,83.635 514.688,83.683 C 513.750,83.730 512.812,83.920 511.875,83.683 C 510.938,83.445 510.000,82.449 509.062,82.259 C 508.125,82.070 507.188,82.449 506.250,82.544 C 505.312,82.639 504.375,82.781 503.438,82.829 C 502.500,82.876 501.562,82.639 500.625,82.829 C 499.688,83.018 498.750,83.398 497.812,83.967 C 496.875,84.537 495.938,85.865 495.000,86.244 C 494.062,86.624 493.125,86.387 492.188,86.244 C 491.250,86.102 490.312,85.533 489.375,85.390 C 488.438,85.248 487.500,85.201 486.562,85.390 C 485.625,85.580 484.688,86.482 483.750,86.529 C 482.812,86.576 481.875,85.817 480.938,85.675 C 480.000,85.533 479.062,85.580 478.125,85.675 C 477.188,85.770 476.250,86.102 475.312,86.244 C 474.375,86.387 473.438,86.339 472.500,86.529 C 471.562,86.719 470.625,87.288 469.688,87.383 C 468.750,87.478 467.812,87.241 466.875,87.098 C 465.938,86.956 465.000,86.482 464.062,86.529 C 463.125,86.576 462.188,87.288 461.250,87.383 C 460.312,87.478 459.375,87.051 458.438,87.098 C 457.500,87.146 456.562,87.525 455.625,87.668 C 454.688,87.810 453.750,88.142 452.812,87.952 C 451.875,87.762 450.938,86.719 450.000,86.529 C 449.062,86.339 448.125,86.576 447.188,86.814 C 446.250,87.051 445.312,88.047 444.375,87.952 C 443.438,87.857 442.500,86.766 441.562,86.244 C 440.625,85.723 439.688,85.011 438.750,84.821 C 437.812,84.631 436.875,85.106 435.938,85.106 C 435.000,85.106 434.062,84.679 433.125,84.821 C 432.188,84.963 431.250,85.817 430.312,85.960 C 429.375,86.102 428.438,85.865 427.500,85.675 C 426.562,85.485 425.625,85.153 424.688,84.821 C 423.750,84.489 422.812,83.872 421.875,83.683 C 420.938,83.493 420.000,83.730 419.062,83.683 C 418.125,83.635 417.188,83.445 416.250,83.398 C 415.312,83.351 414.375,83.445 413.438,83.398 C 412.500,83.351 411.562,83.113 410.625,83.113 C 409.688,83.113 408.750,83.398 407.812,83.398 C 406.875,83.398 405.938,83.066 405.000,83.113 C 404.062,83.161 403.125,83.588 402.188,83.683 C 401.250,83.777 400.312,83.872 399.375,83.683 C 398.438,83.493 397.500,82.639 396.562,82.544 C 395.625,82.449 394.688,83.066 393.750,83.113 C 392.812,83.161 391.875,82.971 390.938,82.829 C 390.000,82.686 389.062,81.975 388.125,82.259 C 387.188,82.544 386.250,84.110 385.312,84.537 C 384.375,84.963 383.438,84.726 382.500,84.821 C 381.562,84.916 380.625,85.106 379.688,85.106 C 378.750,85.106 377.812,85.011 376.875,84.821 C 375.938,84.631 375.000,83.967 374.062,83.967 C 373.125,83.967 372.188,84.679 371.250,84.821 C 370.312,84.963 369.375,84.963 368.438,84.821 C 367.500,84.679 366.562,84.015 365.625,83.967 C 364.688,83.920 363.750,84.394 362.812,84.537 C 361.875,84.679 360.938,84.774 360.000,84.821 C 359.062,84.869 358.125,84.869 357.188,84.821 C 356.250,84.774 355.312,84.726 354.375,84.537 C 353.438,84.347 352.500,84.062 351.562,83.683 C 350.625,83.303 349.688,82.354 348.750,82.259 C 347.812,82.165 346.875,82.829 345.938,83.113 C 345.000,83.398 344.062,83.825 343.125,83.967 C 342.188,84.110 341.250,83.967 340.312,83.967 C 339.375,83.967 338.438,83.967 337.500,83.967 C 336.562,83.967 335.625,83.967 334.688,83.967 C 333.750,83.967 332.812,83.920 331.875,83.967 C 330.938,84.015 330.000,84.252 329.062,84.252 C 328.125,84.252 327.188,83.920 326.250,83.967 C 325.312,84.015 324.375,84.347 323.438,84.537 C 322.500,84.726 321.562,85.011 320.625,85.106 C 319.688,85.201 318.750,85.058 317.812,85.106 C 316.875,85.153 315.938,85.390 315.000,85.390 C 314.062,85.390 313.125,85.106 312.188,85.106 C 311.250,85.106 310.312,85.248 309.375,85.390 C 308.438,85.533 307.500,86.007 306.562,85.960 C 305.625,85.912 304.688,85.296 303.750,85.106 C 302.812,84.916 301.875,84.869 300.938,84.821 C 300.000,84.774 299.062,84.774 298.125,84.821 C 297.188,84.869 296.250,84.726 295.312,85.106 C 294.375,85.485 293.438,86.624 292.500,87.098 C 291.562,87.573 290.625,87.762 289.688,87.952 C 288.750,88.142 287.812,88.189 286.875,88.237 C 285.938,88.284 285.000,88.237 284.062,88.237 C 283.125,88.237 282.188,88.047 281.250,88.237 C 280.312,88.427 279.375,89.233 278.438,89.375 C 277.500,89.518 276.562,88.948 275.625,89.091 C 274.688,89.233 273.750,89.850 272.812,90.229 C 271.875,90.609 270.938,91.131 270.000,91.368 C 269.062,91.605 268.125,91.652 267.188,91.652 C 266.250,91.652 265.312,91.320 264.375,91.368 C 263.438,91.415 262.500,91.747 261.562,91.937 C 260.625,92.127 259.688,92.174 258.750,92.506 C 257.812,92.838 256.875,93.645 255.938,93.929 C 255.000,94.214 254.062,94.167 253.125,94.214 C 252.188,94.262 251.250,94.167 250.312,94.214 C 249.375,94.262 248.438,94.451 247.500,94.499 C 246.562,94.546 245.625,94.594 244.688,94.499 C 243.750,94.404 242.812,94.072 241.875,93.929 C 240.938,93.787 240.000,93.645 239.062,93.645 C 238.125,93.645 237.188,94.024 236.250,93.929 C 235.312,93.835 234.375,93.313 233.438,93.076 C 232.500,92.838 231.562,92.791 230.625,92.506 C 229.688,92.222 228.750,91.747 227.812,91.368 C 226.875,90.988 225.938,90.561 225.000,90.229 C 224.062,89.897 223.125,89.897 222.188,89.375 C 221.250,88.853 220.312,87.715 219.375,87.098 C 218.438,86.482 217.500,86.055 216.562,85.675 C 215.625,85.296 214.688,85.011 213.750,84.821 C 212.812,84.631 211.875,84.394 210.938,84.537 C 210.000,84.679 209.062,85.438 208.125,85.675 C 207.188,85.912 206.250,85.675 205.312,85.960 C 204.375,86.244 203.438,86.861 202.500,87.383 C 201.562,87.905 200.625,88.996 199.688,89.091 C 198.750,89.186 197.812,88.094 196.875,87.952 C 195.938,87.810 195.000,88.047 194.062,88.237 C 193.125,88.427 192.188,88.759 191.250,89.091 C 190.312,89.423 189.375,89.945 188.438,90.229 C 187.500,90.514 186.562,90.751 185.625,90.798 C 184.688,90.846 183.750,90.514 182.812,90.514 C 181.875,90.514 180.938,90.798 180.000,90.798 C 179.062,90.798 178.125,90.656 177.188,90.514 C 176.250,90.372 175.312,90.134 174.375,89.945 C 173.438,89.755 172.500,89.660 171.562,89.375 C 170.625,89.091 169.688,88.616 168.750,88.237 C 167.812,87.857 166.875,87.478 165.938,87.098 C 165.000,86.719 164.062,86.434 163.125,85.960 C 162.188,85.485 161.250,84.679 160.312,84.252 C 159.375,83.825 158.438,83.493 157.500,83.398 C 156.562,83.303 155.625,83.683 154.688,83.683 C 153.750,83.683 152.812,83.493 151.875,83.398 C 150.938,83.303 150.000,83.256 149.062,83.113 C 148.125,82.971 147.188,82.307 146.250,82.544 C 145.312,82.781 144.375,83.825 143.438,84.537 C 142.500,85.248 141.562,86.149 140.625,86.814 C 139.688,87.478 138.750,88.047 137.812,88.521 C 136.875,88.996 135.938,89.518 135.000,89.660 C 134.062,89.802 133.125,89.280 132.188,89.375 C 131.250,89.470 130.312,90.134 129.375,90.229 C 128.438,90.324 127.500,89.992 126.562,89.945 C 125.625,89.897 124.688,89.897 123.750,89.945 C 122.812,89.992 121.875,90.134 120.938,90.229 C 120.000,90.324 119.062,90.514 118.125,90.514 C 117.188,90.514 116.250,90.277 115.312,90.229 C 114.375,90.182 113.438,89.992 112.500,90.229 C 111.562,90.466 110.625,91.273 109.688,91.652 C 108.750,92.032 107.812,92.506 106.875,92.506 C 105.938,92.506 105.000,91.700 104.062,91.652 C 103.125,91.605 102.188,92.174 101.250,92.222 C 100.312,92.269 99.375,91.937 98.438,91.937 C 97.500,91.937 96.562,91.984 95.625,92.222 C 94.688,92.459 93.750,93.123 92.812,93.360 C 91.875,93.597 90.938,93.692 90.000,93.645 C 89.062,93.597 88.125,93.076 87.188,93.076 C 86.250,93.076 85.312,93.740 84.375,93.645 C 83.438,93.550 82.500,92.696 81.562,92.506 C 80.625,92.317 79.688,92.364 78.750,92.506 C 77.812,92.649 76.875,93.123 75.938,93.360 C 75.000,93.597 74.062,93.929 73.125,93.929 C 72.188,93.929 71.250,93.550 70.312,93.360 C 69.375,93.170 68.438,93.076 67.500,92.791 C 66.562,92.506 65.625,91.937 64.688,91.652 C 63.750,91.368 62.812,91.083 61.875,91.083 C 60.938,91.083 60.000,91.368 59.062,91.652 C 58.125,91.937 57.188,92.601 56.250,92.791 C 55.312,92.981 54.375,92.981 53.438,92.791 C 52.500,92.601 51.562,91.795 50.625,91.652 C 49.688,91.510 48.750,91.890 47.812,91.937 C 46.875,91.984 45.938,91.890 45.000,91.937 C 44.062,91.984 43.125,92.174 42.188,92.222 C 41.250,92.269 40.312,92.269 39.375,92.222 C 38.438,92.174 37.500,91.890 36.562,91.937 C 35.625,91.984 34.688,92.459 33.750,92.506 C 32.812,92.554 31.875,92.317 30.938,92.222 C 30.000,92.127 29.062,92.079 28.125,91.937 C 27.188,91.795 26.250,91.510 25.312,91.368 C 24.375,91.225 23.438,91.131 22.500,91.083 C 21.562,91.036 20.625,91.083 19.688,91.083 C 18.750,91.083 17.812,91.131 16.875,91.083 C 15.938,91.036 15.000,90.798 14.062,90.798 C 13.125,90.798 12.188,90.988 11.250,91.083 C 10.312,91.178 9.375,91.320 8.438,91.368 C 7.500,91.415 6.562,91.415 5.625,91.368 C 4.688,91.320 3.750,91.178 2.812,91.083 C 1.875,90.988 0.469,90.846 0.000,90.798 Z" fill="#FFFFFF"/>
</svg>