<?xml version="1.0" encoding="UTF-8"?>
<svg xmlns="http://www.w3.org/2000/svg" viewBox="0 0 2400 100" preserveAspectRatio="none" fill="none">
  <path fill="#000000" d="M0,0 H2400 V65 L2364,64 L2328,55 L2292,47.5 L2256,46 L2220,48 L2184,56 L2148,61.5 L2112,59 L2076,61 L2040,69 L2004,54.5 L1968,46 L1932,54.5 L1896,55 L1860,47 L1824,45 L1788,56.5 L1752,74 L1716,66.5 L1680,51 L1644,54 L1608,63 L1572,46.5 L1536,36 L1500,56 L1464,68 L1428,57.5 L1392,53 L1356,59.5 L1320,72 L1284,60 L1248,40 L1212,46 L1176,58 L1140,50.5 L1104,49 L1068,64.5 L1032,72 L996,59.5 L960,53 L924,50.5 L888,54 L852,54 L816,46 L780,50.5 L744,61 L708,59.5 L672,64 L636,64.5 L600,57 L564,50.5 L528,50 L492,45.5 L456,47 L420,60 L384,65 L348,59.5 L312,60 L276,57.5 L240,61 L204,55.5 L168,42 L132,46.5 L96,57 L60,54 L0,57 Z"/>
</svg>