<?xml version="1.0" encoding="UTF-8"?>
<svg xmlns="http://www.w3.org/2000/svg" viewBox="0 0 2400 100" preserveAspectRatio="none" fill="none">
  <path fill="#F92524" d="M0,0 H2400 V57 L2364,55.5 L2328,46 L2292,47.5 L2256,55 L2220,50.5 L2184,52 L2148,67.5 L2112,75 L2076,57 L2040,45 L2004,49 L1968,59 L1932,54 L1896,41 L1860,52.5 L1824,70 L1788,61.5 L1752,59 L1716,62.5 L1680,58 L1644,49.5 L1608,47 L1572,45.5 L1536,50 L1500,62.5 L1464,67 L1428,60 L1392,59 L1356,55.5 L1320,58 L1284,55 L1248,44 L1212,47 L1176,56 L1140,56.5 L1104,63 L1068,66.5 L1032,62 L996,54.5 L960,53 L924,46.5 L888,46 L852,55 L816,56 L780,58 L744,66 L708,59 L672,58 L636,61 L600,56 L564,45.5 L528,41 L492,50.5 L456,66 L420,65 L384,56 L348,59 L312,68 L276,52 L240,42 L204,52 L168,54 L132,52.5 L96,57 L60,57 L0,63 Z"/>
</svg>