<?xml version="1.0" encoding="UTF-8"?>
<svg xmlns="http://www.w3.org/2000/svg" viewBox="0 0 2400 100" preserveAspectRatio="none" fill="none">
  <path fill="#AE2CF2" d="M0,0 H2400 V59 L2364,60 L2328,53 L2292,60.5 L2256,74 L2220,55.5 L2184,43 L2148,51 L2112,51 L2076,50.5 L2040,56 L2004,56.5 L1968,63 L1932,65.5 L1896,60 L1860,54.5 L1824,55 L1788,45 L1752,41 L1716,56 L1680,63 L1644,60 L1608,63 L1572,56 L1536,55 L1500,60.5 L1464,58 L1428,46 L1392,40 L1356,49 L1320,64 L1284,68 L1248,64 L1212,57.5 L1176,57 L1140,49 L1104,47 L1068,55 L1032,55 L996,50 L960,51 L924,60.5 L888,76 L852,66 L816,48 L780,46.5 L744,51 L708,49 L672,53 L636,59.5 L600,58 L564,59 L528,66 L492,58 L456,56 L420,53.5 L384,43 L348,47 L312,57 L276,57 L240,63 L204,64 L168,57 L132,57 L96,63 L60,47 L0,37 Z"/>
</svg>