<?xml version="1.0" encoding="UTF-8"?>
<svg id="Layer_1" xmlns="http://www.w3.org/2000/svg" version="1.1" viewBox="0 0 2398.8 100">
  <!-- Generator: Adobe Illustrator 30.2.1, SVG Export Plug-In . SVG Version: 2.1.1 Build 1)  -->
  <defs>
    <style>
      .st0 {
        fill: #fff;
      }
    </style>
  </defs>
  <path class="st0" d="M0,0h2398.8v52l-36,2-36-6-36-1-36,5-36,7.5-36,13.5-36-7.5-36-15.5-36,1.5-36,7.5-36-11-36-5-36,12-36,4-36,2-36,8-36-11-36-5-36,4.5-36-3.5-36-6.5-36-.5-36,3-36,9-36,8h-36l-36-8.5-36-2.5-36-8.5-36-2.5-36,10.5-36,2.5-36-7-36-1-36,10-36,16-36-11-36-19h-36l-36,6-36-3-36,3-36,8h-72l-36,6-36-9-36-3-36-1-36-9-36,4.5-36,10.5-36-3-36,3-36,6-36-2-36-6h-36l-36-12.5-36-6.5-36,18-36,10-36-8.5-36-2.5-36,3L0,67V0Z"/>
</svg>