<?xml version="1.0" encoding="UTF-8"?>
<svg xmlns="http://www.w3.org/2000/svg" viewBox="0 0 2400 100" preserveAspectRatio="none" fill="none">
  <path fill="#ffffff" d="M0,0 H2400 V52 L2364,54 L2328,48 L2292,47 L2256,52 L2220,59.5 L2184,73 L2148,65.5 L2112,50 L2076,51.5 L2040,59 L2004,48 L1968,43 L1932,55 L1896,59 L1860,61 L1824,69 L1788,58 L1752,53 L1716,57.5 L1680,54 L1644,47.5 L1608,47 L1572,50 L1536,59 L1500,67 L1464,67 L1428,58.5 L1392,56 L1356,47.5 L1320,45 L1284,55.5 L1248,58 L1212,51 L1176,50 L1140,60 L1104,76 L1068,65 L1032,46 L996,46 L960,52 L924,49 L888,52 L852,60 L816,60 L780,60 L744,66 L708,57 L672,54 L636,53 L600,44 L564,48.5 L528,59 L492,56 L456,59 L420,65 L384,63 L348,57 L312,57 L276,44.5 L240,38 L204,56 L168,66 L132,57.5 L96,55 L60,58 L0,67 Z"/>
</svg>