<?xml version="1.0" encoding="UTF-8"?>
<svg xmlns="http://www.w3.org/2000/svg" viewBox="0 0 2400 100" preserveAspectRatio="none" fill="none">
  <path fill="#EFEEED" d="M0,0 H2400 V55 L2364,57 L2328,50 L2292,49 L2256,54 L2220,61 L2184,70 L2148,63 L2112,52 L2076,53 L2040,61 L2004,50 L1968,45 L1932,57 L1896,61 L1860,63 L1824,71 L1788,60 L1752,55 L1716,59 L1680,56 L1644,49 L1608,49 L1572,52 L1536,61 L1500,69 L1464,69 L1428,60 L1392,58 L1356,49 L1320,47 L1284,57 L1248,60 L1212,53 L1176,52 L1140,62 L1104,74 L1068,63 L1032,48 L996,48 L960,54 L924,51 L888,54 L852,62 L816,62 L780,62 L744,68 L708,59 L672,56 L636,55 L600,46 L564,50 L528,61 L492,58 L456,61 L420,67 L384,65 L348,59 L312,59 L276,46 L240,40 L204,58 L168,68 L132,59 L96,57 L60,60 L0,69 Z"/>
</svg>