<svg xmlns="http://www.w3.org/2000/svg" viewBox="0 0 40 40" fill="none">
  <path d="M 1.12 2.356 C 3.866 2.791 9.465 3.82 13.751 8.318 L 13.656 32.448 C 13.656 32.448 7.586 28.728 0.6 25.893 C 0.241 25.752 0.003 25.404 0 25.015 L 0 3.281 C 0 2.702 0.534 2.264 1.12 2.357 Z" fill="currentColor"/>
  <path d="M 30.462 2.5 C 30.802 2.409 31.136 2.332 31.459 2.259 L 30.239 1.083 L 30.046 1.098 C 29.76 1.121 29.109 1.244 28.24 1.46 C 28.27 0.84 28.276 -0.057 28.076 0.004 C 26.363 0.513 19.338 2.959 17.846 7.005 L 17.791 7.102 C 17.768 7.059 17.744 7.016 17.718 6.974 C 16.201 2.945 9.209 0.512 7.5 0.004 C 7.311 -0.052 7.308 0.736 7.331 1.346 C 6.744 1.204 6.287 1.119 6.026 1.099 L 5.893 1.088 L 3.964 2.197 C 4.343 2.286 4.74 2.39 5.155 2.51 L 6.085 1.975 C 6.919 2.091 9.659 2.768 12.271 3.941 C 16.476 5.829 17.358 7.579 17.358 8.713 L 18.222 8.713 C 18.222 4.923 27.983 2.271 29.93 1.984 L 30.463 2.498 Z" fill="currentColor" opacity="0.4"/>
  <path d="M 34.879 2.356 C 32.132 2.791 26.408 3.47 22.121 7.97 L 22.535 32.973 C 22.535 32.973 28.413 28.729 35.401 25.895 C 35.76 25.753 35.997 25.406 36 25.017 L 36 3.281 C 36 2.702 35.466 2.264 34.881 2.356 Z M 34.456 23.397 C 33.976 23.397 33.592 6.649 33.592 6.649 C 33.564 6.118 33.31 5.625 32.896 5.296 L 32.48 4.966 C 32.38 4.888 32.329 4.762 32.348 4.636 C 32.366 4.509 32.45 4.403 32.568 4.357 C 33.292 4.066 34.457 3.667 34.457 4.125 C 34.457 4.786 34.938 23.4 34.457 23.4 Z" fill="currentColor" opacity="0.4"/>
  <path d="M 19.998 7.971 L 15.576 7.971 C 15.301 7.969 15.037 8.078 14.843 8.274 C 14.648 8.469 14.538 8.734 14.537 9.012 L 14.537 32.959 C 14.537 33.534 15.002 34 15.575 34 L 19.998 34 C 20.571 34 21.036 33.534 21.036 32.959 L 21.036 9.012 C 21.036 8.437 20.571 7.97 19.998 7.97 Z" fill="currentColor"/>
</svg>
