<svg xmlns="http://www.w3.org/2000/svg" viewBox="0 0 40 40" fill="none">
  <path d="M 8.216 22.987 C 5.296 17.267 3.216 10.648 1.724 3.407 L 0 26.667 L 27.577 26.667 L 26.14 22.987 Z" fill="currentColor" opacity="0.4"/>
  <path d="M 23.818 3.407 L 21.507 3.407 L 21.507 0 L 19.357 0 L 19.357 3.407 L 14.777 3.407 L 14.777 0 L 12.627 0 L 12.627 3.407 L 7.15 3.407 L 7.15 0 L 5 0 L 5 3.407 L 1.723 3.407 C 3.215 10.648 5.296 17.267 8.215 22.987 L 32.667 22.987 C 27.607 16.711 24.185 10.235 23.818 3.407 Z M 7.884 11.315 L 7.166 8.092 L 10.231 8.092 L 10.949 11.315 Z M 9.859 17.367 L 8.975 14.144 L 12.04 14.144 L 12.924 17.367 Z M 12.869 8.092 L 15.934 8.092 L 16.653 11.315 L 13.587 11.315 L 12.868 8.092 Z M 15.562 17.367 L 14.678 14.144 L 17.743 14.144 L 18.627 17.367 Z M 18.572 8.092 L 21.637 8.092 L 22.356 11.315 L 19.291 11.315 Z M 20.382 14.145 L 23.446 14.145 L 24.331 17.367 L 21.266 17.367 L 20.381 14.144 Z" fill="currentColor"/>
</svg>
