<svg xmlns="http://www.w3.org/2000/svg" viewBox="0 0 40 40" fill="none">
  <path d="M 14.789 0 C 14.789 0 9.343 5.608 0.242 7.4 C 0.242 7.4 4.207 23.322 5.459 25.37 C 6.711 27.418 14.789 33.333 14.789 33.333 C 14.789 33.333 22.867 27.418 24.119 25.37 C 25.37 23.322 29.335 7.4 29.335 7.4 C 20.232 5.609 14.79 0 14.79 0 Z M 21.262 23.637 C 20.626 24.502 17.724 26.92 14.789 29.163 C 11.854 26.92 8.952 24.503 8.316 23.637 C 7.691 22.369 5.906 16.038 4.298 9.811 C 8.082 8.623 11.631 6.787 14.788 4.387 C 17.945 6.788 21.495 8.623 25.28 9.81 C 23.673 16.04 21.887 22.37 21.262 23.636 Z" fill="currentColor"/>
  <path d="M 14.79 27.356 C 11.966 25.16 10.059 23.489 9.544 22.881 C 9.014 21.668 7.589 16.754 6.02 10.743 C 9.141 9.629 12.093 8.087 14.791 6.163 C 17.489 8.087 20.442 9.629 23.563 10.743 C 21.994 16.753 20.569 21.668 20.039 22.881 C 19.522 23.489 17.614 25.161 14.794 27.356 L 14.789 27.356 Z" fill="currentColor" opacity="0.4"/>
</svg>
