<svg xmlns="http://www.w3.org/2000/svg" viewBox="0 0 40 40" fill="none">
  <path d="M 35.81 6.367 L 32.809 3.357 C 32.689 3.235 32.523 3.166 32.35 3.166 C 32.178 3.166 32.012 3.235 31.891 3.357 L 31.515 3.734 C 31.261 3.989 31.261 4.4 31.515 4.655 L 31.88 5.021 L 30.218 6.688 C 28.358 5.197 26.117 4.248 23.746 3.948 L 23.746 1.836 L 24.231 1.836 C 24.589 1.836 24.879 1.544 24.879 1.185 L 24.879 0.651 C 24.879 0.29 24.588 0 24.23 0 L 19.987 0 C 19.629 0 19.338 0.292 19.338 0.651 L 19.338 1.185 C 19.338 1.545 19.63 1.836 19.987 1.836 L 20.472 1.836 L 20.472 3.942 C 16.779 4.405 13.566 6.418 11.501 9.312 L 4.824 9.798 L 9.648 11.832 L 0 15.48 L 9.077 16.412 L 9.087 16.397 L 12.728 16.722 C 12.832 11.614 16.991 7.506 22.108 7.506 C 27.225 7.506 31.494 11.721 31.494 16.921 C 31.494 22.121 27.291 26.336 22.108 26.336 C 19.216 26.336 16.63 25.023 14.909 22.96 L 11.544 24.584 C 13.912 27.864 17.757 30 22.103 30 C 29.301 30 35.138 24.144 35.138 16.922 C 35.143 14.06 34.205 11.275 32.466 8.992 L 34.151 7.301 L 34.516 7.667 C 34.636 7.789 34.802 7.858 34.975 7.858 C 35.147 7.858 35.313 7.789 35.433 7.667 L 35.81 7.29 C 36.063 7.035 36.063 6.624 35.81 6.369 Z" fill="currentColor"/>
  <path d="M 27.012 22.399 L 23.597 17.288 L 22.242 9.154 L 20.798 18.236 L 20.884 18.236 L 20.849 18.272 Z" fill="currentColor" opacity="0.42"/>
  <path d="M 14.83 22.862 C 13.607 21.357 12.881 19.515 12.75 17.585 L 9.161 18.458 C 9.263 19.335 9.455 20.185 9.721 21.001 L 4.055 22.645 L 10.449 22.781 L 10.453 22.786 L 14.83 22.863 Z" fill="currentColor"/>
</svg>
