<svg xmlns="http://www.w3.org/2000/svg" viewBox="0 0 37 31" fill="none">
  <path d="M 36.805 6.58 L 33.722 3.47 C 33.598 3.343 33.427 3.272 33.25 3.272 C 33.073 3.272 32.902 3.343 32.778 3.47 L 32.392 3.86 C 32.131 4.123 32.131 4.548 32.392 4.811 L 32.766 5.189 L 31.058 6.912 C 29.145 5.371 26.843 4.391 24.406 4.081 L 24.406 1.898 L 24.904 1.898 C 25.274 1.896 25.572 1.596 25.571 1.226 L 25.571 0.673 C 25.572 0.495 25.502 0.325 25.377 0.198 C 25.252 0.072 25.082 0.001 24.904 0 L 20.543 0 C 20.365 0.001 20.195 0.072 20.07 0.198 C 19.945 0.325 19.875 0.495 19.876 0.673 L 19.876 1.223 C 19.876 1.596 20.176 1.896 20.543 1.896 L 21.041 1.896 L 21.041 4.074 C 17.246 4.551 13.943 6.632 11.821 9.623 L 4.958 10.125 L 9.916 12.227 L 0 15.997 L 9.33 16.959 L 9.34 16.945 L 13.081 17.281 C 13.189 12.002 17.463 7.756 22.723 7.756 C 27.982 7.756 32.369 12.113 32.369 17.486 C 32.369 22.859 28.049 27.216 22.723 27.216 C 19.859 27.216 17.145 25.936 15.323 23.726 L 11.864 25.406 C 14.298 28.795 18.25 31.002 22.717 31.002 C 30.117 31.002 36.116 24.951 36.116 17.488 C 36.121 14.529 35.155 11.651 33.368 9.293 L 35.101 7.545 L 35.475 7.923 C 35.599 8.05 35.77 8.121 35.947 8.121 C 36.124 8.121 36.295 8.05 36.419 7.923 L 36.805 7.533 C 37.066 7.269 37.066 6.845 36.805 6.581 Z" fill="currentColor"/>
  <path d="M 27.763 23.147 L 24.253 17.865 L 22.86 9.46 L 21.375 18.846 L 21.464 18.846 L 21.427 18.883 L 27.763 23.148 Z" fill="currentColor" opacity="0.42"/>
  <path d="M 15.242 23.627 C 13.986 22.072 13.239 20.167 13.104 18.173 L 9.414 19.075 C 9.521 19.981 9.718 20.859 9.991 21.702 L 4.168 23.402 L 10.74 23.542 L 10.743 23.548 Z" fill="currentColor"/>
</svg>
