<svg xmlns="http://www.w3.org/2000/svg" viewBox="0 0 40 40" fill="none">
  <path d="M 5.549 31.991 L 5.549 23.954 L 0 20.357 L 1.644 9.357 L 6.678 6.29 L 13.824 12.524 L 12.706 17.444 L 6.882 14.221 L 7.807 19.488 L 11.505 22.577 L 10.583 28.923 L 13.56 23.423 L 8.512 18.248 L 12.534 19.141 L 14.247 16.993 L 18.011 19.481 L 22.293 18.664 L 19.726 24.27 L 17.979 24.693 L 17.979 34 Z" fill="currentColor"/>
  <path d="M 7.544 5.839 L 8.819 0 L 12.705 2.476 L 11.147 8.317 L 7.542 5.839 Z M 11.857 8.895 L 13.528 2.179 L 17.414 4.656 L 15.461 11.374 Z M 14.637 15.813 L 18.588 5.294 L 22.182 7.731 L 17.947 18.249 Z M 19.04 17.645 L 22.405 9.366 L 26 11.805 L 22.644 17.645 L 19.039 17.645 Z" fill="currentColor" opacity="0.4"/>
</svg>
