<svg xmlns="http://www.w3.org/2000/svg" viewBox="0 0 40 40" fill="none">
  <path d="M 30.849 17.764 C 30.153 17.189 28.408 17.907 27.864 18.856 C 27.32 19.81 28.676 21.927 28.409 22.316 C 28.137 22.706 25.746 24.495 25.746 24.495 C 25.746 24.495 25.696 19.558 25.615 19.307 C 25.333 18.445 23.78 15.893 22.63 15.842 C 21.48 15.79 20.794 17.38 19.811 17.338 C 18.944 17.302 17.815 16.918 17.623 14.893 C 18.147 14.38 18.667 13.699 19.095 12.919 C 19.474 12.848 20.552 12.494 20.981 10.776 C 21.395 9.125 20.466 9.141 20.008 9.879 C 20.008 9.813 20.018 9.746 20.018 9.684 C 20.018 6.742 18.217 4.614 15.999 4.614 C 13.78 4.614 11.98 6.737 11.98 9.684 C 11.98 9.751 11.99 9.813 11.99 9.879 C 11.531 9.141 10.603 9.12 11.017 10.776 C 11.445 12.494 12.525 12.848 12.903 12.919 C 13.326 13.694 13.85 14.38 14.375 14.893 C 14.179 16.918 13.049 17.302 12.187 17.338 C 11.203 17.38 10.664 15.682 9.368 15.842 C 8.072 16 6.665 18.445 6.382 19.307 C 6.302 19.558 6.251 24.495 6.251 24.495 C 6.251 24.495 3.856 22.706 3.589 22.316 C 3.317 21.926 4.673 19.81 4.134 18.856 C 3.589 17.902 1.85 17.189 1.148 17.764 C 0.452 18.338 0.568 22.014 0.841 22.834 C 1.113 23.654 3.695 29.438 6.04 29.309 C 8.385 29.181 8.783 25.91 8.868 25.782 C 8.954 25.654 10.679 22.486 10.679 22.486 L 12.317 27.141 L 11.118 30.422 C 11.118 30.422 14.531 34 16.004 34 C 17.476 34 20.89 30.422 20.89 30.422 L 19.69 27.141 L 21.329 22.486 C 21.329 22.486 23.054 25.649 23.139 25.782 C 23.225 25.91 23.619 29.182 25.968 29.309 C 28.313 29.437 30.9 23.654 31.167 22.834 C 31.44 22.014 31.556 18.338 30.86 17.764 Z" fill="currentColor"/>
  <path d="M 4.062 15.723 C 4.062 15.723 6.345 11.576 9.815 14.334 L 6.545 3.056 C 6.545 3.056 7.679 11.483 5.747 12.191 C 3.816 12.899 0.205 7.952 0.205 7.952 Z M 27.397 16.098 C 27.397 16.098 24.851 11.213 21.724 14.945 L 24.915 3.43 C 24.915 3.43 23.78 11.857 25.712 12.566 C 27.644 13.273 31.255 8.326 31.255 8.326 Z M 10.146 5.383 C 10.146 5.383 8.418 2.897 8.864 0 C 8.864 0 10.528 1 10.145 5.383 Z" fill="currentColor" opacity="0.4"/>
  <path d="M 4.377 8.141 C 4.377 8.141 2 6.239 1.58 3.343 C 1.58 3.343 3.469 3.84 4.377 8.141 Z M 28.116 8.521 C 28.116 8.521 30.494 6.618 30.914 3.722 C 30.914 3.722 29.024 4.219 28.116 8.521 Z M 21.072 5.757 C 21.072 5.757 22.799 3.27 22.353 0.375 C 22.353 0.375 20.69 1.374 21.073 5.757 Z" fill="currentColor" opacity="0.4"/>
</svg>
