<svg xmlns="http://www.w3.org/2000/svg" viewBox="0 0 40 40" fill="none">
  <path d="M 12 20.164 C 20.02 22.515 27.432 21.115 31.45 19.712 L 31.056 18 C 26.83 20.278 19.59 20.348 12 20.164 Z" fill="currentColor"/>
  <path d="M 2.301 0 C 3.818 5.893 11.884 12.858 11.884 12.858 L 13.36 9.967 C 19.864 13.075 23.767 20.897 23.767 20.897 C 23.767 20.897 15.203 22.931 5.338 17.252 C -4.526 11.572 2.302 0 2.302 0 Z M 18.314 18.299 C 14.344 16.921 10.378 14.904 6.42 12.249 C 10.802 18.71 18.314 18.299 18.314 18.299 Z" fill="currentColor"/>
  <path d="M 24.323 9.5 C 24.323 9.5 24.858 4.363 18.067 1.5 C 18.067 1.5 15.296 7.56 24.323 9.5 Z M 13 27.524 C 13 27.524 9.95 23.431 3 25.342 C 3 25.342 5.013 31.434 13 27.524 Z" fill="currentColor" opacity="0.4"/>
</svg>
