<svg xmlns="http://www.w3.org/2000/svg" viewBox="0 0 40 40" fill="none">
  <path d="M 9.09 12.762 C 9.09 12.762 6.043 9.467 6.033 5.091 C 6.033 5.091 8.663 6.207 9.09 12.762 Z M 30.286 4.868 C 30.286 4.868 30.579 8.247 28.555 10.867 C 28.555 10.867 28.361 7.677 30.286 4.867 Z M 5.21 23.684 C 5.21 23.684 6.435 19.292 10.221 21.178 L 4.803 11.204 C 4.803 11.204 7.641 18.93 6.013 19.997 C 4.387 21.064 0 17.149 0 17.149 Z M 12.37 8.927 C 12.37 8.927 16.493 5.944 20.21 10.976 L 19.827 0.005 C 19.827 0.005 18.572 7.567 16.622 7.532 C 14.677 7.498 11.605 1.766 11.605 1.766 L 12.37 8.932 Z M 25.98 19.163 C 25.98 19.163 29.894 17.149 26.833 28.899 L 35 13.283 C 35 13.283 31.155 19.868 29.547 18.766 C 27.94 17.665 28.827 11.909 28.827 11.909 C 27.433 13.889 26.511 16.339 25.98 19.163 Z" fill="currentColor" opacity="0.4"/>
  <path d="M 25.94 8.708 C 25.677 6.178 24.804 1.548 23.628 1.503 C 22.447 1.459 21.226 4.253 21.445 4.997 C 21.663 5.741 23.628 6.818 23.628 6.818 L 23.333 9.741 L 21.598 15.461 L 21.241 18.826 L 19.251 19.918 L 18.512 17.506 C 18.904 17.159 19.326 16.355 19.435 15.67 C 19.584 14.737 19.351 13.928 18.919 13.859 C 18.696 13.824 18.468 13.993 18.274 14.286 C 17.609 11.413 15.471 9.934 13.362 10.42 C 11.253 10.906 9.973 13.174 10.638 16.057 C 11.303 18.94 14.205 21.203 15.763 20.86 C 15.887 20.833 16.008 20.789 16.121 20.731 L 16.488 21.753 L 15.038 23.083 L 12.603 23.813 C 12.538 24.011 12.335 28.482 12.335 28.482 C 12.335 28.482 10.425 27.078 10.211 26.775 C 9.993 26.467 11.075 24.805 10.643 24.061 C 10.211 23.317 8.817 22.751 8.261 23.202 C 7.706 23.654 7.8 26.537 8.013 27.182 C 8.232 27.827 10.291 32.367 12.166 32.263 C 13.704 32.179 14.19 30.433 14.354 29.753 L 16.011 33.375 L 22.953 34.422 L 22.908 29.311 C 22.908 29.311 25.265 24.944 25.354 23.981 C 25.444 23.019 25.047 17.824 25.047 17.824 C 25.047 17.824 26.203 11.244 25.945 8.714 Z M 15.307 18.662 C 14.255 19.188 13.555 18.106 13.555 18.106 L 15.987 16.533 C 15.987 16.533 16.359 18.131 15.307 18.657 Z" fill="currentColor"/>
</svg>
