<svg xmlns="http://www.w3.org/2000/svg" viewBox="0 0 40 40" fill="none">
  <path d="M 13.12 33.333 C 13.12 33.333 5.83 30.99 2 25.847 C 2 25.847 3.498 19.119 8.708 13.316 C 8.708 13.316 8.756 16.126 9.358 18.086 C 9.358 18.086 11.812 13.776 13.463 10.181 C 13.463 10.181 11.879 5.543 10.359 2.667 C 10.359 2.667 19.934 8.545 24.163 14.819 C 24.325 18.001 21.389 23.117 21.389 23.117 C 21.389 23.117 24.823 22.921 27.333 19.917 L 25.945 27.168 C 25.945 27.168 23.239 30.94 17.888 33.333 L 20.068 25.862 C 20.068 25.862 14.322 28.475 13.86 26.775 C 13.398 25.075 16.304 18.477 16.304 18.477 L 9.36 24.751 C 9.36 24.751 9.36 28.009 13.122 33.333 Z" fill="currentColor"/>
  <path d="M 27.734 13.268 C 27.734 13.268 29.234 8.541 29.334 7.765 C 29.434 6.99 21.859 4.433 21.859 4.433 C 21.859 4.433 27.502 9.005 27.576 9.238 C 27.651 9.472 27.732 13.268 27.732 13.268 Z M 1.455 16.434 C 1.455 16.434 0.568 10.809 6.13 8.849 Z" fill="currentColor" opacity="0.4"/>
</svg>
