<svg xmlns="http://www.w3.org/2000/svg" viewBox="-0.5 -0.5 37 37" fill="none">
  <path d="M 10.144 2.924 L 5.405 6.429 L 6.746 12.842 L 7.774 7.886 Z M 7.363 0 L 0 6.011 L 2.698 11.981 L 2.624 6.92 Z M 33.417 14.693 L 36 23.807 L 30.356 29.393 L 33.319 23.054 L 33.416 14.693 Z" fill="currentColor" opacity="0.4"/>
  <path d="M 24.894 22.365 L 24.104 21.472 L 29.583 12.644 L 28.95 8.656 L 21.299 18.679 L 20.855 17.68 L 24.861 4.618 L 23.035 0.884 L 16.667 16.141 L 15.59 15.151 L 16.388 3.226 L 12.941 0 L 12.752 5.004 L 11.542 18.45 L 7.232 14.102 L 3.152 14.495 L 9.395 21.914 L 8.202 28.376 L 10.094 33.043 L 13.813 33.346 L 15.943 35.992 L 20.674 32.552 L 24.935 26.738 L 30.611 20.686 L 30.826 16.943 L 24.902 22.365 Z M 11.674 28.802 L 13.961 23.88 L 13.064 18.958 L 15.894 24.461 L 11.674 28.81 L 11.674 28.802 Z" fill="currentColor"/>
</svg>
