<svg xmlns="http://www.w3.org/2000/svg" viewBox="0 0 40 40" fill="none">
  <path d="M 18.603 6.486 L 19.31 8.167 L 21.832 7.77 L 23.404 1.167 Z M 10.534 8.167 L 11.933 7.392 L 12.602 5.944 L 8.402 2.333 Z M 14.403 7.583 L 16.274 6.738 L 18.003 6.951 L 15.874 0 Z M 0 17.743 L 4.215 19.5 L 15.228 28 L 17.195 27.546 L 16.745 25.959 L 18.038 27.546 L 20.06 27.151 L 19.385 24.883 L 21.352 26.697 L 23.656 24.769 L 22.165 22.388 L 24.667 23.918 C 24.667 23.918 26.352 22.784 25.567 21.595 C 24.781 20.406 14.326 12.017 14.103 11.958 C 13.879 11.9 8.775 12.542 8.102 12.542 C 7.428 12.542 3.652 9.976 3.652 9.976 Z" fill="currentColor" opacity="0.4"/>
  <path d="M 31 17.243 L 26.173 10.986 L 19.486 11.96 L 15.694 10.5 L 8.937 15.853 C 8.937 15.853 10.885 17.211 12.61 16.932 C 14.335 16.655 16.936 14.464 16.936 14.464 L 24.24 20.417 L 26.932 18.286 Z M 3.001 20.41 L 3.95 17.302 L 5.543 18.855 L 6.215 20.728 L 8.659 19.014 L 9.811 20.728 L 9.54 22.836 L 12.995 19.248 L 14.284 21.606 L 12.895 24.305 L 14.928 21.879 L 15.672 23.144 L 14.475 27.103 L 12.136 26.867 L 11.505 25.432 L 10.082 25.363 L 9.338 23.724 L 6.39 22.597 L 5.983 21.367 L 3.001 20.41 Z" fill="currentColor"/>
</svg>
