<svg xmlns="http://www.w3.org/2000/svg" viewBox="-0.5 -0.5 24.5 33" fill="none">
  <path d="M 0.98 12.98 L 3.708 2.298 L 5.168 8.598 L 9.008 0 L 11.451 7.27 L 14.691 1.484 L 18.086 9.193 L 21.291 2.433 L 22.358 12.733 Z" fill="currentColor" opacity="0.4"/>
  <path d="M 22.956 14.596 L 0.377 14.596 C 0.129 15.23 0.002 15.905 0 16.586 C 0 18.255 0.77 19.795 2.074 21.068 L 1.277 24.463 L 7.123 26.474 L 7.123 29.802 L 11.669 31.996 L 16.214 29.802 L 16.214 26.474 L 22.06 24.463 L 21.263 21.067 C 22.568 19.795 23.337 18.251 23.337 16.587 C 23.337 15.897 23.207 15.23 22.96 14.596 Z M 6.231 23.294 C 4.212 23.027 3.927 19.408 3.927 19.408 C 6.56 19.292 8.595 20.273 10.205 22.018 C 10.205 22.018 8.254 23.561 6.231 23.294 Z M 11.633 25.608 L 9.808 26.291 L 11.8 23.087 L 13.79 26.526 L 11.629 25.608 Z M 17.019 23.302 C 15 23.482 13.223 22.009 13.223 22.009 C 15.056 20.349 17.071 19.787 19.323 20.72 C 19.323 20.72 19.038 23.126 17.019 23.302 Z" fill="currentColor"/>
</svg>
