<svg xmlns="http://www.w3.org/2000/svg" viewBox="0 0 40 40" fill="none">
  <path d="M 26.458 15.992 L 25.519 17.866 L 25.763 20.51 L 34.28 15.097 Z M 17.269 27.89 L 15.779 26.415 L 13.191 25.826 L 15.689 35.605 Z M 22.477 11.646 L 22.437 13.722 L 23.813 15.967 L 29.22 7.464 Z" fill="currentColor" opacity="0.4"/>
  <path d="M 18.725 18.603 L 15.863 9.41 L 3.165 12.535 L 6.286 24.932 L 16.518 22.955 L 22.097 25.229 L 19.941 28.245 L 22.099 29.852 L 24.993 26.407 L 26.975 27.215 L 24.498 30.894 L 28.19 33.646 L 33.722 27.019 L 18.724 18.603 Z M 9.615 20.647 L 8.024 15.329 L 13.081 12.638 L 14.754 19.335 Z" fill="currentColor"/>
</svg>
