<svg xmlns="http://www.w3.org/2000/svg" viewBox="0 0 40 40" fill="none">
  <path d="M 25.345 11.494 C 25.949 14.366 25.066 17.182 24.904 18.363 C 24.673 20.032 26.252 20.618 27.339 20.822 C 27.573 20.865 27.776 21.011 27.893 21.221 C 28.011 21.43 28.03 21.682 27.947 21.907 L 25.229 29.164 L 19.149 30.043 L 17.729 34.997 L 8.352 34.968 L 9.891 28.736 C 9.891 28.736 3.963 24.867 3.335 16.842 C 3.309 16.511 25.347 11.491 25.347 11.491 Z" fill="currentColor"/>
  <path d="M 3.292 13.606 L 24.722 9.639 L 24.331 0.225 L 19.937 8.27 L 16.694 0 L 13.954 9.211 L 8.626 1.965 L 7.579 10.279 L 0 4.988 L 3.292 13.606 Z" fill="currentColor" opacity="0.5"/>
</svg>
