<svg width="72" height="72" viewBox="0 0 72 72" fill="none" xmlns="http://www.w3.org/2000/svg">
<g clip-path="url(#clip0_439_623)">
<path d="M54.7148 21.6143L49.9688 33.0078L58 40.7881H54.0283L46.6416 34.0625L49.1455 22.6504H21.8545L24.3584 34.0625L16.9717 40.7881H13L21.0312 33.0078L16.2852 21.6143L20.1875 13L35.5 13.8691L50.8164 13L54.7148 21.6143Z" fill="black"/>
<path opacity="0.4" d="M23.1021 39.68H47.898L43.8501 33.5331L42.4322 34.4428L40.2053 29.4339L36.2726 30.1359L34.2366 28.64L28.2648 31.2569L27.5559 34.16L24.214 37.0631L23.1021 39.68Z" fill="black"/>
<path d="M37.2261 19.7758H33.2332L32.1521 24.7875H38.3037L37.2261 19.7758Z" fill="black"/>
<path d="M13 40.7881L15.1935 58.9964C15.1935 58.9964 29.0346 58.5883 35.5 58.5883C41.9654 58.5883 55.8065 58.9964 55.8065 58.9964L58 40.7881H13ZM38.0876 54.1089H32.9159L33.7668 49.6971C32.9613 49.1363 32.4347 48.1921 32.4347 47.1238C32.4347 45.3988 33.8087 44.0039 35.5 44.0039C37.1913 44.0039 38.5653 45.4023 38.5653 47.1238C38.5653 48.1921 38.0353 49.1363 37.2332 49.6971L38.0841 54.1089H38.0876Z" fill="black"/>
</g>
<defs>
<clipPath id="clip0_439_623">
<rect width="45" height="46" fill="white" transform="translate(13 13)"/>
</clipPath>
</defs>
</svg>
