<svg xmlns="http://www.w3.org/2000/svg" viewBox="0 0 40 40" fill="none">
  <path d="M 8.46 6.015 L 29.107 4.985 L 26.126 0 L 2.489 1.294 L 6.61 3.373 Z" fill="currentColor" opacity="0.4"/>
  <path d="M 10.2 29.351 L 11.417 32.244 L 8.451 34.81 L 31 31.089 L 28.906 27.401 L 10.201 29.351 Z" fill="currentColor"/>
  <path d="M 31 16.149 L 26.774 6.372 L 7.416 7.525 L 6.125 4.053 L 2.489 1.295 L 0 5.526 L 6.323 18.826 L 2.487 31.865 L 6.859 35 L 10.416 32.306 L 8.761 28.847 L 28.492 25.608 L 30.996 16.149 Z M 9.634 10.754 L 24.648 9.289 L 25.236 10.937 L 9.853 12.249 L 9.632 10.755 L 9.634 10.755 Z M 10.421 15.012 L 20.644 14.201 L 21.232 15.852 L 10.642 16.507 Z M 11.553 20.63 L 11.332 19.136 L 26.346 17.67 L 26.933 19.318 L 11.55 20.63 Z" fill="currentColor"/>
</svg>
