<svg xmlns="http://www.w3.org/2000/svg" viewBox="-0.5 -0.5 33 28.5" fill="none">
  <path d="M 4.782 10.212 L 0 14.887 L 4.782 19.561 L 3.727 14.887 Z M 11.32 9.341 L 5.642 14.886 L 11.32 20.432 L 10.065 14.886 Z" fill="currentColor" opacity="0.4"/>
  <path d="M 16.77 19.373 C 17.988 16.893 16.77 13.533 16.77 13.533 L 8.253 3.98 L 18.216 0 L 19.641 2.027 L 26.668 2.762 L 21.079 4.07 L 16.187 5.214 L 32 6.178 L 20.68 8.822 L 26.62 9.501 L 30.782 12.655 L 29.372 16.55 L 25.312 18.703 L 19.417 27.337 L 10.163 27.337 L 10.106 24.98 C 10.106 24.98 15.56 21.858 16.778 19.373 Z" fill="currentColor"/>
</svg>
