<svg xmlns="http://www.w3.org/2000/svg" viewBox="0 0 40 40" fill="none">
  <path d="M 10.194 4.492 C 8.597 7.81 9.824 11.537 10.018 12.924 C 10.242 14.537 8.708 15.103 7.653 15.301 C 7.425 15.344 7.227 15.485 7.113 15.688 C 6.999 15.89 6.981 16.133 7.063 16.35 L 9.703 23.362 L 15.605 24.212 L 16.983 28.998 L 26.088 28.971 L 24.594 22.949 C 24.594 22.949 30.349 19.209 30.958 11.454 C 31.97 -1.412 13.8 -2.999 10.194 4.492 Z M 15.538 19.796 C 13.54 20.754 11.648 18.429 11.648 18.429 L 16.883 16.515 C 16.883 16.515 17.537 18.838 15.538 19.795 Z" fill="currentColor"/>
  <path d="M 5.857 12.308 L 7.609 12.007 L 7.609 9.784 L 1.395 7.26 Z M 6.03 20.66 L 5.583 19.165 L 4.4 18.274 L 0.412 21.784 L 6.031 20.66 Z M 4.461 16.515 L 4.503 14.995 L 5.436 13.74 L 0 13.476 Z" fill="currentColor" opacity="0.4"/>
</svg>
