<svg xmlns="http://www.w3.org/2000/svg" viewBox="-1.5 -1.8 38.7 38.7" fill="none">
  <path d="M 23.736 2.097 L 17.525 0 L 16.544 10.049 L 18.236 10.049 L 18.027 4.024 L 23.737 2.097 Z" fill="currentColor" opacity="0.4"/>
  <g transform="translate(5.833 9.148)">
    <path d="M 21.703 24.501 L 19.984 13.674 L 23.398 11.753 L 19.51 0.36 L 16.033 0.317 L 16.522 4.343 L 14.517 4.454 L 13.974 0 L 10.107 0 L 9.562 4.452 L 7.557 4.34 L 8.045 0.315 L 4.567 0.357 L 0.681 11.754 L 4.096 13.676 L 2.377 24.497 C 0.7 25.286 0 26.035 0 26.035 L 8.861 26.035 C 8.891 23.528 9.253 17.59 12.033 17.59 C 14.811 17.59 15.173 23.528 15.204 26.035 L 24.065 26.035 C 24.065 26.035 23.372 25.289 21.704 24.501 Z M 10.478 12.011 C 10.478 12.011 10.932 7.303 12.039 7.303 C 13.147 7.303 13.6 12.011 13.6 12.011 Z" fill="currentColor"/>
  </g>
</svg>
