<svg xmlns="http://www.w3.org/2000/svg" viewBox="0 0 40 40" fill="none">
  <path d="M 13.646 9.694 L 10.84 5.768 L 14.434 8.951 L 16.736 6.779 L 11.869 2.394 L 5.033 0 L 7.424 6.846 L 11.666 11.562 L 13.647 9.694 Z M 18.875 19.576 L 22.126 23.19 C 22.894 22.64 23.644 22.065 24.373 21.464 L 20.794 17.538 L 18.873 19.576 Z M 24.412 13.697 L 21.53 16.756 L 25.454 20.505 C 26.565 19.397 27.408 18.369 28.21 17.117 L 24.413 13.695 Z M 20.177 26.203 C 24.741 23.399 28.419 19.717 31.211 15.159 C 31.269 15.064 31.366 15.001 31.476 14.987 C 31.586 14.974 31.696 15.011 31.775 15.089 L 34.147 17.463 C 34.306 17.622 34.284 17.884 34.104 18.014 C 32.407 19.239 31.351 20.261 29.427 22.087 C 31.226 23.76 33.112 25.588 35.026 27.052 C 35.247 27.22 35.398 27.46 35.453 27.732 L 35.991 30.428 C 36.022 30.585 35.973 30.747 35.86 30.86 C 35.747 30.973 35.586 31.022 35.429 30.99 L 32.735 30.452 C 32.466 30.397 32.225 30.246 32.058 30.026 C 30.594 28.121 28.765 26.237 27.087 24.435 C 25.276 26.347 24.261 27.4 23.029 29.101 C 22.966 29.187 22.869 29.241 22.764 29.249 C 22.658 29.258 22.554 29.219 22.479 29.145 L 20.107 26.771 C 20.029 26.692 19.991 26.582 20.004 26.471 C 20.018 26.361 20.081 26.263 20.177 26.206 Z" fill="currentColor" opacity="0.42"/>
  <path d="M 10.551 20.505 L 24.303 7.361 C 24.366 7.301 24.457 7.39 24.4 7.455 L 11.632 21.466 C 12.362 22.066 13.111 22.642 13.879 23.192 L 28.58 6.846 L 30.972 0 L 24.132 2.394 L 7.796 17.116 C 8.595 18.366 9.44 19.397 10.551 20.505 Z M 15.826 26.203 C 11.262 23.399 7.584 19.717 4.792 15.159 C 4.734 15.064 4.636 15.001 4.527 14.987 C 4.417 14.974 4.307 15.011 4.228 15.089 L 1.856 17.463 C 1.697 17.622 1.719 17.884 1.899 18.014 C 3.596 19.239 4.652 20.261 6.575 22.087 C 4.778 23.76 2.891 25.588 0.977 27.052 C 0.757 27.219 0.605 27.46 0.55 27.732 L 0.009 30.428 C -0.022 30.585 0.027 30.747 0.14 30.86 C 0.253 30.973 0.415 31.022 0.572 30.99 L 3.265 30.452 C 3.536 30.396 3.774 30.245 3.942 30.026 C 5.406 28.121 7.236 26.237 8.914 24.435 C 10.725 26.347 11.74 27.4 12.972 29.101 C 13.101 29.282 13.363 29.301 13.521 29.145 L 15.894 26.771 C 15.972 26.692 16.01 26.582 15.997 26.471 C 15.983 26.361 15.919 26.263 15.824 26.206 Z" fill="currentColor"/>
</svg>
