<svg xmlns="http://www.w3.org/2000/svg" viewBox="0 0 30.556 30.556" fill="none">
  <path d="M 11.552 10.661 L 9.167 7.333 L 12.222 10.031 L 14.179 8.191 L 10.042 4.473 L 4.23 2.444 L 6.263 8.248 L 9.869 12.244 Z M 15.997 19.037 L 18.76 22.101 C 19.215 21.781 20.117 21.101 20.67 20.638 L 17.628 17.31 L 15.995 19.037 Z M 20.703 14.055 L 18.253 16.648 L 21.588 19.825 C 22.533 18.886 23.25 18.015 23.931 16.953 L 20.705 14.053 Z M 17.103 24.655 C 20.983 22.278 24.109 19.157 26.483 15.293 C 26.532 15.212 26.615 15.159 26.708 15.147 C 26.802 15.136 26.895 15.168 26.962 15.234 L 28.978 17.247 C 29.042 17.311 29.074 17.399 29.067 17.489 C 29.06 17.578 29.014 17.66 28.941 17.713 C 27.499 18.752 26.601 19.618 24.966 21.166 C 26.494 22.583 28.098 24.133 29.725 25.374 C 29.912 25.515 30.041 25.72 30.088 25.95 L 30.545 28.236 C 30.571 28.369 30.53 28.506 30.434 28.602 C 30.338 28.697 30.201 28.739 30.068 28.712 L 27.778 28.256 C 27.549 28.209 27.345 28.081 27.203 27.896 C 25.958 26.28 24.403 24.683 22.976 23.156 C 21.438 24.777 20.574 25.669 19.527 27.111 C 19.474 27.183 19.392 27.229 19.302 27.236 C 19.212 27.243 19.124 27.211 19.06 27.148 L 17.044 25.136 C 16.977 25.069 16.945 24.975 16.956 24.881 C 16.968 24.787 17.023 24.704 17.104 24.656 Z" fill="currentColor" opacity="0.42"/>
  <path d="M 8.969 19.825 L 20.659 8.683 C 20.711 8.633 20.789 8.708 20.739 8.763 L 9.888 20.64 C 10.508 21.149 11.145 21.636 11.798 22.102 L 24.293 8.248 L 26.327 2.444 L 20.513 4.474 L 6.626 16.954 C 7.306 18.012 8.024 18.886 8.969 19.825 Z M 13.452 24.655 C 9.573 22.278 6.447 19.157 4.073 15.293 C 4.024 15.212 3.941 15.159 3.847 15.147 C 3.754 15.136 3.66 15.168 3.593 15.234 L 1.577 17.247 C 1.513 17.311 1.481 17.399 1.488 17.489 C 1.495 17.578 1.541 17.66 1.614 17.713 C 3.057 18.752 3.954 19.618 5.59 21.166 C 4.061 22.583 2.457 24.133 0.83 25.374 C 0.643 25.515 0.514 25.72 0.467 25.95 L 0.008 28.236 C -0.019 28.369 0.023 28.506 0.119 28.602 C 0.216 28.698 0.353 28.739 0.486 28.712 L 2.776 28.256 C 3.005 28.209 3.209 28.081 3.351 27.896 C 4.596 26.28 6.151 24.683 7.577 23.156 C 9.116 24.777 9.979 25.669 11.026 27.111 C 11.079 27.183 11.161 27.229 11.251 27.236 C 11.341 27.243 11.429 27.211 11.493 27.148 L 13.509 25.136 C 13.576 25.069 13.609 24.975 13.597 24.882 C 13.586 24.788 13.531 24.704 13.45 24.656 Z" fill="currentColor"/>
</svg>
