<svg xmlns="http://www.w3.org/2000/svg" viewBox="0 0 40 40" fill="none">
  <path d="M 12.603 11.63 L 10 8 L 13.333 10.943 L 15.468 8.935 L 10.955 4.88 L 4.615 2.667 L 6.832 8.997 L 10.766 13.357 L 12.603 11.631 Z M 17.451 20.768 L 20.466 24.11 C 21.178 23.602 21.873 23.07 22.549 22.515 L 19.23 18.884 L 17.45 20.768 Z M 22.585 15.332 L 19.913 18.162 L 23.551 21.628 C 24.581 20.603 25.363 19.652 26.107 18.494 L 22.587 15.33 Z M 18.658 26.896 C 22.89 24.303 26.3 20.9 28.89 16.684 C 28.943 16.596 29.034 16.538 29.136 16.525 C 29.238 16.512 29.34 16.547 29.413 16.619 L 31.613 18.815 C 31.683 18.884 31.718 18.981 31.711 19.079 C 31.703 19.177 31.653 19.266 31.573 19.324 C 29.998 20.457 29.019 21.401 27.236 23.09 C 28.903 24.637 30.653 26.328 32.427 27.68 C 32.632 27.836 32.772 28.059 32.823 28.31 L 33.323 30.803 C 33.352 30.948 33.307 31.099 33.202 31.203 C 33.097 31.308 32.946 31.353 32.801 31.323 L 30.303 30.825 C 30.053 30.774 29.83 30.634 29.675 30.432 C 28.317 28.67 26.621 26.928 25.065 25.262 C 23.386 27.03 22.445 28.003 21.303 29.576 C 21.245 29.655 21.155 29.705 21.057 29.713 C 20.959 29.72 20.863 29.685 20.793 29.616 L 18.593 27.421 C 18.52 27.348 18.485 27.246 18.498 27.144 C 18.51 27.042 18.57 26.952 18.658 26.899 Z" fill="currentColor" opacity="0.42"/>
  <path d="M 9.784 21.628 L 22.536 9.473 C 22.594 9.418 22.678 9.5 22.626 9.56 L 10.786 22.517 C 11.463 23.072 12.158 23.604 12.87 24.112 L 26.5 8.998 L 28.72 2.667 L 22.377 4.88 L 7.227 18.495 C 7.969 19.65 8.752 20.603 9.783 21.628 Z M 14.675 26.896 C 10.443 24.303 7.033 20.9 4.444 16.684 C 4.391 16.596 4.3 16.537 4.198 16.524 C 4.096 16.512 3.993 16.547 3.92 16.619 L 1.72 18.815 C 1.65 18.884 1.615 18.981 1.622 19.079 C 1.63 19.177 1.68 19.266 1.76 19.324 C 3.335 20.457 4.314 21.401 6.098 23.09 C 4.43 24.637 2.68 26.328 0.906 27.68 C 0.702 27.835 0.561 28.059 0.51 28.31 L 0.009 30.803 C -0.02 30.948 0.025 31.098 0.13 31.202 C 0.234 31.307 0.384 31.352 0.529 31.323 L 3.028 30.825 C 3.279 30.774 3.5 30.634 3.655 30.432 C 5.013 28.67 6.71 26.928 8.266 25.262 C 9.945 27.03 10.886 28.003 12.028 29.576 C 12.148 29.743 12.391 29.761 12.538 29.616 L 14.738 27.421 C 14.811 27.348 14.846 27.246 14.833 27.144 C 14.821 27.042 14.761 26.952 14.673 26.899 Z" fill="currentColor"/>
</svg>
