<svg xmlns="http://www.w3.org/2000/svg" viewBox="-6 -4.1 43 43" fill="none">
  <path d="M 4.838 3.841 C 4.221 6.002 5.365 8.108 5.629 8.92 C 5.936 9.863 5.065 10.367 4.447 10.597 C 4.313 10.646 4.208 10.752 4.16 10.886 C 4.113 11.02 4.128 11.168 4.201 11.29 L 6.551 15.218 L 10.226 15.099 L 11.573 17.826 L 17.1 16.839 L 15.551 13.384 C 15.551 13.384 19.375 10.426 18.918 5.706 C 18.16 -2.126 6.228 -1.043 4.838 3.838 Z" fill="currentColor"/>
  <path d="M 25.894 4.049 C 26.546 6.138 25.487 8.214 25.248 9.013 C 24.97 9.94 25.832 10.408 26.441 10.618 C 26.573 10.662 26.678 10.763 26.728 10.892 C 26.778 11.021 26.767 11.165 26.699 11.286 L 24.509 15.167 L 20.928 15.141 L 19.684 17.828 L 14.279 17.003 L 15.702 13.601 C 15.702 13.601 12.617 10.896 12.943 6.289 C 13.485 -1.351 24.417 -0.668 25.893 4.048 Z" fill="currentColor" opacity="0.4"/>
  <path d="M 10.797 16.304 L 1.026 18.447 L 0 21.506 L 1.922 23.61 L 11.15 25.647 L 14.739 24.693 L 14.739 26.029 L 16.789 27.941 L 14.994 29.598 L 9.291 28.834 L 11.598 35.929 L 27.681 36.693 L 23.646 25.521 L 18.967 22.717 L 20.057 20.615 L 21.39 20.307 L 21.531 19.276 L 24.122 20.839 L 22.493 16.304 L 15.922 14.864" fill="currentColor"/>
  <path d="M 24.122 20.838 L 28.917 21.492 L 31 24.522 L 28.002 26.393 L 23.647 25.52 L 18.967 22.716 L 20.057 20.615 L 21.39 20.306 L 21.531 19.276 Z M 3.437 23.944 L 1.738 26.02 L 2.98 28.677 L 5.898 29.109 L 4.274 37 L 11.598 35.929 L 9.291 28.833 L 14.994 29.597 L 16.789 27.94 L 14.739 26.029 L 14.739 24.692 L 11.15 25.647 Z" fill="currentColor" opacity="0.4"/>
</svg>
