<svg xmlns="http://www.w3.org/2000/svg" viewBox="0 0 40 40" fill="none">
  <path d="M 29.373 20.822 L 23.805 18.458 L 21.819 15.228 L 15.629 16.112 L 13.875 19.006 L 17.332 23.175 L 20.104 22.559 L 18.331 19.172 L 21.284 19.739 L 22.996 21.895 L 26.566 21.4 L 23.458 23.089 L 20.582 20.139 L 21.058 22.469 L 19.841 23.447 L 21.215 25.639 L 20.731 28.112 L 23.896 26.661 L 29.373 27.806 Z" fill="currentColor"/>
  <path d="M 13.616 19.503 L 10.326 20.206 L 11.696 22.468 L 14.985 21.602 L 13.615 19.502 Z M 15.307 22.015 L 11.973 22.751 L 13.34 25.014 L 16.676 24.114 L 15.306 22.015 Z M 19.174 23.665 L 13.755 25.361 L 15.103 27.455 L 20.523 25.595 L 19.173 23.665 Z M 20.176 26.224 L 16.003 27.849 L 17.349 29.943 L 20.154 28.307 Z" fill="currentColor" opacity="0.4"/>
  <path d="M 11.62 18.32 L 13.487 17.86 L 14.407 16.633 L 12.249 12.508 L 9.522 13.741 L 11.62 18.321 Z" fill="currentColor"/>
  <path d="M 8.011 0 C 5.886 0 3.848 0.844 2.346 2.346 C 0.844 3.848 0 5.886 0 8.011 C -0.001 10.136 0.843 12.174 2.346 13.677 C 3.848 15.179 5.886 16.023 8.011 16.023 C 12.436 16.023 16.023 12.436 16.023 8.012 C 16.023 3.587 12.436 0 8.011 0 Z M 8.468 13.458 C 5.705 13.458 2.632 10.774 2.632 8.011 C 2.632 5.248 5.513 2.666 8.276 2.666 C 11.039 2.666 13.015 5.248 13.015 8.011 C 13.015 10.774 11.232 13.458 8.469 13.458 Z" fill="currentColor"/>
  <path d="M 6.186 12.215 C 4.495 11.275 3.38 8.858 4.164 7.445 C 4.948 6.034 6.232 8.265 7.922 9.205 C 9.612 10.145 11.298 9.565 10.515 10.976 C 9.731 12.388 7.875 13.154 6.185 12.215 Z" fill="currentColor" opacity="0.4"/>
</svg>
