<svg xmlns="http://www.w3.org/2000/svg" viewBox="-0.5 -0.5 35 31.5" fill="none">
  <path d="M 4.267 18.371 C 4.771 18.005 5.5 18.016 6.304 18.336 C 6.287 18.107 6.277 17.878 6.276 17.649 C 6.276 11.114 10.876 7.002 16.546 7.002 C 22.216 7.002 26.816 11.118 26.816 17.649 C 26.816 17.877 26.805 18.109 26.789 18.336 C 27.593 18.02 28.322 18.005 28.825 18.371 C 29.975 19.209 29.507 21.706 27.783 23.953 C 26.979 25.003 25.521 25.277 24.078 25.185 C 21.773 28.393 18.543 30.663 16.546 30.663 C 14.549 30.663 11.32 28.393 9.014 25.185 C 7.572 25.277 6.114 25.003 5.309 23.953 C 3.586 21.706 3.119 19.209 4.267 18.371 Z M 16.567 25.671 C 18.678 25.671 20.211 22.363 20.211 22.363 C 20.211 22.363 16.82 21.367 12.631 22.135 C 12.631 22.135 14.454 25.667 16.566 25.667 L 16.566 25.671 Z" fill="currentColor"/>
  <path d="M 7.679 3.575 L 5.674 0 L 3.669 3.575 L 0 5.528 L 3.669 7.481 L 5.674 11.056 L 7.679 7.481 L 11.348 5.528 L 7.678 3.575 Z M 31.595 10.176 L 30.279 7.833 L 28.96 10.176 L 26.555 11.457 L 28.96 12.743 L 30.28 15.086 L 31.595 12.743 L 34 11.457 Z" fill="currentColor" opacity="0.4"/>
</svg>
