<?xml version="1.0" encoding="UTF-8"?>
<svg id="Layer_2" data-name="Layer 2" xmlns="http://www.w3.org/2000/svg" viewBox="0 0 1437.19 48.76">
  <defs>
    <style>
      .cls-1 {
        fill: #f82525;
      }
    </style>
  </defs>
  <g id="Layer_1-2" data-name="Layer 1">
    <path class="cls-1" d="M0,0v48.66c.47-.06,1.88-.24,2.81-.35.94-.12,1.88-.29,2.81-.35.94-.06,1.88.06,2.81,0,.94-.06,1.87-.23,2.81-.35.94-.12,1.88-.47,2.81-.35.94.12,1.88.82,2.81,1.06.94.23,1.88.29,2.81.35.94.06,1.87.18,2.81,0,.94-.18,1.88-.71,2.81-1.06.94-.35,1.88-.76,2.81-1.06s1.88-.47,2.81-.71c.94-.24,1.87-.41,2.81-.71s1.88-.88,2.81-1.06c.94-.18,1.88.12,2.81,0,.94-.12,1.88-.47,2.81-.71.94-.23,1.87-.29,2.81-.71.94-.41,1.88-1.29,2.81-1.76.94-.47,1.88-1.35,2.81-1.06.94.29,1.88,2.82,2.81,2.82s1.87-2.12,2.81-2.82c.94-.71,1.88-1,2.81-1.41.94-.41,1.88-.94,2.81-1.06.94-.12,1.88.06,2.81.35.94.29,1.87,1,2.81,1.41.94.41,1.88.88,2.81,1.06.94.18,1.88.12,2.81,0,.94-.12,1.88-.59,2.81-.71.94-.12,1.87,0,2.81,0h2.81c.94,0,1.88.29,2.81,0s1.88-1.35,2.81-1.76c.94-.41,1.87-.35,2.81-.71.94-.35,1.88-.94,2.81-1.41.94-.47,1.88-.88,2.81-1.41s1.88-1.41,2.81-1.76c.94-.35,1.87,0,2.81-.35.94-.35,1.88-1.35,2.81-1.76.94-.41,1.88-.7,2.81-.7s1.88.53,2.81.7c.94.18,1.87.06,2.81.35s1.88,1,2.81,1.41c.94.41,1.88.82,2.81,1.06s1.88.41,2.81.35c.94-.06,1.87-.59,2.81-.7.94-.12,1.88.12,2.81,0,.94-.12,1.88-.53,2.81-.71.94-.18,1.88-.23,2.81-.35.94-.12,1.87-.41,2.81-.35.94.06,1.88.53,2.81.7.94.18,1.88.24,2.81.35.94.12,1.88.35,2.81.35s1.87-.29,2.81-.35,1.88.12,2.81,0c.94-.12,1.88-.59,2.81-.71.94-.12,1.88-.12,2.81,0,.94.12,1.87.59,2.81.71.94.12,1.88-.18,2.81,0,.94.18,1.88.82,2.81,1.06.94.24,1.88.18,2.81.35.94.18,1.87.53,2.81.71.94.18,1.88.65,2.81.35.94-.29,1.88-1.53,2.81-2.11.94-.59,1.88-1,2.81-1.41.94-.41,1.87-.47,2.81-1.06.94-.59,1.88-1.7,2.81-2.47.94-.77,1.88-1.53,2.81-2.12.94-.59,1.88-1.06,2.81-1.41.94-.35,1.87-.29,2.81-.7.94-.41,1.88-1.29,2.81-1.76.94-.47,1.88-.65,2.81-1.06.94-.41,1.88-.94,2.81-1.41.94-.47,1.87-1.23,2.81-1.41.94-.18,1.88.12,2.81.35.94.24,1.88.76,2.81,1.06s1.88.41,2.81.7c.94.29,1.87.94,2.81,1.06.94.12,1.88-.24,2.81-.35.94-.12,1.88-.29,2.81-.35s1.88-.12,2.81,0c.94.12,1.87.41,2.81.71.94.29,1.88.82,2.81,1.06.94.23,1.88.12,2.81.35.94.24,1.88.82,2.81,1.06.94.23,1.87.35,2.81.35s1.88-.23,2.81-.35c.94-.12,1.88-.41,2.81-.35s1.88.53,2.81.71c.94.18,1.87.29,2.81.35.94.06,1.88-.23,2.81,0,.94.24,1.88,1.18,2.81,1.41s1.88.12,2.81,0c.94-.12,1.87-.53,2.81-.71.94-.18,1.88-.29,2.81-.35.94-.06,1.88,0,2.81,0h2.81c.94,0,1.87.06,2.81,0s1.88-.23,2.81-.35c.94-.12,1.88-.18,2.81-.35.94-.18,1.88-.59,2.81-.71.94-.12,1.87-.12,2.81,0,.94.12,1.88.76,2.81.71.94-.06,1.88-1.06,2.81-1.06s1.88.76,2.81,1.06c.94.29,1.87.41,2.81.71s1.88.88,2.81,1.06c.94.18,1.88.12,2.81,0,.94-.12,1.88-.65,2.81-.71.94-.06,1.87.35,2.81.35s1.88-.29,2.81-.35c.94-.06,1.88.12,2.81,0,.94-.12,1.88-.41,2.81-.71.94-.29,1.87-1.12,2.81-1.06s1.88,1.29,2.81,1.41c.94.12,1.88-.59,2.81-.71.94-.12,1.88.12,2.81,0,.94-.12,1.87-.53,2.81-.71.94-.18,1.88-.59,2.81-.35.94.23,1.88,1.65,2.81,1.76.94.12,1.88-.76,2.81-1.06.94-.29,1.87-.76,2.81-.71.94.06,1.88.76,2.81,1.06.94.29,1.88.71,2.81.71s1.88-.71,2.81-.71,1.87.41,2.81.71,1.88.76,2.81,1.06c.94.29,1.88.35,2.81.71s1.88,1.17,2.81,1.41c.94.23,1.87-.06,2.81,0,.94.06,1.88.35,2.81.35s1.88-.35,2.81-.35,1.88.35,2.81.35,1.87-.35,2.81-.35,1.88.35,2.81.35,1.88-.47,2.81-.35c.94.12,1.88.94,2.81,1.06.94.12,1.87-.29,2.81-.35.94-.06,1.88-.18,2.81,0,.94.18,1.88,1.41,2.81,1.06.94-.35,1.88-2.47,2.81-3.17.94-.71,1.87-.47,2.81-1.06.94-.59,1.88-1.88,2.81-2.47.94-.59,1.88-1,2.81-1.06.94-.06,1.88.41,2.81.7.94.29,1.87.82,2.81,1.06.94.23,1.88.23,2.81.35.94.12,1.88.29,2.81.35.94.06,1.88.06,2.81,0,.94-.06,1.87-.59,2.81-.35.94.24,1.88.77,2.81,1.76.94,1,1.88,3.76,2.81,4.23.94.47,1.88-1.12,2.81-1.41.94-.29,1.87-.29,2.81-.35s1.88-.06,2.81,0c.94.06,1.88.12,2.81.35.94.23,1.88.76,2.81,1.06.94.29,1.87.59,2.81.7.94.12,1.88-.35,2.81,0,.94.35,1.88,1.29,2.81,2.12s1.88,1.65,2.81,2.82c.94,1.18,1.87,3.23,2.81,4.23.94,1,1.88,2.53,2.81,1.76.94-.76,1.88-5,2.81-6.35.94-1.35,1.88-1.35,2.81-1.76.94-.41,1.87-.29,2.81-.71s1.88-1.41,2.81-1.76c.94-.35,1.88-.18,2.81-.35.94-.18,1.88-.53,2.81-.7.94-.18,1.87-.06,2.81-.35s1.88-1.23,2.81-1.41c.94-.18,1.88.18,2.81.35.94.18,1.88.82,2.81.71.94-.12,1.87-1.23,2.81-1.41.94-.18,1.88,0,2.81.35.94.35,1.88,1.41,2.81,1.76.94.35,1.88.23,2.81.35.94.12,1.87.29,2.81.35.94.06,1.88-.06,2.81,0,.94.06,1.88.24,2.81.35.94.12,1.88.23,2.81.35.94.12,1.87.41,2.81.35.94-.06,1.88-.53,2.81-.71.94-.18,1.88-.35,2.81-.35s1.88.24,2.81.35c.94.12,1.87.29,2.81.35.94.06,1.88-.06,2.81,0,.94.06,1.88.29,2.81.35.94.06,1.88.12,2.81,0,.94-.12,1.87-.53,2.81-.71.94-.18,1.88-.29,2.81-.35.94-.06,1.88.06,2.81,0,.94-.06,1.88-.23,2.81-.35.94-.12,1.87-.12,2.81-.35s1.88-.88,2.81-1.06c.94-.18,1.88-.12,2.81,0,.94.12,1.88.65,2.81.7.94.06,1.87-.12,2.81-.35.94-.24,1.88-.59,2.81-1.06.94-.47,1.88-1.23,2.81-1.76.94-.53,1.88-1.17,2.81-1.41.94-.23,1.87.06,2.81,0s1.88-.12,2.81-.35c.94-.23,1.88-.82,2.81-1.06s1.88-.18,2.81-.35c.94-.18,1.87-.53,2.81-.71.94-.18,1.88-.18,2.81-.35.94-.18,1.88-.53,2.81-.71.94-.18,1.88-.12,2.81-.35.94-.23,1.87-.76,2.81-1.06s1.88-.53,2.81-.71c.94-.18,1.88-.29,2.81-.35s1.88.12,2.81,0c.94-.12,1.87-.59,2.81-.71.94-.12,1.88.18,2.81,0,.94-.18,1.88-.76,2.81-1.06.94-.29,1.88-.53,2.81-.71.94-.18,1.87-.35,2.81-.35s1.88.12,2.81.35c.94.23,1.88.76,2.81,1.06s1.88.65,2.81.71c.94.06,1.87-.35,2.81-.35s1.88.41,2.81.35c.94-.06,1.88-.65,2.81-.71s1.88.12,2.81.35c.94.23,1.87.94,2.81,1.06.94.12,1.88-.41,2.81-.35.94.06,1.88.24,2.81.71.94.47,1.88,1.76,2.81,2.12.94.35,1.87.06,2.81,0,.94-.06,1.88-.41,2.81-.35.94.06,1.88.41,2.81.71s1.88.82,2.81,1.06c.94.24,1.87.12,2.81.35.94.23,1.88.88,2.81,1.06.94.18,1.88,0,2.81,0s1.88-.06,2.81,0c.94.06,1.87,0,2.81.35.94.35,1.88,1.35,2.81,1.76.94.41,1.88.65,2.81.71.94.06,1.88.23,2.81-.35.94-.59,1.87-2.35,2.81-3.17s1.88-1.29,2.81-1.76c.94-.47,1.88-.76,2.81-1.06s1.88-.41,2.81-.71c.94-.29,1.87-.76,2.81-1.06s1.88-.59,2.81-.71c.94-.12,1.88,0,2.81,0s1.88-.06,2.81,0c.94.06,1.87.24,2.81.35.94.12,1.88.41,2.81.35.94-.06,1.88-.76,2.81-.71.94.06,1.88.71,2.81,1.06.94.35,1.87.59,2.81,1.06.94.47,1.88,1.41,2.81,1.76.94.35,1.88.12,2.81.35s1.88.71,2.81,1.06c.94.35,1.87.76,2.81,1.06.94.29,1.88.47,2.81.71.94.23,1.88.59,2.81.71.94.12,1.88-.06,2.81,0,.94.06,1.87.23,2.81.35.94.12,1.88.35,2.81.35s1.88-.41,2.81-.35c.94.06,1.88.41,2.81.71.94.29,1.87.82,2.81,1.06.94.23,1.88.23,2.81.35.94.12,1.88.18,2.81.35.94.18,1.88.7,2.81.7s1.87-.59,2.81-.7c.94-.12,1.88,0,2.81,0s1.88-.12,2.81,0c.94.12,1.88.59,2.81.7.94.12,1.87.06,2.81,0,.94-.06,1.88-.23,2.81-.35.94-.12,1.88-.24,2.81-.35.94-.12,1.88-.24,2.81-.35.94-.12,1.87-.29,2.81-.35.94-.06,1.88.06,2.81,0,.94-.06,1.88-.29,2.81-.35.94-.06,1.88.12,2.81,0,.94-.12,1.87-.59,2.81-.7.94-.12,1.88.06,2.81,0,.94-.06,1.88-.24,2.81-.35s1.88-.29,2.81-.35c.94-.06,1.87.24,2.81,0,.94-.23,1.88-1.06,2.81-1.41.94-.35,1.88-.53,2.81-.71.94-.18,1.88-.29,2.81-.35.94-.06,1.87.06,2.81,0,.94-.06,1.88-.24,2.81-.35.94-.12,1.88-.35,2.81-.35s1.88.35,2.81.35,1.87-.35,2.81-.35,1.88.18,2.81.35c.94.18,1.88.71,2.81.71s1.88-.59,2.81-.71c.94-.12,1.87-.12,2.81,0,.94.12,1.88.53,2.81.71.94.18,1.88.35,2.81.35s1.88-.41,2.81-.35c.94.06,1.87.59,2.81.71.94.12,1.88.41,2.81,0,.94-.41,1.88-1.71,2.81-2.47.94-.76,1.88-1.53,2.81-2.12.94-.59,1.87-.94,2.81-1.41.94-.47,1.88-.94,2.81-1.41.94-.47,1.88-1.29,2.81-1.41.94-.12,1.88.65,2.81.7.94.06,1.87-.53,2.81-.35.94.18,1.88,1.18,2.81,1.41.94.23,1.88-.24,2.81,0,.94.23,1.88,1,2.81,1.41.94.41,1.87.71,2.81,1.06.94.35,1.88.82,2.81,1.06.94.23,1.88.18,2.81.35.94.18,1.88.59,2.81.71.94.12,1.87.06,2.81,0s1.88-.35,2.81-.35,1.88.23,2.81.35c.94.12,1.88.23,2.81.35.94.12,1.87.24,2.81.35.94.12,1.88,0,2.81.35.94.35,1.88,1.71,2.81,1.76.94.06,1.88-1.12,2.81-1.41.94-.29,1.87-.29,2.81-.35s1.88-.06,2.81,0c.94.06,1.88.41,2.81.35.94-.06,1.88-.71,2.81-.71s1.87.82,2.81.71c.94-.12,1.88-1.18,2.81-1.41.94-.23,1.88.12,2.81,0,.94-.12,1.88-.71,2.81-.71s1.87.59,2.81.71c.94.12,1.88,0,2.81,0s1.88-.18,2.81,0c.94.18,1.88.76,2.81,1.06.94.29,1.87.47,2.81.71.94.24,1.88.77,2.81.71.94-.06,1.88-.94,2.81-1.06.94-.12,1.88.29,2.81.35.94.06,1.87.12,2.81,0,.94-.12,1.88-.59,2.81-.71.94-.12,1.88.23,2.81,0s1.88-1.29,2.81-1.41c.94-.12,1.87.59,2.81.7.94.12,1.88,0,2.81,0s1.88.06,2.81,0c.94-.06,1.88-.18,2.81-.35.94-.18,1.87-.76,2.81-.71s1.88.82,2.81,1.06c.94.24,1.88.53,2.81.35.94-.18,1.88-1.29,2.81-1.41.94-.12,1.87.41,2.81.71s1.88,1,2.81,1.06c.94.06,1.88-.59,2.81-.71.94-.12,1.88-.23,2.81,0,.94.24,1.87,1.18,2.81,1.41.94.24,1.88-.29,2.81,0,.94.29,1.88,1.35,2.81,1.76.94.41,1.88.53,2.81.71.94.18,1.87.29,2.81.35.94.06,1.88,0,2.81,0h2.81c.94,0,1.88-.06,2.81,0,.94.06,1.87.41,2.81.35.94-.06,1.88-.65,2.81-.71.94-.06,1.88.18,2.81.35.94.18,1.88.65,2.81.7.94.06,1.87-.35,2.81-.35s1.88.53,2.81.35c.94-.18,1.88-.88,2.81-1.41.94-.53,1.88-1.12,2.81-1.76.94-.65,1.87-1.47,2.81-2.12.94-.65,1.88-1.53,2.81-1.76.94-.23,1.88.18,2.81.35.94.18,1.88.47,2.81.71.94.23,1.87.41,2.81.71s1.88.82,2.81,1.06c.94.23,1.88.41,2.81.35.94-.06,1.88-.65,2.81-.71.94-.06,1.87-.12,2.81.35.94.47,1.88,1.71,2.81,2.47.94.76,1.88,1.88,2.81,2.12.94.23,1.88-.41,2.81-.71.94-.29,1.87-.88,2.81-1.06.94-.18,1.88,0,2.81,0s1.88-.06,2.81,0c.94.06,1.88.29,2.81.35.94.06,1.87-.18,2.81,0s1.88.71,2.81,1.06c.94.35,1.88.71,2.81,1.06.94.35,1.88.65,2.81,1.06.94.41,1.87,1.06,2.81,1.41.94.35,1.88.35,2.81.71.94.35,1.88,1.12,2.81,1.41s1.88.18,2.81.35c.94.18,1.87.59,2.81.71.94.12,1.88-.06,2.81,0,.94.06,1.88.23,2.81.35.94.12,1.88.29,2.81.35.94.06,1.87-.23,2.81,0,.94.24,1.88,1.18,2.81,1.41.94.23,1.88-.06,2.81,0,.94.06,1.88.18,2.81.35.94.18,1.87.71,2.81.71s1.88-.53,2.81-.71c.94-.18,1.88-.41,2.81-.35.94.06,1.88.53,2.81.7.94.18,1.87.35,2.81.35s1.88-.23,2.81-.35c.94-.12,1.88-.23,2.81-.35.94-.12,1.88-.29,2.81-.35.94-.06,1.87.12,2.81,0,.94-.12,1.88-.65,2.81-.71.94-.06,1.88.47,2.81.35.94-.12,1.88-.94,2.81-1.06.94-.12,1.87.41,2.81.35.94-.06,1.88-.53,2.81-.7.94-.18,1.88-.18,2.81-.35s1.88-.47,2.81-.71c.94-.23,1.87-.53,2.81-.7.94-.18,1.88-.29,2.81-.35.94-.06,1.88.06,2.81,0s1.88-.35,2.81-.35,1.87.41,2.81.35,1.88-.65,2.81-.71c.94-.06,1.88.24,2.81.35.94.12,1.88.35,2.81.35s1.87-.41,2.81-.35c.94.06,1.88.53,2.81.71.94.18,1.88.35,2.81.35s1.88-.41,2.81-.35c.94.06,1.87.59,2.81.7.94.12,1.88.53,2.81,0,.94-.53,1.88-2.35,2.81-3.17.94-.82,1.88-1.65,2.81-1.76.94-.12,1.87.88,2.81,1.06.94.18,1.88.18,2.81,0,.94-.18,1.88-.76,2.81-1.06.94-.29,1.88-.47,2.81-.71.94-.24,1.87-.41,2.81-.71s1.88-.65,2.81-1.06c.94-.41,1.88-1.17,2.81-1.41s1.88.06,2.81,0c.94-.06,1.87-.29,2.81-.35.94-.06,1.88,0,2.81,0s1.88-.12,2.81,0c.94.12,1.88.71,2.81.71s1.87-.65,2.81-.71c.94-.06,1.88.35,2.81.35s1.88-.29,2.81-.35c.94-.06,1.88,0,2.81,0s1.87-.06,2.81,0c.94.06,1.88.24,2.81.35.94.12,1.88.12,2.81.35s1.88.82,2.81,1.06c.94.24,1.87.35,2.81.35s1.88-.18,2.81-.35c.94-.18,1.88-.76,2.81-.7.94.06,1.88.94,2.81,1.06.94.12,1.87-.23,2.81-.35.94-.12,1.88-.29,2.81-.35.94-.06,1.88.06,2.81,0,.94-.06,1.88-.53,2.81-.35.94.18,1.87,1.18,2.81,1.41.94.23,1.88.23,2.81,0,.94-.24,1.88-1.06,2.81-1.41.94-.35,1.88-.71,2.81-.71s1.87.35,2.81.71c.94.35,1.88,1.06,2.81,1.41.94.35,1.88.47,2.81.7s1.88.65,2.81.71c.94.06,1.87-.12,2.81-.35.94-.24,1.88-.82,2.81-1.06.94-.24,1.88-.53,2.81-.35s1.88,1.35,2.81,1.41c.94.06,1.87-.94,2.81-1.06.94-.12,1.88.12,2.81.35.94.23,1.88,1.23,2.81,1.06.94-.18,1.88-1.7,2.81-2.12.94-.41,1.87-.35,2.81-.35s1.88.41,2.81.35c.94-.06,1.88-.7,2.81-.7s1.88.65,2.81.7c.94.06,1.87-.18,2.81-.35.94-.18,1.88-.35,2.81-.71.94-.35,1.88-1.17,2.81-1.41.94-.24,1.88,0,2.81,0h5.62c.94,0,1.88.18,2.81,0,.94-.18,1.88-1.06,2.81-1.06s1.87,1.12,2.81,1.06c.94-.06,1.88-1.23,2.81-1.41.94-.18,1.88.59,2.81.35.94-.23,1.88-1.12,2.81-1.76.94-.65,1.87-1.29,2.81-2.12s1.88-1.94,2.81-2.82c.94-.88,1.88-2.23,2.81-2.47.94-.24,1.88.94,2.81,1.06.94.12,1.87-.29,2.81-.35.94-.06,1.88-.12,2.81,0,.94.12,1.88.41,2.81.71s1.88.53,2.81,1.06c.94.53,1.87,2.06,2.81,2.11.94.06,1.88-1.23,2.81-1.76.94-.53,1.88-1,2.81-1.41.94-.41,1.88-.76,2.81-1.06.94-.29,1.87-.47,2.81-.71.94-.23,1.88-.47,2.81-.71.94-.23,1.88-.65,2.81-.7.94-.06,2.34.29,2.81.35V0H0Z"/>
  </g>
</svg>