<?xml version="1.0" encoding="UTF-8"?>
<svg width="1440" height="140" viewBox="0 0 1440 140" 
     fill="none" xmlns="http://www.w3.org/2000/svg">
  <path d="M 0.000,43.023 C 0.469,43.081 1.875,43.375 2.812,43.375 C 3.750,43.375 4.688,43.081 5.625,43.023 C 6.562,42.964 7.500,43.140 8.438,43.023 C 9.375,42.905 10.312,42.435 11.250,42.317 C 12.188,42.200 13.125,42.552 14.062,42.317 C 15.000,42.082 15.938,41.318 16.875,40.907 C 17.812,40.495 18.750,40.260 19.688,39.849 C 20.625,39.437 21.562,38.850 22.500,38.438 C 23.438,38.027 24.375,37.263 25.312,37.380 C 26.250,37.498 27.188,38.673 28.125,39.144 C 29.062,39.614 30.000,39.908 30.938,40.202 C 31.875,40.495 32.812,40.789 33.750,40.907 C 34.688,41.024 35.625,40.907 36.562,40.907 C 37.500,40.907 38.438,40.848 39.375,40.907 C 40.312,40.966 41.250,41.612 42.188,41.259 C 43.125,40.907 44.062,39.673 45.000,38.791 C 45.938,37.909 46.875,36.793 47.812,35.970 C 48.750,35.147 49.688,34.442 50.625,33.854 C 51.562,33.266 52.500,32.678 53.438,32.443 C 54.375,32.208 55.312,32.620 56.250,32.443 C 57.188,32.267 58.125,31.444 59.062,31.385 C 60.000,31.327 60.938,32.091 61.875,32.091 C 62.812,32.091 63.750,31.503 64.688,31.385 C 65.625,31.268 66.562,31.444 67.500,31.385 C 68.438,31.327 69.375,31.033 70.312,31.033 C 71.250,31.033 72.188,31.327 73.125,31.385 C 74.062,31.444 75.000,31.620 75.938,31.385 C 76.875,31.150 77.812,30.327 78.750,29.975 C 79.688,29.622 80.625,29.387 81.562,29.270 C 82.500,29.152 83.438,29.270 84.375,29.270 C 85.312,29.270 86.250,29.270 87.188,29.270 C 88.125,29.270 89.062,29.328 90.000,29.270 C 90.938,29.211 91.875,28.976 92.812,28.917 C 93.750,28.858 94.688,29.270 95.625,28.917 C 96.562,28.564 97.500,26.977 98.438,26.801 C 99.375,26.625 100.312,27.624 101.250,27.859 C 102.188,28.094 103.125,28.270 104.062,28.212 C 105.000,28.153 105.938,27.448 106.875,27.506 C 107.812,27.565 108.750,28.505 109.688,28.564 C 110.625,28.623 111.562,28.153 112.500,27.859 C 113.438,27.565 114.375,26.919 115.312,26.801 C 116.250,26.683 117.188,27.036 118.125,27.154 C 119.062,27.271 120.000,27.330 120.938,27.506 C 121.875,27.683 122.812,27.859 123.750,28.212 C 124.688,28.564 125.625,29.270 126.562,29.622 C 127.500,29.975 128.438,30.386 129.375,30.327 C 130.312,30.269 131.250,29.681 132.188,29.270 C 133.125,28.858 134.062,28.035 135.000,27.859 C 135.938,27.683 136.875,27.918 137.812,28.212 C 138.750,28.505 139.688,29.446 140.625,29.622 C 141.562,29.798 142.500,29.328 143.438,29.270 C 144.375,29.211 145.312,29.328 146.250,29.270 C 147.188,29.211 148.125,29.034 149.062,28.917 C 150.000,28.799 150.938,28.505 151.875,28.564 C 152.812,28.623 153.750,29.270 154.688,29.270 C 155.625,29.270 156.562,28.682 157.500,28.564 C 158.438,28.447 159.375,28.505 160.312,28.564 C 161.250,28.623 162.188,28.682 163.125,28.917 C 164.062,29.152 165.000,29.681 165.938,29.975 C 166.875,30.269 167.812,30.563 168.750,30.680 C 169.688,30.798 170.625,30.739 171.562,30.680 C 172.500,30.621 173.438,30.327 174.375,30.327 C 175.312,30.327 176.250,30.680 177.188,30.680 C 178.125,30.680 179.062,30.386 180.000,30.327 C 180.938,30.269 181.875,30.386 182.812,30.327 C 183.750,30.269 184.688,29.916 185.625,29.975 C 186.562,30.034 187.500,30.621 188.438,30.680 C 189.375,30.739 190.312,30.327 191.250,30.327 C 192.188,30.327 193.125,30.680 194.062,30.680 C 195.000,30.680 195.938,30.386 196.875,30.327 C 197.812,30.269 198.750,30.563 199.688,30.327 C 200.625,30.092 201.562,29.328 202.500,28.917 C 203.438,28.505 204.375,28.212 205.312,27.859 C 206.250,27.506 207.188,27.095 208.125,26.801 C 209.062,26.507 210.000,26.331 210.938,26.096 C 211.875,25.861 212.812,25.155 213.750,25.390 C 214.688,25.626 215.625,27.330 216.562,27.506 C 217.500,27.683 218.438,26.977 219.375,26.448 C 220.312,25.919 221.250,25.155 222.188,24.332 C 223.125,23.510 224.062,21.982 225.000,21.511 C 225.938,21.041 226.875,21.394 227.812,21.511 C 228.750,21.629 229.688,22.099 230.625,22.217 C 231.562,22.334 232.500,22.158 233.438,22.217 C 234.375,22.275 235.312,22.452 236.250,22.569 C 237.188,22.687 238.125,22.981 239.062,22.922 C 240.000,22.863 240.938,22.217 241.875,22.217 C 242.812,22.217 243.750,22.746 244.688,22.922 C 245.625,23.098 246.562,23.275 247.500,23.275 C 248.438,23.275 249.375,23.039 250.312,22.922 C 251.250,22.804 252.188,22.628 253.125,22.569 C 254.062,22.510 255.000,22.569 255.938,22.569 C 256.875,22.569 257.812,22.628 258.750,22.569 C 259.688,22.510 260.625,22.393 261.562,22.217 C 262.500,22.040 263.438,21.746 264.375,21.511 C 265.312,21.276 266.250,20.982 267.188,20.806 C 268.125,20.630 269.062,20.688 270.000,20.453 C 270.938,20.218 271.875,19.454 272.812,19.395 C 273.750,19.337 274.688,20.160 275.625,20.101 C 276.562,20.042 277.500,19.160 278.438,19.043 C 279.375,18.925 280.312,19.454 281.250,19.395 C 282.188,19.337 283.125,18.808 284.062,18.690 C 285.000,18.573 285.938,18.749 286.875,18.690 C 287.812,18.631 288.750,18.396 289.688,18.338 C 290.625,18.279 291.562,18.455 292.500,18.338 C 293.438,18.220 294.375,17.632 295.312,17.632 C 296.250,17.632 297.188,18.161 298.125,18.338 C 299.062,18.514 300.000,18.690 300.938,18.690 C 301.875,18.690 302.812,18.514 303.750,18.338 C 304.688,18.161 305.625,17.632 306.562,17.632 C 307.500,17.632 308.438,18.161 309.375,18.338 C 310.312,18.514 311.250,18.573 312.188,18.690 C 313.125,18.808 314.062,18.808 315.000,19.043 C 315.938,19.278 316.875,19.924 317.812,20.101 C 318.750,20.277 319.688,20.042 320.625,20.101 C 321.562,20.160 322.500,20.336 323.438,20.453 C 324.375,20.571 325.312,20.688 326.250,20.806 C 327.188,20.924 328.125,21.041 329.062,21.159 C 330.000,21.276 330.938,21.335 331.875,21.511 C 332.812,21.688 333.750,21.923 334.688,22.217 C 335.625,22.510 336.562,22.981 337.500,23.275 C 338.438,23.568 339.375,23.627 340.312,23.980 C 341.250,24.332 342.188,24.979 343.125,25.390 C 344.062,25.802 345.000,26.037 345.938,26.448 C 346.875,26.860 347.812,27.506 348.750,27.859 C 349.688,28.212 350.625,28.447 351.562,28.564 C 352.500,28.682 353.438,28.505 354.375,28.564 C 355.312,28.623 356.250,28.858 357.188,28.917 C 358.125,28.976 359.062,28.917 360.000,28.917 C 360.938,28.917 361.875,29.093 362.812,28.917 C 363.750,28.741 364.688,28.212 365.625,27.859 C 366.562,27.506 367.500,26.507 368.438,26.801 C 369.375,27.095 370.312,28.799 371.250,29.622 C 372.188,30.445 373.125,31.327 374.062,31.738 C 375.000,32.149 375.938,32.149 376.875,32.091 C 377.812,32.032 378.750,31.444 379.688,31.385 C 380.625,31.327 381.562,31.503 382.500,31.738 C 383.438,31.973 384.375,32.502 385.312,32.796 C 386.250,33.090 387.188,33.266 388.125,33.501 C 389.062,33.736 390.000,34.089 390.938,34.207 C 391.875,34.324 392.812,34.500 393.750,34.207 C 394.688,33.913 395.625,33.031 396.562,32.443 C 397.500,31.856 398.438,31.385 399.375,30.680 C 400.312,29.975 401.250,28.682 402.188,28.212 C 403.125,27.741 404.062,27.976 405.000,27.859 C 405.938,27.741 406.875,27.565 407.812,27.506 C 408.750,27.448 409.688,27.389 410.625,27.506 C 411.562,27.624 412.500,27.976 413.438,28.212 C 414.375,28.447 415.312,28.917 416.250,28.917 C 417.188,28.917 418.125,28.329 419.062,28.212 C 420.000,28.094 420.938,28.212 421.875,28.212 C 422.812,28.212 423.750,28.212 424.688,28.212 C 425.625,28.212 426.562,28.212 427.500,28.212 C 428.438,28.212 429.375,28.212 430.312,28.212 C 431.250,28.212 432.188,27.976 433.125,28.212 C 434.062,28.447 435.000,29.152 435.938,29.622 C 436.875,30.092 437.812,30.798 438.750,31.033 C 439.688,31.268 440.625,30.798 441.562,31.033 C 442.500,31.268 443.438,32.267 444.375,32.443 C 445.312,32.620 446.250,32.208 447.188,32.091 C 448.125,31.973 449.062,31.620 450.000,31.738 C 450.938,31.856 451.875,32.502 452.812,32.796 C 453.750,33.090 454.688,33.619 455.625,33.501 C 456.562,33.384 457.500,32.267 458.438,32.091 C 459.375,31.914 460.312,32.208 461.250,32.443 C 462.188,32.678 463.125,33.442 464.062,33.501 C 465.000,33.560 465.938,32.914 466.875,32.796 C 467.812,32.678 468.750,32.855 469.688,32.796 C 470.625,32.737 471.562,32.502 472.500,32.443 C 473.438,32.385 474.375,32.385 475.312,32.443 C 476.250,32.502 477.188,32.914 478.125,32.796 C 479.062,32.678 480.000,31.973 480.938,31.738 C 481.875,31.503 482.812,31.503 483.750,31.385 C 484.688,31.268 485.625,31.092 486.562,31.033 C 487.500,30.974 488.438,31.033 489.375,31.033 C 490.312,31.033 491.250,31.150 492.188,31.033 C 493.125,30.915 494.062,30.327 495.000,30.327 C 495.938,30.327 496.875,30.739 497.812,31.033 C 498.750,31.327 499.688,31.738 500.625,32.091 C 501.562,32.443 502.500,33.090 503.438,33.149 C 504.375,33.207 505.312,32.443 506.250,32.443 C 507.188,32.443 508.125,32.972 509.062,33.149 C 510.000,33.325 510.938,33.560 511.875,33.501 C 512.812,33.442 513.750,32.972 514.688,32.796 C 515.625,32.620 516.562,32.678 517.500,32.443 C 518.438,32.208 519.375,31.444 520.312,31.385 C 521.250,31.327 522.188,32.091 523.125,32.091 C 524.062,32.091 525.000,31.444 525.938,31.385 C 526.875,31.327 527.812,31.679 528.750,31.738 C 529.688,31.797 530.625,31.856 531.562,31.738 C 532.500,31.620 533.438,31.327 534.375,31.033 C 535.312,30.739 536.250,29.798 537.188,29.975 C 538.125,30.151 539.062,31.738 540.000,32.091 C 540.938,32.443 541.875,32.032 542.812,32.091 C 543.750,32.149 544.688,32.326 545.625,32.443 C 546.562,32.561 547.500,32.737 548.438,32.796 C 549.375,32.855 550.312,32.796 551.250,32.796 C 552.188,32.796 553.125,32.796 554.062,32.796 C 555.000,32.796 555.938,32.678 556.875,32.796 C 557.812,32.914 558.750,33.325 559.688,33.501 C 560.625,33.678 561.562,33.619 562.500,33.854 C 563.438,34.089 564.375,34.500 565.312,34.912 C 566.250,35.323 567.188,35.911 568.125,36.322 C 569.062,36.734 570.000,37.086 570.938,37.380 C 571.875,37.674 572.812,37.909 573.750,38.086 C 574.688,38.262 575.625,38.380 576.562,38.438 C 577.500,38.497 578.438,38.321 579.375,38.438 C 580.312,38.556 581.250,39.320 582.188,39.144 C 583.125,38.967 584.062,37.909 585.000,37.380 C 585.938,36.851 586.875,36.381 587.812,35.970 C 588.750,35.558 589.688,35.500 590.625,34.912 C 591.562,34.324 592.500,33.207 593.438,32.443 C 594.375,31.679 595.312,30.680 596.250,30.327 C 597.188,29.975 598.125,30.210 599.062,30.327 C 600.000,30.445 600.938,30.974 601.875,31.033 C 602.812,31.092 603.750,30.680 604.688,30.680 C 605.625,30.680 606.562,30.856 607.500,31.033 C 608.438,31.209 609.375,31.620 610.312,31.738 C 611.250,31.856 612.188,31.797 613.125,31.738 C 614.062,31.679 615.000,31.385 615.938,31.385 C 616.875,31.385 617.812,31.620 618.750,31.738 C 619.688,31.856 620.625,32.149 621.562,32.091 C 622.500,32.032 623.438,31.444 624.375,31.385 C 625.312,31.327 626.250,31.738 627.188,31.738 C 628.125,31.738 629.062,31.444 630.000,31.385 C 630.938,31.327 631.875,31.385 632.812,31.385 C 633.750,31.385 634.688,31.444 635.625,31.385 C 636.562,31.327 637.500,31.209 638.438,31.033 C 639.375,30.856 640.312,30.621 641.250,30.327 C 642.188,30.034 643.125,29.563 644.062,29.270 C 645.000,28.976 645.938,28.741 646.875,28.564 C 647.812,28.388 648.750,28.270 649.688,28.212 C 650.625,28.153 651.562,28.212 652.500,28.212 C 653.438,28.212 654.375,28.329 655.312,28.212 C 656.250,28.094 657.188,27.624 658.125,27.506 C 659.062,27.389 660.000,27.624 660.938,27.506 C 661.875,27.389 662.812,26.860 663.750,26.801 C 664.688,26.742 665.625,27.154 666.562,27.154 C 667.500,27.154 668.438,26.919 669.375,26.801 C 670.312,26.683 671.250,26.566 672.188,26.448 C 673.125,26.331 674.062,26.272 675.000,26.096 C 675.938,25.919 676.875,25.390 677.812,25.390 C 678.750,25.390 679.688,25.919 680.625,26.096 C 681.562,26.272 682.500,26.390 683.438,26.448 C 684.375,26.507 685.312,26.507 686.250,26.448 C 687.188,26.390 688.125,26.154 689.062,26.096 C 690.000,26.037 690.938,26.037 691.875,26.096 C 692.812,26.154 693.750,26.331 694.688,26.448 C 695.625,26.566 696.562,26.683 697.500,26.801 C 698.438,26.919 699.375,26.919 700.312,27.154 C 701.250,27.389 702.188,27.918 703.125,28.212 C 704.062,28.505 705.000,28.799 705.938,28.917 C 706.875,29.034 707.812,28.976 708.750,28.917 C 709.688,28.858 710.625,28.505 711.562,28.564 C 712.500,28.623 713.438,29.152 714.375,29.270 C 715.312,29.387 716.250,29.152 717.188,29.270 C 718.125,29.387 719.062,29.740 720.000,29.975 C 720.938,30.210 721.875,30.327 722.812,30.680 C 723.750,31.033 724.688,31.738 725.625,32.091 C 726.562,32.443 727.500,32.620 728.438,32.796 C 729.375,32.972 730.312,32.796 731.250,33.149 C 732.188,33.501 733.125,34.442 734.062,34.912 C 735.000,35.382 735.938,35.617 736.875,35.970 C 737.812,36.322 738.750,36.969 739.688,37.028 C 740.625,37.086 741.562,36.381 742.500,36.322 C 743.438,36.264 744.375,36.558 745.312,36.675 C 746.250,36.793 747.188,36.969 748.125,37.028 C 749.062,37.086 750.000,36.969 750.938,37.028 C 751.875,37.086 752.812,37.498 753.750,37.380 C 754.688,37.263 755.625,36.734 756.562,36.322 C 757.500,35.911 758.438,35.264 759.375,34.912 C 760.312,34.559 761.250,34.500 762.188,34.207 C 763.125,33.913 764.062,33.619 765.000,33.149 C 765.938,32.678 766.875,32.267 767.812,31.385 C 768.750,30.504 769.688,28.329 770.625,27.859 C 771.562,27.389 772.500,28.329 773.438,28.564 C 774.375,28.799 775.312,28.917 776.250,29.270 C 777.188,29.622 778.125,30.386 779.062,30.680 C 780.000,30.974 780.938,30.974 781.875,31.033 C 782.812,31.092 783.750,31.033 784.688,31.033 C 785.625,31.033 786.562,30.856 787.500,31.033 C 788.438,31.209 789.375,31.856 790.312,32.091 C 791.250,32.326 792.188,32.208 793.125,32.443 C 794.062,32.678 795.000,33.266 795.938,33.501 C 796.875,33.736 797.812,33.795 798.750,33.854 C 799.688,33.913 800.625,33.795 801.562,33.854 C 802.500,33.913 803.438,33.854 804.375,34.207 C 805.312,34.559 806.250,35.558 807.188,35.970 C 808.125,36.381 809.062,36.558 810.000,36.675 C 810.938,36.793 811.875,36.558 812.812,36.675 C 813.750,36.793 814.688,37.204 815.625,37.380 C 816.562,37.557 817.500,37.792 818.438,37.733 C 819.375,37.674 820.312,37.086 821.250,37.028 C 822.188,36.969 823.125,37.439 824.062,37.380 C 825.000,37.322 825.938,36.616 826.875,36.675 C 827.812,36.734 828.750,37.322 829.688,37.733 C 830.625,38.144 831.562,38.850 832.500,39.144 C 833.438,39.437 834.375,39.555 835.312,39.496 C 836.250,39.437 837.188,39.026 838.125,38.791 C 839.062,38.556 840.000,38.380 840.938,38.086 C 841.875,37.792 842.812,37.204 843.750,37.028 C 844.688,36.851 845.625,37.145 846.562,37.028 C 847.500,36.910 848.438,36.499 849.375,36.322 C 850.312,36.146 851.250,36.087 852.188,35.970 C 853.125,35.852 854.062,35.735 855.000,35.617 C 855.938,35.500 856.875,35.500 857.812,35.264 C 858.750,35.029 859.688,34.442 860.625,34.207 C 861.562,33.971 862.500,34.030 863.438,33.854 C 864.375,33.678 865.312,33.325 866.250,33.149 C 867.188,32.972 868.125,33.031 869.062,32.796 C 870.000,32.561 870.938,31.914 871.875,31.738 C 872.812,31.562 873.750,31.914 874.688,31.738 C 875.625,31.562 876.562,30.915 877.500,30.680 C 878.438,30.445 879.375,30.386 880.312,30.327 C 881.250,30.269 882.188,30.563 883.125,30.327 C 884.062,30.092 885.000,29.505 885.938,28.917 C 886.875,28.329 887.812,27.271 888.750,26.801 C 889.688,26.331 890.625,26.213 891.562,26.096 C 892.500,25.978 893.438,26.096 894.375,26.096 C 895.312,26.096 896.250,26.096 897.188,26.096 C 898.125,26.096 899.062,26.213 900.000,26.096 C 900.938,25.978 901.875,25.567 902.812,25.390 C 903.750,25.214 904.688,25.155 905.625,25.038 C 906.562,24.920 907.500,24.744 908.438,24.685 C 909.375,24.626 910.312,24.744 911.250,24.685 C 912.188,24.626 913.125,24.509 914.062,24.332 C 915.000,24.156 915.938,23.686 916.875,23.627 C 917.812,23.568 918.750,23.921 919.688,23.980 C 920.625,24.039 921.562,23.980 922.500,23.980 C 923.438,23.980 924.375,23.862 925.312,23.980 C 926.250,24.097 927.188,24.568 928.125,24.685 C 929.062,24.803 930.000,24.744 930.938,24.685 C 931.875,24.626 932.812,24.509 933.750,24.332 C 934.688,24.156 935.625,23.686 936.562,23.627 C 937.500,23.568 938.438,23.862 939.375,23.980 C 940.312,24.097 941.250,24.215 942.188,24.332 C 943.125,24.450 944.062,24.626 945.000,24.685 C 945.938,24.744 946.875,24.626 947.812,24.685 C 948.750,24.744 949.688,24.920 950.625,25.038 C 951.562,25.155 952.500,25.038 953.438,25.390 C 954.375,25.743 955.312,26.860 956.250,27.154 C 957.188,27.448 958.125,27.330 959.062,27.154 C 960.000,26.977 960.938,26.154 961.875,26.096 C 962.812,26.037 963.750,26.625 964.688,26.801 C 965.625,26.977 966.562,27.330 967.500,27.154 C 968.438,26.977 969.375,26.037 970.312,25.743 C 971.250,25.449 972.188,25.567 973.125,25.390 C 974.062,25.214 975.000,24.920 975.938,24.685 C 976.875,24.450 977.812,24.391 978.750,23.980 C 979.688,23.568 980.625,22.628 981.562,22.217 C 982.500,21.805 983.438,21.864 984.375,21.511 C 985.312,21.159 986.250,21.394 987.188,20.101 C 988.125,18.808 989.062,14.400 990.000,13.753 C 990.938,13.107 991.875,15.164 992.812,16.222 C 993.750,17.280 994.688,19.043 995.625,20.101 C 996.562,21.159 997.500,21.805 998.438,22.569 C 999.375,23.333 1000.312,24.274 1001.250,24.685 C 1002.188,25.097 1003.125,24.920 1004.062,25.038 C 1005.000,25.155 1005.938,25.155 1006.875,25.390 C 1007.812,25.626 1008.750,26.213 1009.688,26.448 C 1010.625,26.683 1011.562,26.742 1012.500,26.801 C 1013.438,26.860 1014.375,26.919 1015.312,26.801 C 1016.250,26.683 1017.188,26.213 1018.125,26.096 C 1019.062,25.978 1020.000,25.567 1020.938,26.096 C 1021.875,26.625 1022.812,28.447 1023.750,29.270 C 1024.688,30.092 1025.625,30.798 1026.562,31.033 C 1027.500,31.268 1028.438,30.739 1029.375,30.680 C 1030.312,30.621 1031.250,30.563 1032.188,30.680 C 1033.125,30.798 1034.062,31.268 1035.000,31.385 C 1035.938,31.503 1036.875,31.209 1037.812,31.385 C 1038.750,31.562 1039.688,32.149 1040.625,32.443 C 1041.562,32.737 1042.500,33.266 1043.438,33.149 C 1044.375,33.031 1045.312,32.326 1046.250,31.738 C 1047.188,31.150 1048.125,30.210 1049.062,29.622 C 1050.000,29.034 1050.938,28.917 1051.875,28.212 C 1052.812,27.506 1053.750,25.684 1054.688,25.390 C 1055.625,25.097 1056.562,26.331 1057.500,26.448 C 1058.438,26.566 1059.375,26.154 1060.312,26.096 C 1061.250,26.037 1062.188,25.919 1063.125,26.096 C 1064.062,26.272 1065.000,27.095 1065.938,27.154 C 1066.875,27.212 1067.812,26.448 1068.750,26.448 C 1069.688,26.448 1070.625,27.095 1071.562,27.154 C 1072.500,27.212 1073.438,26.801 1074.375,26.801 C 1075.312,26.801 1076.250,27.154 1077.188,27.154 C 1078.125,27.154 1079.062,26.801 1080.000,26.801 C 1080.938,26.801 1081.875,27.095 1082.812,27.154 C 1083.750,27.212 1084.688,26.860 1085.625,27.154 C 1086.562,27.448 1087.500,28.564 1088.438,28.917 C 1089.375,29.270 1090.312,29.034 1091.250,29.270 C 1092.188,29.505 1093.125,30.034 1094.062,30.327 C 1095.000,30.621 1095.938,31.033 1096.875,31.033 C 1097.812,31.033 1098.750,30.327 1099.688,30.327 C 1100.625,30.327 1101.562,30.739 1102.500,31.033 C 1103.438,31.327 1104.375,32.091 1105.312,32.091 C 1106.250,32.091 1107.188,31.327 1108.125,31.033 C 1109.062,30.739 1110.000,30.151 1110.938,30.327 C 1111.875,30.504 1112.812,31.856 1113.750,32.091 C 1114.688,32.326 1115.625,31.914 1116.562,31.738 C 1117.500,31.562 1118.438,31.150 1119.375,31.033 C 1120.312,30.915 1121.250,31.150 1122.188,31.033 C 1123.125,30.915 1124.062,30.210 1125.000,30.327 C 1125.938,30.445 1126.875,31.679 1127.812,31.738 C 1128.750,31.797 1129.688,30.974 1130.625,30.680 C 1131.562,30.386 1132.500,30.092 1133.438,29.975 C 1134.375,29.857 1135.312,30.034 1136.250,29.975 C 1137.188,29.916 1138.125,29.563 1139.062,29.622 C 1140.000,29.681 1140.938,30.386 1141.875,30.327 C 1142.812,30.269 1143.750,29.446 1144.688,29.270 C 1145.625,29.093 1146.562,29.093 1147.500,29.270 C 1148.438,29.446 1149.375,30.092 1150.312,30.327 C 1151.250,30.563 1152.188,30.386 1153.125,30.680 C 1154.062,30.974 1155.000,32.032 1155.938,32.091 C 1156.875,32.149 1157.812,31.092 1158.750,31.033 C 1159.688,30.974 1160.625,31.620 1161.562,31.738 C 1162.500,31.856 1163.438,31.856 1164.375,31.738 C 1165.312,31.620 1166.250,31.268 1167.188,31.033 C 1168.125,30.798 1169.062,30.386 1170.000,30.327 C 1170.938,30.269 1171.875,30.680 1172.812,30.680 C 1173.750,30.680 1174.688,30.386 1175.625,30.327 C 1176.562,30.269 1177.500,30.327 1178.438,30.327 C 1179.375,30.327 1180.312,30.386 1181.250,30.327 C 1182.188,30.269 1183.125,30.151 1184.062,29.975 C 1185.000,29.798 1185.938,29.328 1186.875,29.270 C 1187.812,29.211 1188.750,29.387 1189.688,29.622 C 1190.625,29.857 1191.562,30.504 1192.500,30.680 C 1193.438,30.856 1194.375,30.621 1195.312,30.680 C 1196.250,30.739 1197.188,30.915 1198.125,31.033 C 1199.062,31.150 1200.000,31.327 1200.938,31.385 C 1201.875,31.444 1202.812,31.444 1203.750,31.385 C 1204.688,31.327 1205.625,30.974 1206.562,31.033 C 1207.500,31.092 1208.438,31.503 1209.375,31.738 C 1210.312,31.973 1211.250,32.267 1212.188,32.443 C 1213.125,32.620 1214.062,32.561 1215.000,32.796 C 1215.938,33.031 1216.875,33.560 1217.812,33.854 C 1218.750,34.148 1219.688,34.442 1220.625,34.559 C 1221.562,34.677 1222.500,34.559 1223.438,34.559 C 1224.375,34.559 1225.312,34.677 1226.250,34.559 C 1227.188,34.442 1228.125,33.736 1229.062,33.854 C 1230.000,33.971 1230.938,34.971 1231.875,35.264 C 1232.812,35.558 1233.750,35.323 1234.688,35.617 C 1235.625,35.911 1236.562,36.793 1237.500,37.028 C 1238.438,37.263 1239.375,37.263 1240.312,37.028 C 1241.250,36.793 1242.188,36.087 1243.125,35.617 C 1244.062,35.147 1245.000,34.618 1245.938,34.207 C 1246.875,33.795 1247.812,33.619 1248.750,33.149 C 1249.688,32.678 1250.625,31.856 1251.562,31.385 C 1252.500,30.915 1253.438,30.739 1254.375,30.327 C 1255.312,29.916 1256.250,29.505 1257.188,28.917 C 1258.125,28.329 1259.062,27.565 1260.000,26.801 C 1260.938,26.037 1261.875,24.861 1262.812,24.332 C 1263.750,23.804 1264.688,24.039 1265.625,23.627 C 1266.562,23.216 1267.500,22.452 1268.438,21.864 C 1269.375,21.276 1270.312,20.277 1271.250,20.101 C 1272.188,19.924 1273.125,20.630 1274.062,20.806 C 1275.000,20.982 1275.938,21.041 1276.875,21.159 C 1277.812,21.276 1278.750,21.276 1279.688,21.511 C 1280.625,21.746 1281.562,22.393 1282.500,22.569 C 1283.438,22.746 1284.375,22.452 1285.312,22.569 C 1286.250,22.687 1287.188,23.157 1288.125,23.275 C 1289.062,23.392 1290.000,23.392 1290.938,23.275 C 1291.875,23.157 1292.812,22.746 1293.750,22.569 C 1294.688,22.393 1295.625,22.275 1296.562,22.217 C 1297.500,22.158 1298.438,22.099 1299.375,22.217 C 1300.312,22.334 1301.250,22.804 1302.188,22.922 C 1303.125,23.039 1304.062,22.804 1305.000,22.922 C 1305.938,23.039 1306.875,23.627 1307.812,23.627 C 1308.750,23.627 1309.688,23.039 1310.625,22.922 C 1311.562,22.804 1312.500,23.039 1313.438,22.922 C 1314.375,22.804 1315.312,22.334 1316.250,22.217 C 1317.188,22.099 1318.125,22.334 1319.062,22.217 C 1320.000,22.099 1320.938,21.570 1321.875,21.511 C 1322.812,21.453 1323.750,21.570 1324.688,21.864 C 1325.625,22.158 1326.562,22.863 1327.500,23.275 C 1328.438,23.686 1329.375,24.097 1330.312,24.332 C 1331.250,24.568 1332.188,24.509 1333.125,24.685 C 1334.062,24.861 1335.000,25.567 1335.938,25.390 C 1336.875,25.214 1337.812,24.039 1338.750,23.627 C 1339.688,23.216 1340.625,23.216 1341.562,22.922 C 1342.500,22.628 1343.438,22.217 1344.375,21.864 C 1345.312,21.511 1346.250,21.217 1347.188,20.806 C 1348.125,20.395 1349.062,19.924 1350.000,19.395 C 1350.938,18.866 1351.875,17.985 1352.812,17.632 C 1353.750,17.280 1354.688,17.632 1355.625,17.280 C 1356.562,16.927 1357.500,15.810 1358.438,15.516 C 1359.375,15.223 1360.312,15.516 1361.250,15.516 C 1362.188,15.516 1363.125,15.575 1364.062,15.516 C 1365.000,15.458 1365.938,15.223 1366.875,15.164 C 1367.812,15.105 1368.750,15.223 1369.688,15.164 C 1370.625,15.105 1371.562,14.635 1372.500,14.811 C 1373.438,14.987 1374.375,15.810 1375.312,16.222 C 1376.250,16.633 1377.188,17.045 1378.125,17.280 C 1379.062,17.515 1380.000,17.750 1380.938,17.632 C 1381.875,17.515 1382.812,16.986 1383.750,16.574 C 1384.688,16.163 1385.625,15.810 1386.562,15.164 C 1387.500,14.517 1388.438,12.695 1389.375,12.695 C 1390.312,12.695 1391.250,14.987 1392.188,15.164 C 1393.125,15.340 1394.062,14.282 1395.000,13.753 C 1395.938,13.224 1396.875,12.401 1397.812,11.990 C 1398.750,11.579 1399.688,11.520 1400.625,11.285 C 1401.562,11.050 1402.500,10.697 1403.438,10.579 C 1404.375,10.462 1405.312,10.697 1406.250,10.579 C 1407.188,10.462 1408.125,10.109 1409.062,9.874 C 1410.000,9.639 1410.938,9.463 1411.875,9.169 C 1412.812,8.875 1413.750,8.463 1414.688,8.111 C 1415.625,7.758 1416.562,7.347 1417.500,7.053 C 1418.438,6.759 1419.375,6.465 1420.312,6.348 C 1421.250,6.230 1422.188,6.230 1423.125,6.348 C 1424.062,6.465 1425.000,6.818 1425.938,7.053 C 1426.875,7.288 1427.812,7.699 1428.750,7.758 C 1429.688,7.817 1430.625,7.464 1431.562,7.406 C 1432.500,7.347 1433.438,7.406 1434.375,7.406 C 1435.312,7.406 1436.719,7.406 1437.188,7.406 L 1437.188,67.003 C 1436.719,66.944 1435.312,66.591 1434.375,66.650 C 1433.438,66.709 1432.500,67.120 1431.562,67.355 C 1430.625,67.590 1429.688,67.825 1428.750,68.060 C 1427.812,68.296 1426.875,68.472 1425.938,68.766 C 1425.000,69.060 1424.062,69.412 1423.125,69.824 C 1422.188,70.235 1421.250,70.705 1420.312,71.234 C 1419.375,71.763 1418.438,73.056 1417.500,72.997 C 1416.562,72.939 1415.625,71.411 1414.688,70.882 C 1413.750,70.353 1412.812,70.118 1411.875,69.824 C 1410.938,69.530 1410.000,69.236 1409.062,69.118 C 1408.125,69.001 1407.188,69.060 1406.250,69.118 C 1405.312,69.177 1404.375,69.589 1403.438,69.471 C 1402.500,69.353 1401.562,68.178 1400.625,68.413 C 1399.688,68.648 1398.750,70.000 1397.812,70.882 C 1396.875,71.763 1395.938,72.880 1395.000,73.703 C 1394.062,74.526 1393.125,75.172 1392.188,75.819 C 1391.250,76.465 1390.312,77.347 1389.375,77.582 C 1388.438,77.817 1387.500,77.053 1386.562,77.229 C 1385.625,77.406 1384.688,78.581 1383.750,78.640 C 1382.812,78.699 1381.875,77.582 1380.938,77.582 C 1380.000,77.582 1379.062,78.463 1378.125,78.640 C 1377.188,78.816 1376.250,78.640 1375.312,78.640 C 1374.375,78.640 1373.438,78.640 1372.500,78.640 C 1371.562,78.640 1370.625,78.640 1369.688,78.640 C 1368.750,78.640 1367.812,78.405 1366.875,78.640 C 1365.938,78.875 1365.000,79.698 1364.062,80.050 C 1363.125,80.403 1362.188,80.579 1361.250,80.756 C 1360.312,80.932 1359.375,81.167 1358.438,81.108 C 1357.500,81.050 1356.562,80.403 1355.625,80.403 C 1354.688,80.403 1353.750,81.050 1352.812,81.108 C 1351.875,81.167 1350.938,80.756 1350.000,80.756 C 1349.062,80.756 1348.125,80.697 1347.188,81.108 C 1346.250,81.520 1345.312,83.048 1344.375,83.224 C 1343.438,83.401 1342.500,82.401 1341.562,82.166 C 1340.625,81.931 1339.688,81.696 1338.750,81.814 C 1337.812,81.931 1336.875,82.930 1335.938,82.872 C 1335.000,82.813 1334.062,81.637 1333.125,81.461 C 1332.188,81.285 1331.250,81.579 1330.312,81.814 C 1329.375,82.049 1328.438,82.636 1327.500,82.872 C 1326.562,83.107 1325.625,83.283 1324.688,83.224 C 1323.750,83.165 1322.812,82.754 1321.875,82.519 C 1320.938,82.284 1320.000,82.166 1319.062,81.814 C 1318.125,81.461 1317.188,80.756 1316.250,80.403 C 1315.312,80.050 1314.375,79.698 1313.438,79.698 C 1312.500,79.698 1311.562,80.050 1310.625,80.403 C 1309.688,80.756 1308.750,81.579 1307.812,81.814 C 1306.875,82.049 1305.938,82.049 1305.000,81.814 C 1304.062,81.579 1303.125,80.579 1302.188,80.403 C 1301.250,80.227 1300.312,80.697 1299.375,80.756 C 1298.438,80.814 1297.500,80.697 1296.562,80.756 C 1295.625,80.814 1294.688,80.991 1293.750,81.108 C 1292.812,81.226 1291.875,81.579 1290.938,81.461 C 1290.000,81.343 1289.062,80.462 1288.125,80.403 C 1287.188,80.344 1286.250,80.932 1285.312,81.108 C 1284.375,81.285 1283.438,81.461 1282.500,81.461 C 1281.562,81.461 1280.625,81.343 1279.688,81.108 C 1278.750,80.873 1277.812,80.285 1276.875,80.050 C 1275.938,79.815 1275.000,79.815 1274.062,79.698 C 1273.125,79.580 1272.188,79.404 1271.250,79.345 C 1270.312,79.286 1269.375,79.345 1268.438,79.345 C 1267.500,79.345 1266.562,79.286 1265.625,79.345 C 1264.688,79.404 1263.750,79.698 1262.812,79.698 C 1261.875,79.698 1260.938,79.286 1260.000,79.345 C 1259.062,79.404 1258.125,80.050 1257.188,80.050 C 1256.250,80.050 1255.312,79.463 1254.375,79.345 C 1253.438,79.228 1252.500,79.345 1251.562,79.345 C 1250.625,79.345 1249.688,79.286 1248.750,79.345 C 1247.812,79.404 1246.875,79.639 1245.938,79.698 C 1245.000,79.757 1244.062,79.463 1243.125,79.698 C 1242.188,79.933 1241.250,80.697 1240.312,81.108 C 1239.375,81.520 1238.438,81.872 1237.500,82.166 C 1236.562,82.460 1235.625,82.636 1234.688,82.872 C 1233.750,83.107 1232.812,83.283 1231.875,83.577 C 1230.938,83.871 1230.000,84.458 1229.062,84.635 C 1228.125,84.811 1227.188,84.811 1226.250,84.635 C 1225.312,84.458 1224.375,83.459 1223.438,83.577 C 1222.500,83.694 1221.562,84.517 1220.625,85.340 C 1219.688,86.163 1218.750,87.985 1217.812,88.514 C 1216.875,89.043 1215.938,88.631 1215.000,88.514 C 1214.062,88.396 1213.125,87.867 1212.188,87.809 C 1211.250,87.750 1210.312,88.161 1209.375,88.161 C 1208.438,88.161 1207.500,87.985 1206.562,87.809 C 1205.625,87.632 1204.688,87.162 1203.750,87.103 C 1202.812,87.045 1201.875,87.456 1200.938,87.456 C 1200.000,87.456 1199.062,87.221 1198.125,87.103 C 1197.188,86.986 1196.250,86.692 1195.312,86.751 C 1194.375,86.809 1193.438,87.397 1192.500,87.456 C 1191.562,87.515 1190.625,87.103 1189.688,87.103 C 1188.750,87.103 1187.812,87.397 1186.875,87.456 C 1185.938,87.515 1185.000,87.397 1184.062,87.456 C 1183.125,87.515 1182.188,87.632 1181.250,87.809 C 1180.312,87.985 1179.375,88.279 1178.438,88.514 C 1177.500,88.749 1176.562,89.043 1175.625,89.219 C 1174.688,89.395 1173.750,89.395 1172.812,89.572 C 1171.875,89.748 1170.938,90.218 1170.000,90.277 C 1169.062,90.336 1168.125,89.807 1167.188,89.924 C 1166.250,90.042 1165.312,90.865 1164.375,90.982 C 1163.438,91.100 1162.500,90.571 1161.562,90.630 C 1160.625,90.688 1159.688,91.217 1158.750,91.335 C 1157.812,91.453 1156.875,91.276 1155.938,91.335 C 1155.000,91.394 1154.062,91.570 1153.125,91.688 C 1152.188,91.805 1151.250,91.923 1150.312,92.040 C 1149.375,92.158 1148.438,92.393 1147.500,92.393 C 1146.562,92.393 1145.625,92.217 1144.688,92.040 C 1143.750,91.864 1142.812,91.394 1141.875,91.335 C 1140.938,91.276 1140.000,91.511 1139.062,91.688 C 1138.125,91.864 1137.188,92.393 1136.250,92.393 C 1135.312,92.393 1134.375,91.864 1133.438,91.688 C 1132.500,91.511 1131.562,91.394 1130.625,91.335 C 1129.688,91.276 1128.750,91.570 1127.812,91.335 C 1126.875,91.100 1125.938,90.160 1125.000,89.924 C 1124.062,89.689 1123.125,89.983 1122.188,89.924 C 1121.250,89.866 1120.312,89.689 1119.375,89.572 C 1118.438,89.454 1117.500,89.278 1116.562,89.219 C 1115.625,89.160 1114.688,89.337 1113.750,89.219 C 1112.812,89.102 1111.875,88.690 1110.938,88.514 C 1110.000,88.338 1109.062,88.455 1108.125,88.161 C 1107.188,87.867 1106.250,87.103 1105.312,86.751 C 1104.375,86.398 1103.438,86.398 1102.500,86.045 C 1101.562,85.693 1100.625,85.046 1099.688,84.635 C 1098.750,84.223 1097.812,83.929 1096.875,83.577 C 1095.938,83.224 1095.000,82.872 1094.062,82.519 C 1093.125,82.166 1092.188,81.637 1091.250,81.461 C 1090.312,81.285 1089.375,81.520 1088.438,81.461 C 1087.500,81.402 1086.562,81.167 1085.625,81.108 C 1084.688,81.050 1083.750,81.108 1082.812,81.108 C 1081.875,81.108 1080.938,80.932 1080.000,81.108 C 1079.062,81.285 1078.125,81.872 1077.188,82.166 C 1076.250,82.460 1075.312,83.107 1074.375,82.872 C 1073.438,82.636 1072.500,81.520 1071.562,80.756 C 1070.625,79.992 1069.688,78.757 1068.750,78.287 C 1067.812,77.817 1066.875,77.876 1065.938,77.935 C 1065.000,77.993 1064.062,78.581 1063.125,78.640 C 1062.188,78.699 1061.250,78.522 1060.312,78.287 C 1059.375,78.052 1058.438,77.523 1057.500,77.229 C 1056.562,76.935 1055.625,76.759 1054.688,76.524 C 1053.750,76.289 1052.812,75.995 1051.875,75.819 C 1050.938,75.642 1050.000,75.231 1049.062,75.466 C 1048.125,75.701 1047.188,76.583 1046.250,77.229 C 1045.312,77.876 1044.375,78.699 1043.438,79.345 C 1042.500,79.992 1041.562,80.579 1040.625,81.108 C 1039.688,81.637 1038.750,82.343 1037.812,82.519 C 1036.875,82.695 1035.938,82.166 1035.000,82.166 C 1034.062,82.166 1033.125,82.578 1032.188,82.519 C 1031.250,82.460 1030.312,81.990 1029.375,81.814 C 1028.438,81.637 1027.500,81.402 1026.562,81.461 C 1025.625,81.520 1024.688,82.107 1023.750,82.166 C 1022.812,82.225 1021.875,81.872 1020.938,81.814 C 1020.000,81.755 1019.062,81.814 1018.125,81.814 C 1017.188,81.814 1016.250,81.814 1015.312,81.814 C 1014.375,81.814 1013.438,81.872 1012.500,81.814 C 1011.562,81.755 1010.625,81.637 1009.688,81.461 C 1008.750,81.285 1007.812,81.167 1006.875,80.756 C 1005.938,80.344 1005.000,79.286 1004.062,78.992 C 1003.125,78.699 1002.188,79.228 1001.250,78.992 C 1000.312,78.757 999.375,77.817 998.438,77.582 C 997.500,77.347 996.562,77.464 995.625,77.582 C 994.688,77.699 993.750,78.346 992.812,78.287 C 991.875,78.228 990.938,77.523 990.000,77.229 C 989.062,76.935 988.125,76.406 987.188,76.524 C 986.250,76.641 985.312,77.758 984.375,77.935 C 983.438,78.111 982.500,77.817 981.562,77.582 C 980.625,77.347 979.688,76.583 978.750,76.524 C 977.812,76.465 976.875,77.053 975.938,77.229 C 975.000,77.406 974.062,77.523 973.125,77.582 C 972.188,77.641 971.250,77.582 970.312,77.582 C 969.375,77.582 968.438,77.699 967.500,77.582 C 966.562,77.464 965.625,76.759 964.688,76.877 C 963.750,76.994 962.812,78.052 961.875,78.287 C 960.938,78.522 960.000,78.170 959.062,78.287 C 958.125,78.405 957.188,78.875 956.250,78.992 C 955.312,79.110 954.375,79.051 953.438,78.992 C 952.500,78.934 951.562,78.522 950.625,78.640 C 949.688,78.757 948.750,79.639 947.812,79.698 C 946.875,79.757 945.938,79.228 945.000,78.992 C 944.062,78.757 943.125,78.581 942.188,78.287 C 941.250,77.993 940.312,77.406 939.375,77.229 C 938.438,77.053 937.500,77.229 936.562,77.229 C 935.625,77.229 934.688,77.347 933.750,77.229 C 932.812,77.112 931.875,76.524 930.938,76.524 C 930.000,76.524 929.062,77.112 928.125,77.229 C 927.188,77.347 926.250,76.994 925.312,77.229 C 924.375,77.464 923.438,78.522 922.500,78.640 C 921.562,78.757 920.625,77.935 919.688,77.935 C 918.750,77.935 917.812,78.581 916.875,78.640 C 915.938,78.699 915.000,78.346 914.062,78.287 C 913.125,78.228 912.188,78.228 911.250,78.287 C 910.312,78.346 909.375,78.346 908.438,78.640 C 907.500,78.934 906.562,80.109 905.625,80.050 C 904.688,79.992 903.750,78.640 902.812,78.287 C 901.875,77.935 900.938,78.052 900.000,77.935 C 899.062,77.817 898.125,77.699 897.188,77.582 C 896.250,77.464 895.312,77.347 894.375,77.229 C 893.438,77.112 892.500,76.877 891.562,76.877 C 890.625,76.877 889.688,77.170 888.750,77.229 C 887.812,77.288 886.875,77.347 885.938,77.229 C 885.000,77.112 884.062,76.700 883.125,76.524 C 882.188,76.348 881.250,76.406 880.312,76.171 C 879.375,75.936 878.438,75.466 877.500,75.113 C 876.562,74.761 875.625,74.467 874.688,74.055 C 873.750,73.644 872.812,72.880 871.875,72.645 C 870.938,72.410 870.000,72.880 869.062,72.645 C 868.125,72.410 867.188,71.411 866.250,71.234 C 865.312,71.058 864.375,71.646 863.438,71.587 C 862.500,71.528 861.562,70.764 860.625,70.882 C 859.688,70.999 858.750,71.822 857.812,72.292 C 856.875,72.762 855.938,73.233 855.000,73.703 C 854.062,74.173 853.125,74.526 852.188,75.113 C 851.250,75.701 850.312,76.465 849.375,77.229 C 848.438,77.993 847.500,79.286 846.562,79.698 C 845.625,80.109 844.688,79.815 843.750,79.698 C 842.812,79.580 841.875,79.051 840.938,78.992 C 840.000,78.934 839.062,79.345 838.125,79.345 C 837.188,79.345 836.250,79.169 835.312,78.992 C 834.375,78.816 833.438,78.405 832.500,78.287 C 831.562,78.170 830.625,78.170 829.688,78.287 C 828.750,78.405 827.812,78.992 826.875,78.992 C 825.938,78.992 825.000,78.463 824.062,78.287 C 823.125,78.111 822.188,77.935 821.250,77.935 C 820.312,77.935 819.375,78.287 818.438,78.287 C 817.500,78.287 816.562,77.935 815.625,77.935 C 814.688,77.935 813.750,78.170 812.812,78.287 C 811.875,78.405 810.938,78.581 810.000,78.640 C 809.062,78.699 808.125,78.581 807.188,78.640 C 806.250,78.699 805.312,78.816 804.375,78.992 C 803.438,79.169 802.500,79.345 801.562,79.698 C 800.625,80.050 799.688,80.873 798.750,81.108 C 797.812,81.343 796.875,81.050 795.938,81.108 C 795.000,81.167 794.062,81.343 793.125,81.461 C 792.188,81.579 791.250,81.755 790.312,81.814 C 789.375,81.872 788.438,81.696 787.500,81.814 C 786.562,81.931 785.625,82.401 784.688,82.519 C 783.750,82.636 782.812,82.460 781.875,82.519 C 780.938,82.578 780.000,82.813 779.062,82.872 C 778.125,82.930 777.188,82.813 776.250,82.872 C 775.312,82.930 774.375,83.107 773.438,83.224 C 772.500,83.342 771.562,83.459 770.625,83.577 C 769.688,83.694 768.750,83.812 767.812,83.929 C 766.875,84.047 765.938,84.223 765.000,84.282 C 764.062,84.341 763.125,84.400 762.188,84.282 C 761.250,84.165 760.312,83.694 759.375,83.577 C 758.438,83.459 757.500,83.577 756.562,83.577 C 755.625,83.577 754.688,83.459 753.750,83.577 C 752.812,83.694 751.875,84.282 750.938,84.282 C 750.000,84.282 749.062,83.753 748.125,83.577 C 747.188,83.401 746.250,83.342 745.312,83.224 C 744.375,83.107 743.438,83.107 742.500,82.872 C 741.562,82.636 740.625,82.107 739.688,81.814 C 738.750,81.520 737.812,81.167 736.875,81.108 C 735.938,81.050 735.000,81.461 734.062,81.461 C 733.125,81.461 732.188,81.226 731.250,81.108 C 730.312,80.991 729.375,80.814 728.438,80.756 C 727.500,80.697 726.562,80.873 725.625,80.756 C 724.688,80.638 723.750,80.285 722.812,80.050 C 721.875,79.815 720.938,79.639 720.000,79.345 C 719.062,79.051 718.125,78.640 717.188,78.287 C 716.250,77.935 715.312,77.464 714.375,77.229 C 713.438,76.994 712.500,77.229 711.562,76.877 C 710.625,76.524 709.688,75.584 708.750,75.113 C 707.812,74.643 706.875,74.408 705.938,74.055 C 705.000,73.703 704.062,73.056 703.125,72.997 C 702.188,72.939 701.250,73.644 700.312,73.703 C 699.375,73.762 698.438,73.468 697.500,73.350 C 696.562,73.233 695.625,73.056 694.688,72.997 C 693.750,72.939 692.812,72.997 691.875,72.997 C 690.938,72.997 690.000,72.880 689.062,72.997 C 688.125,73.115 687.188,73.409 686.250,73.703 C 685.312,73.997 684.375,74.467 683.438,74.761 C 682.500,75.055 681.562,75.172 680.625,75.466 C 679.688,75.760 678.750,76.054 677.812,76.524 C 676.875,76.994 675.938,77.464 675.000,78.287 C 674.062,79.110 673.125,80.873 672.188,81.461 C 671.250,82.049 670.312,81.872 669.375,81.814 C 668.438,81.755 667.500,81.520 666.562,81.108 C 665.625,80.697 664.688,79.698 663.750,79.345 C 662.812,78.992 661.875,79.051 660.938,78.992 C 660.000,78.934 659.062,78.992 658.125,78.992 C 657.188,78.992 656.250,79.169 655.312,78.992 C 654.375,78.816 653.438,78.170 652.500,77.935 C 651.562,77.699 650.625,77.817 649.688,77.582 C 648.750,77.347 647.812,76.818 646.875,76.524 C 645.938,76.230 645.000,75.877 644.062,75.819 C 643.125,75.760 642.188,76.113 641.250,76.171 C 640.312,76.230 639.375,76.524 638.438,76.171 C 637.500,75.819 636.562,74.526 635.625,74.055 C 634.688,73.585 633.750,73.409 632.812,73.350 C 631.875,73.291 630.938,73.820 630.000,73.703 C 629.062,73.585 628.125,72.880 627.188,72.645 C 626.250,72.410 625.312,72.233 624.375,72.292 C 623.438,72.351 622.500,72.939 621.562,72.997 C 620.625,73.056 619.688,72.645 618.750,72.645 C 617.812,72.645 616.875,73.056 615.938,72.997 C 615.000,72.939 614.062,72.586 613.125,72.292 C 612.188,71.998 611.250,71.469 610.312,71.234 C 609.375,70.999 608.438,70.882 607.500,70.882 C 606.562,70.882 605.625,71.058 604.688,71.234 C 603.750,71.411 602.812,71.646 601.875,71.940 C 600.938,72.233 600.000,72.821 599.062,72.997 C 598.125,73.174 597.188,72.880 596.250,72.997 C 595.312,73.115 594.375,73.585 593.438,73.703 C 592.500,73.820 591.562,73.644 590.625,73.703 C 589.688,73.762 588.750,73.879 587.812,74.055 C 586.875,74.232 585.938,74.467 585.000,74.761 C 584.062,75.055 583.125,75.584 582.188,75.819 C 581.250,76.054 580.312,75.995 579.375,76.171 C 578.438,76.348 577.500,76.700 576.562,76.877 C 575.625,77.053 574.688,77.053 573.750,77.229 C 572.812,77.406 571.875,77.758 570.938,77.935 C 570.000,78.111 569.062,78.052 568.125,78.287 C 567.188,78.522 566.250,79.110 565.312,79.345 C 564.375,79.580 563.438,79.639 562.500,79.698 C 561.562,79.757 560.625,79.463 559.688,79.698 C 558.750,79.933 557.812,80.579 556.875,81.108 C 555.938,81.637 555.000,82.401 554.062,82.872 C 553.125,83.342 552.188,83.694 551.250,83.929 C 550.312,84.165 549.375,84.341 548.438,84.282 C 547.500,84.223 546.562,83.694 545.625,83.577 C 544.688,83.459 543.750,83.401 542.812,83.577 C 541.875,83.753 540.938,84.400 540.000,84.635 C 539.062,84.870 538.125,84.870 537.188,84.987 C 536.250,85.105 535.312,85.281 534.375,85.340 C 533.438,85.399 532.500,85.281 531.562,85.340 C 530.625,85.399 529.688,85.516 528.750,85.693 C 527.812,85.869 526.875,86.280 525.938,86.398 C 525.000,86.516 524.062,86.457 523.125,86.398 C 522.188,86.339 521.250,86.104 520.312,86.045 C 519.375,85.987 518.438,86.104 517.500,86.045 C 516.562,85.987 515.625,85.810 514.688,85.693 C 513.750,85.575 512.812,85.340 511.875,85.340 C 510.938,85.340 510.000,85.516 509.062,85.693 C 508.125,85.869 507.188,86.339 506.250,86.398 C 505.312,86.457 504.375,86.163 503.438,86.045 C 502.500,85.928 501.562,85.810 500.625,85.693 C 499.688,85.575 498.750,85.399 497.812,85.340 C 496.875,85.281 495.938,85.399 495.000,85.340 C 494.062,85.281 493.125,85.105 492.188,84.987 C 491.250,84.870 490.312,84.987 489.375,84.635 C 488.438,84.282 487.500,83.224 486.562,82.872 C 485.625,82.519 484.688,82.343 483.750,82.519 C 482.812,82.695 481.875,83.812 480.938,83.929 C 480.000,84.047 479.062,83.401 478.125,83.224 C 477.188,83.048 476.250,82.695 475.312,82.872 C 474.375,83.048 473.438,83.988 472.500,84.282 C 471.562,84.576 470.625,84.458 469.688,84.635 C 468.750,84.811 467.812,85.164 466.875,85.340 C 465.938,85.516 465.000,85.340 464.062,85.693 C 463.125,86.045 462.188,87.045 461.250,87.456 C 460.312,87.867 459.375,87.750 458.438,88.161 C 457.500,88.573 456.562,88.573 455.625,89.924 C 454.688,91.276 453.750,95.508 452.812,96.272 C 451.875,97.036 450.938,95.508 450.000,94.509 C 449.062,93.510 448.125,91.453 447.188,90.277 C 446.250,89.102 445.312,88.279 444.375,87.456 C 443.438,86.633 442.500,85.693 441.562,85.340 C 440.625,84.987 439.688,85.458 438.750,85.340 C 437.812,85.223 436.875,84.929 435.938,84.635 C 435.000,84.341 434.062,83.812 433.125,83.577 C 432.188,83.342 431.250,83.283 430.312,83.224 C 429.375,83.165 428.438,83.165 427.500,83.224 C 426.562,83.283 425.625,83.283 424.688,83.577 C 423.750,83.871 422.812,85.458 421.875,84.987 C 420.938,84.517 420.000,81.755 419.062,80.756 C 418.125,79.757 417.188,79.228 416.250,78.992 C 415.312,78.757 414.375,79.286 413.438,79.345 C 412.500,79.404 411.562,79.404 410.625,79.345 C 409.688,79.286 408.750,79.110 407.812,78.992 C 406.875,78.875 405.938,78.875 405.000,78.640 C 404.062,78.405 403.125,77.876 402.188,77.582 C 401.250,77.288 400.312,76.818 399.375,76.877 C 398.438,76.935 397.500,77.347 396.562,77.935 C 395.625,78.522 394.688,79.815 393.750,80.403 C 392.812,80.991 391.875,80.756 390.938,81.461 C 390.000,82.166 389.062,84.282 388.125,84.635 C 387.188,84.987 386.250,83.753 385.312,83.577 C 384.375,83.401 383.438,83.518 382.500,83.577 C 381.562,83.636 380.625,84.047 379.688,83.929 C 378.750,83.812 377.812,82.989 376.875,82.872 C 375.938,82.754 375.000,83.224 374.062,83.224 C 373.125,83.224 372.188,82.872 371.250,82.872 C 370.312,82.872 369.375,83.224 368.438,83.224 C 367.500,83.224 366.562,82.872 365.625,82.872 C 364.688,82.872 363.750,83.224 362.812,83.224 C 361.875,83.224 360.938,82.930 360.000,82.872 C 359.062,82.813 358.125,83.107 357.188,82.872 C 356.250,82.636 355.312,81.814 354.375,81.461 C 353.438,81.108 352.500,81.050 351.562,80.756 C 350.625,80.462 349.688,79.992 348.750,79.698 C 347.812,79.404 346.875,78.992 345.938,78.992 C 345.000,78.992 344.062,79.698 343.125,79.698 C 342.188,79.698 341.250,79.286 340.312,78.992 C 339.375,78.699 338.438,77.993 337.500,77.935 C 336.562,77.876 335.625,78.346 334.688,78.640 C 333.750,78.934 332.812,79.815 331.875,79.698 C 330.938,79.580 330.000,78.170 329.062,77.935 C 328.125,77.699 327.188,78.111 326.250,78.287 C 325.312,78.463 324.375,78.875 323.438,78.992 C 322.500,79.110 321.562,78.875 320.625,78.992 C 319.688,79.110 318.750,79.815 317.812,79.698 C 316.875,79.580 315.938,78.346 315.000,78.287 C 314.062,78.228 313.125,79.051 312.188,79.345 C 311.250,79.639 310.312,79.933 309.375,80.050 C 308.438,80.168 307.500,79.992 306.562,80.050 C 305.625,80.109 304.688,80.403 303.750,80.403 C 302.812,80.403 301.875,79.992 300.938,80.050 C 300.000,80.109 299.062,80.638 298.125,80.756 C 297.188,80.873 296.250,80.932 295.312,80.756 C 294.375,80.579 293.438,79.992 292.500,79.698 C 291.562,79.404 290.625,79.286 289.688,78.992 C 288.750,78.699 287.812,77.935 286.875,77.935 C 285.938,77.935 285.000,78.934 284.062,78.992 C 283.125,79.051 282.188,78.405 281.250,78.287 C 280.312,78.170 279.375,78.170 278.438,78.287 C 277.500,78.405 276.562,78.816 275.625,78.992 C 274.688,79.169 273.750,79.228 272.812,79.345 C 271.875,79.463 270.938,79.639 270.000,79.698 C 269.062,79.757 268.125,79.698 267.188,79.698 C 266.250,79.698 265.312,79.698 264.375,79.698 C 263.438,79.698 262.500,79.639 261.562,79.698 C 260.625,79.757 259.688,79.874 258.750,80.050 C 257.812,80.227 256.875,80.638 255.938,80.756 C 255.000,80.873 254.062,80.991 253.125,80.756 C 252.188,80.521 251.250,79.580 250.312,79.345 C 249.375,79.110 248.438,79.404 247.500,79.345 C 246.562,79.286 245.625,79.169 244.688,78.992 C 243.750,78.816 242.812,78.346 241.875,78.287 C 240.938,78.228 240.000,78.522 239.062,78.640 C 238.125,78.757 237.188,78.992 236.250,78.992 C 235.312,78.992 234.375,78.875 233.438,78.640 C 232.500,78.405 231.562,77.817 230.625,77.582 C 229.688,77.347 228.750,77.464 227.812,77.229 C 226.875,76.994 225.938,76.465 225.000,76.171 C 224.062,75.877 223.125,75.584 222.188,75.466 C 221.250,75.348 220.312,75.407 219.375,75.466 C 218.438,75.525 217.500,75.701 216.562,75.819 C 215.625,75.936 214.688,76.289 213.750,76.171 C 212.812,76.054 211.875,75.407 210.938,75.113 C 210.000,74.819 209.062,74.702 208.125,74.408 C 207.188,74.114 206.250,73.585 205.312,73.350 C 204.375,73.115 203.438,72.821 202.500,72.997 C 201.562,73.174 200.625,73.938 199.688,74.408 C 198.750,74.878 197.812,75.407 196.875,75.819 C 195.938,76.230 195.000,76.406 194.062,76.877 C 193.125,77.347 192.188,78.228 191.250,78.640 C 190.312,79.051 189.375,78.992 188.438,79.345 C 187.500,79.698 186.562,80.168 185.625,80.756 C 184.688,81.343 183.750,82.107 182.812,82.872 C 181.875,83.636 180.938,84.752 180.000,85.340 C 179.062,85.928 178.125,85.987 177.188,86.398 C 176.250,86.809 175.312,87.221 174.375,87.809 C 173.438,88.396 172.500,89.631 171.562,89.924 C 170.625,90.218 169.688,89.748 168.750,89.572 C 167.812,89.395 166.875,89.043 165.938,88.866 C 165.000,88.690 164.062,88.749 163.125,88.514 C 162.188,88.279 161.250,87.632 160.312,87.456 C 159.375,87.280 158.438,87.573 157.500,87.456 C 156.562,87.338 155.625,86.868 154.688,86.751 C 153.750,86.633 152.812,86.633 151.875,86.751 C 150.938,86.868 150.000,87.338 149.062,87.456 C 148.125,87.573 147.188,87.397 146.250,87.456 C 145.312,87.515 144.375,87.809 143.438,87.809 C 142.500,87.809 141.562,87.573 140.625,87.456 C 139.688,87.338 138.750,87.280 137.812,87.103 C 136.875,86.927 135.938,86.457 135.000,86.398 C 134.062,86.339 133.125,86.633 132.188,86.751 C 131.250,86.868 130.312,86.927 129.375,87.103 C 128.438,87.280 127.500,87.691 126.562,87.809 C 125.625,87.926 124.688,87.691 123.750,87.809 C 122.812,87.926 121.875,88.455 120.938,88.514 C 120.000,88.573 119.062,88.396 118.125,88.161 C 117.188,87.926 116.250,87.515 115.312,87.103 C 114.375,86.692 113.438,85.987 112.500,85.693 C 111.562,85.399 110.625,85.516 109.688,85.340 C 108.750,85.164 107.812,84.635 106.875,84.635 C 105.938,84.635 105.000,84.929 104.062,85.340 C 103.125,85.751 102.188,86.751 101.250,87.103 C 100.312,87.456 99.375,87.103 98.438,87.456 C 97.500,87.809 96.562,88.690 95.625,89.219 C 94.688,89.748 93.750,90.160 92.812,90.630 C 91.875,91.100 90.938,91.688 90.000,92.040 C 89.062,92.393 88.125,92.334 87.188,92.746 C 86.250,93.157 85.312,94.215 84.375,94.509 C 83.438,94.803 82.500,94.509 81.562,94.509 C 80.625,94.509 79.688,94.509 78.750,94.509 C 77.812,94.509 76.875,94.391 75.938,94.509 C 75.000,94.626 74.062,95.097 73.125,95.214 C 72.188,95.332 71.250,95.390 70.312,95.214 C 69.375,95.038 68.438,94.568 67.500,94.156 C 66.562,93.745 65.625,93.039 64.688,92.746 C 63.750,92.452 62.812,92.275 61.875,92.393 C 60.938,92.510 60.000,93.039 59.062,93.451 C 58.125,93.862 57.188,94.156 56.250,94.861 C 55.312,95.567 54.375,97.683 53.438,97.683 C 52.500,97.683 51.562,95.155 50.625,94.861 C 49.688,94.568 48.750,95.449 47.812,95.919 C 46.875,96.390 45.938,97.271 45.000,97.683 C 44.062,98.094 43.125,98.153 42.188,98.388 C 41.250,98.623 40.312,98.976 39.375,99.093 C 38.438,99.211 37.500,98.917 36.562,99.093 C 35.625,99.270 34.688,99.857 33.750,100.151 C 32.812,100.445 31.875,100.621 30.938,100.856 C 30.000,101.092 29.062,101.268 28.125,101.562 C 27.188,101.856 26.250,102.267 25.312,102.620 C 24.375,102.972 23.438,103.501 22.500,103.678 C 21.562,103.854 20.625,103.736 19.688,103.678 C 18.750,103.619 17.812,103.560 16.875,103.325 C 15.938,103.090 15.000,102.385 14.062,102.267 C 13.125,102.149 12.188,102.502 11.250,102.620 C 10.312,102.737 9.375,102.914 8.438,102.972 C 7.500,103.031 6.562,102.914 5.625,102.972 C 4.688,103.031 3.750,103.207 2.812,103.325 C 1.875,103.442 0.469,103.619 0.000,103.678 Z" fill="#F82525"/>
</svg>