<?xml version="1.0" encoding="UTF-8"?>
<svg width="1440" height="140" viewBox="0 0 1440 140" 
     fill="none" xmlns="http://www.w3.org/2000/svg">
  <path d="M 0.000,34.912 C 0.469,35.382 1.875,37.204 2.812,37.733 C 3.750,38.262 4.688,38.027 5.625,38.086 C 6.562,38.144 7.500,37.968 8.438,38.086 C 9.375,38.203 10.312,38.673 11.250,38.791 C 12.188,38.908 13.125,38.615 14.062,38.791 C 15.000,38.967 15.938,39.673 16.875,39.849 C 17.812,40.025 18.750,40.260 19.688,39.849 C 20.625,39.437 21.562,37.968 22.500,37.380 C 23.438,36.793 24.375,36.851 25.312,36.322 C 26.250,35.793 27.188,34.500 28.125,34.207 C 29.062,33.913 30.000,34.559 30.938,34.559 C 31.875,34.559 32.812,34.089 33.750,34.207 C 34.688,34.324 35.625,35.206 36.562,35.264 C 37.500,35.323 38.438,34.618 39.375,34.559 C 40.312,34.500 41.250,34.853 42.188,34.912 C 43.125,34.971 44.062,34.912 45.000,34.912 C 45.938,34.912 46.875,34.912 47.812,34.912 C 48.750,34.912 49.688,34.853 50.625,34.912 C 51.562,34.971 52.500,34.912 53.438,35.264 C 54.375,35.617 55.312,36.675 56.250,37.028 C 57.188,37.380 58.125,37.145 59.062,37.380 C 60.000,37.615 60.938,38.380 61.875,38.438 C 62.812,38.497 63.750,37.674 64.688,37.733 C 65.625,37.792 66.562,38.497 67.500,38.791 C 68.438,39.085 69.375,39.614 70.312,39.496 C 71.250,39.379 72.188,38.144 73.125,38.086 C 74.062,38.027 75.000,39.026 75.938,39.144 C 76.875,39.261 77.812,38.908 78.750,38.791 C 79.688,38.673 80.625,38.497 81.562,38.438 C 82.500,38.380 83.438,38.438 84.375,38.438 C 85.312,38.438 86.250,38.497 87.188,38.438 C 88.125,38.380 89.062,38.262 90.000,38.086 C 90.938,37.909 91.875,37.557 92.812,37.380 C 93.750,37.204 94.688,37.028 95.625,37.028 C 96.562,37.028 97.500,37.380 98.438,37.380 C 99.375,37.380 100.312,37.086 101.250,37.028 C 102.188,36.969 103.125,36.851 104.062,37.028 C 105.000,37.204 105.938,37.851 106.875,38.086 C 107.812,38.321 108.750,38.380 109.688,38.438 C 110.625,38.497 111.562,38.321 112.500,38.438 C 113.438,38.556 114.375,39.026 115.312,39.144 C 116.250,39.261 117.188,39.202 118.125,39.144 C 119.062,39.085 120.000,39.085 120.938,38.791 C 121.875,38.497 122.812,37.498 123.750,37.380 C 124.688,37.263 125.625,38.086 126.562,38.086 C 127.500,38.086 128.438,37.439 129.375,37.380 C 130.312,37.322 131.250,37.733 132.188,37.733 C 133.125,37.733 134.062,37.615 135.000,37.380 C 135.938,37.145 136.875,36.205 137.812,36.322 C 138.750,36.440 139.688,37.792 140.625,38.086 C 141.562,38.380 142.500,38.027 143.438,38.086 C 144.375,38.144 145.312,38.321 146.250,38.438 C 147.188,38.556 148.125,38.791 149.062,38.791 C 150.000,38.791 150.938,38.438 151.875,38.438 C 152.812,38.438 153.750,38.615 154.688,38.791 C 155.625,38.967 156.562,39.261 157.500,39.496 C 158.438,39.731 159.375,40.260 160.312,40.202 C 161.250,40.143 162.188,38.850 163.125,39.144 C 164.062,39.437 165.000,41.495 165.938,41.965 C 166.875,42.435 167.812,42.024 168.750,41.965 C 169.688,41.906 170.625,41.612 171.562,41.612 C 172.500,41.612 173.438,42.200 174.375,41.965 C 175.312,41.730 176.250,40.789 177.188,40.202 C 178.125,39.614 179.062,38.850 180.000,38.438 C 180.938,38.027 181.875,38.086 182.812,37.733 C 183.750,37.380 184.688,36.910 185.625,36.322 C 186.562,35.735 187.500,35.206 188.438,34.207 C 189.375,33.207 190.312,31.092 191.250,30.327 C 192.188,29.563 193.125,29.740 194.062,29.622 C 195.000,29.505 195.938,29.446 196.875,29.622 C 197.812,29.798 198.750,30.504 199.688,30.680 C 200.625,30.856 201.562,30.680 202.500,30.680 C 203.438,30.680 204.375,30.621 205.312,30.680 C 206.250,30.739 207.188,30.856 208.125,31.033 C 209.062,31.209 210.000,31.562 210.938,31.738 C 211.875,31.914 212.812,32.091 213.750,32.091 C 214.688,32.091 215.625,31.914 216.562,31.738 C 217.500,31.562 218.438,30.974 219.375,31.033 C 220.312,31.092 221.250,31.914 222.188,32.091 C 223.125,32.267 224.062,32.032 225.000,32.091 C 225.938,32.149 226.875,32.561 227.812,32.443 C 228.750,32.326 229.688,31.385 230.625,31.385 C 231.562,31.385 232.500,32.443 233.438,32.443 C 234.375,32.443 235.312,31.562 236.250,31.385 C 237.188,31.209 238.125,31.385 239.062,31.385 C 240.000,31.385 240.938,31.385 241.875,31.385 C 242.812,31.385 243.750,31.444 244.688,31.385 C 245.625,31.327 246.562,31.150 247.500,31.033 C 248.438,30.915 249.375,30.856 250.312,30.680 C 251.250,30.504 252.188,30.386 253.125,29.975 C 254.062,29.563 255.000,28.505 255.938,28.212 C 256.875,27.918 257.812,28.212 258.750,28.212 C 259.688,28.212 260.625,28.329 261.562,28.212 C 262.500,28.094 263.438,27.683 264.375,27.506 C 265.312,27.330 266.250,27.154 267.188,27.154 C 268.125,27.154 269.062,27.624 270.000,27.506 C 270.938,27.389 271.875,26.683 272.812,26.448 C 273.750,26.213 274.688,26.096 275.625,26.096 C 276.562,26.096 277.500,26.507 278.438,26.448 C 279.375,26.390 280.312,25.978 281.250,25.743 C 282.188,25.508 283.125,25.038 284.062,25.038 C 285.000,25.038 285.938,25.684 286.875,25.743 C 287.812,25.802 288.750,25.567 289.688,25.390 C 290.625,25.214 291.562,24.861 292.500,24.685 C 293.438,24.509 294.375,24.332 295.312,24.332 C 296.250,24.332 297.188,24.803 298.125,24.685 C 299.062,24.568 300.000,23.745 300.938,23.627 C 301.875,23.510 302.812,23.862 303.750,23.980 C 304.688,24.097 305.625,24.097 306.562,24.332 C 307.500,24.568 308.438,25.273 309.375,25.390 C 310.312,25.508 311.250,25.155 312.188,25.038 C 313.125,24.920 314.062,24.861 315.000,24.685 C 315.938,24.509 316.875,23.980 317.812,23.980 C 318.750,23.980 319.688,24.509 320.625,24.685 C 321.562,24.861 322.500,24.979 323.438,25.038 C 324.375,25.097 325.312,24.920 326.250,25.038 C 327.188,25.155 328.125,25.567 329.062,25.743 C 330.000,25.919 330.938,25.802 331.875,26.096 C 332.812,26.390 333.750,27.212 334.688,27.506 C 335.625,27.800 336.562,27.859 337.500,27.859 C 338.438,27.859 339.375,27.448 340.312,27.506 C 341.250,27.565 342.188,28.153 343.125,28.212 C 344.062,28.270 345.000,27.800 345.938,27.859 C 346.875,27.918 347.812,28.447 348.750,28.564 C 349.688,28.682 350.625,28.447 351.562,28.564 C 352.500,28.682 353.438,29.093 354.375,29.270 C 355.312,29.446 356.250,29.387 357.188,29.622 C 358.125,29.857 359.062,30.680 360.000,30.680 C 360.938,30.680 361.875,29.681 362.812,29.622 C 363.750,29.563 364.688,30.092 365.625,30.327 C 366.562,30.563 367.500,30.739 368.438,31.033 C 369.375,31.327 370.312,31.620 371.250,32.091 C 372.188,32.561 373.125,33.325 374.062,33.854 C 375.000,34.383 375.938,34.971 376.875,35.264 C 377.812,35.558 378.750,35.558 379.688,35.617 C 380.625,35.676 381.562,35.264 382.500,35.617 C 383.438,35.970 384.375,37.028 385.312,37.733 C 386.250,38.438 387.188,39.320 388.125,39.849 C 389.062,40.378 390.000,40.672 390.938,40.907 C 391.875,41.142 392.812,40.789 393.750,41.259 C 394.688,41.730 395.625,43.140 396.562,43.728 C 397.500,44.316 398.438,44.610 399.375,44.786 C 400.312,44.962 401.250,44.786 402.188,44.786 C 403.125,44.786 404.062,45.021 405.000,44.786 C 405.938,44.551 406.875,43.552 407.812,43.375 C 408.750,43.199 409.688,43.904 410.625,43.728 C 411.562,43.552 412.500,42.729 413.438,42.317 C 414.375,41.906 415.312,41.495 416.250,41.259 C 417.188,41.024 418.125,40.907 419.062,40.907 C 420.000,40.907 420.938,41.377 421.875,41.259 C 422.812,41.142 423.750,40.260 424.688,40.202 C 425.625,40.143 426.562,40.789 427.500,40.907 C 428.438,41.024 429.375,40.789 430.312,40.907 C 431.250,41.024 432.188,41.436 433.125,41.612 C 434.062,41.788 435.000,41.671 435.938,41.965 C 436.875,42.259 437.812,43.081 438.750,43.375 C 439.688,43.669 440.625,43.610 441.562,43.728 C 442.500,43.846 443.438,43.904 444.375,44.081 C 445.312,44.257 446.250,44.316 447.188,44.786 C 448.125,45.256 449.062,46.490 450.000,46.902 C 450.938,47.313 451.875,47.254 452.812,47.254 C 453.750,47.254 454.688,47.019 455.625,46.902 C 456.562,46.784 457.500,46.784 458.438,46.549 C 459.375,46.314 460.312,46.138 461.250,45.491 C 462.188,44.845 463.125,43.375 464.062,42.670 C 465.000,41.965 465.938,41.553 466.875,41.259 C 467.812,40.966 468.750,40.907 469.688,40.907 C 470.625,40.907 471.562,41.201 472.500,41.259 C 473.438,41.318 474.375,41.259 475.312,41.259 C 476.250,41.259 477.188,41.142 478.125,41.259 C 479.062,41.377 480.000,41.788 480.938,41.965 C 481.875,42.141 482.812,42.082 483.750,42.317 C 484.688,42.552 485.625,43.081 486.562,43.375 C 487.500,43.669 488.438,43.963 489.375,44.081 C 490.312,44.198 491.250,43.963 492.188,44.081 C 493.125,44.198 494.062,44.492 495.000,44.786 C 495.938,45.080 496.875,45.609 497.812,45.844 C 498.750,46.079 499.688,46.079 500.625,46.196 C 501.562,46.314 502.500,46.373 503.438,46.549 C 504.375,46.725 505.312,47.137 506.250,47.254 C 507.188,47.372 508.125,47.372 509.062,47.254 C 510.000,47.137 510.938,46.725 511.875,46.549 C 512.812,46.373 513.750,46.314 514.688,46.196 C 515.625,46.079 516.562,46.020 517.500,45.844 C 518.438,45.668 519.375,45.432 520.312,45.139 C 521.250,44.845 522.188,44.316 523.125,44.081 C 524.062,43.846 525.000,43.846 525.938,43.728 C 526.875,43.610 527.812,43.610 528.750,43.375 C 529.688,43.140 530.625,42.788 531.562,42.317 C 532.500,41.847 533.438,41.083 534.375,40.554 C 535.312,40.025 536.250,39.320 537.188,39.144 C 538.125,38.967 539.062,39.496 540.000,39.496 C 540.938,39.496 541.875,39.085 542.812,39.144 C 543.750,39.202 544.688,39.790 545.625,39.849 C 546.562,39.908 547.500,39.731 548.438,39.496 C 549.375,39.261 550.312,38.673 551.250,38.438 C 552.188,38.203 553.125,38.027 554.062,38.086 C 555.000,38.144 555.938,38.556 556.875,38.791 C 557.812,39.026 558.750,39.144 559.688,39.496 C 560.625,39.849 561.562,40.789 562.500,40.907 C 563.438,41.024 564.375,40.554 565.312,40.202 C 566.250,39.849 567.188,39.496 568.125,38.791 C 569.062,38.086 570.000,36.675 570.938,35.970 C 571.875,35.264 572.812,35.088 573.750,34.559 C 574.688,34.030 575.625,33.560 576.562,32.796 C 577.500,32.032 578.438,30.621 579.375,29.975 C 580.312,29.328 581.250,28.682 582.188,28.917 C 583.125,29.152 584.062,30.621 585.000,31.385 C 585.938,32.149 586.875,33.031 587.812,33.501 C 588.750,33.971 589.688,34.089 590.625,34.207 C 591.562,34.324 592.500,34.265 593.438,34.207 C 594.375,34.148 595.312,33.971 596.250,33.854 C 597.188,33.736 598.125,33.560 599.062,33.501 C 600.000,33.442 600.938,33.442 601.875,33.501 C 602.812,33.560 603.750,33.678 604.688,33.854 C 605.625,34.030 606.562,34.442 607.500,34.559 C 608.438,34.677 609.375,34.618 610.312,34.559 C 611.250,34.500 612.188,34.324 613.125,34.207 C 614.062,34.089 615.000,34.089 615.938,33.854 C 616.875,33.619 617.812,32.914 618.750,32.796 C 619.688,32.678 620.625,33.207 621.562,33.149 C 622.500,33.090 623.438,32.855 624.375,32.443 C 625.312,32.032 626.250,30.798 627.188,30.680 C 628.125,30.563 629.062,31.856 630.000,31.738 C 630.938,31.620 631.875,30.974 632.812,29.975 C 633.750,28.976 634.688,26.977 635.625,25.743 C 636.562,24.509 637.500,23.275 638.438,22.569 C 639.375,21.864 640.312,21.511 641.250,21.511 C 642.188,21.511 643.125,22.393 644.062,22.569 C 645.000,22.746 645.938,22.922 646.875,22.569 C 647.812,22.217 648.750,21.159 649.688,20.453 C 650.625,19.748 651.562,18.338 652.500,18.338 C 653.438,18.338 654.375,19.866 655.312,20.453 C 656.250,21.041 657.188,21.864 658.125,21.864 C 659.062,21.864 660.000,20.747 660.938,20.453 C 661.875,20.160 662.812,20.042 663.750,20.101 C 664.688,20.160 665.625,20.453 666.562,20.806 C 667.500,21.159 668.438,21.688 669.375,22.217 C 670.312,22.746 671.250,23.568 672.188,23.980 C 673.125,24.391 674.062,24.509 675.000,24.685 C 675.938,24.861 676.875,24.979 677.812,25.038 C 678.750,25.097 679.688,24.920 680.625,25.038 C 681.562,25.155 682.500,25.861 683.438,25.743 C 684.375,25.626 685.312,24.450 686.250,24.332 C 687.188,24.215 688.125,24.803 689.062,25.038 C 690.000,25.273 690.938,25.449 691.875,25.743 C 692.812,26.037 693.750,26.625 694.688,26.801 C 695.625,26.977 696.562,26.801 697.500,26.801 C 698.438,26.801 699.375,26.625 700.312,26.801 C 701.250,26.977 702.188,27.565 703.125,27.859 C 704.062,28.153 705.000,28.329 705.938,28.564 C 706.875,28.799 707.812,29.270 708.750,29.270 C 709.688,29.270 710.625,28.623 711.562,28.564 C 712.500,28.505 713.438,28.976 714.375,28.917 C 715.312,28.858 716.250,28.270 717.188,28.212 C 718.125,28.153 719.062,28.623 720.000,28.564 C 720.938,28.505 721.875,27.976 722.812,27.859 C 723.750,27.741 724.688,27.976 725.625,27.859 C 726.562,27.741 727.500,27.271 728.438,27.154 C 729.375,27.036 730.312,27.154 731.250,27.154 C 732.188,27.154 733.125,27.154 734.062,27.154 C 735.000,27.154 735.938,26.977 736.875,27.154 C 737.812,27.330 738.750,27.918 739.688,28.212 C 740.625,28.505 741.562,28.741 742.500,28.917 C 743.438,29.093 744.375,29.270 745.312,29.270 C 746.250,29.270 747.188,28.741 748.125,28.917 C 749.062,29.093 750.000,29.975 750.938,30.327 C 751.875,30.680 752.812,30.798 753.750,31.033 C 754.688,31.268 755.625,31.503 756.562,31.738 C 757.500,31.973 758.438,32.385 759.375,32.443 C 760.312,32.502 761.250,32.032 762.188,32.091 C 763.125,32.149 764.062,32.678 765.000,32.796 C 765.938,32.914 766.875,32.796 767.812,32.796 C 768.750,32.796 769.688,32.796 770.625,32.796 C 771.562,32.796 772.500,32.737 773.438,32.796 C 774.375,32.855 775.312,33.207 776.250,33.149 C 777.188,33.090 778.125,32.561 779.062,32.443 C 780.000,32.326 780.938,32.443 781.875,32.443 C 782.812,32.443 783.750,32.678 784.688,32.443 C 785.625,32.208 786.562,31.268 787.500,31.033 C 788.438,30.798 789.375,30.856 790.312,31.033 C 791.250,31.209 792.188,31.797 793.125,32.091 C 794.062,32.385 795.000,32.737 795.938,32.796 C 796.875,32.855 797.812,32.561 798.750,32.443 C 799.688,32.326 800.625,32.032 801.562,32.091 C 802.500,32.149 803.438,32.502 804.375,32.796 C 805.312,33.090 806.250,33.501 807.188,33.854 C 808.125,34.207 809.062,34.618 810.000,34.912 C 810.938,35.206 811.875,35.441 812.812,35.617 C 813.750,35.793 814.688,35.911 815.625,35.970 C 816.562,36.029 817.500,35.676 818.438,35.970 C 819.375,36.264 820.312,37.263 821.250,37.733 C 822.188,38.203 823.125,38.380 824.062,38.791 C 825.000,39.202 825.938,39.849 826.875,40.202 C 827.812,40.554 828.750,40.495 829.688,40.907 C 830.625,41.318 831.562,42.200 832.500,42.670 C 833.438,43.140 834.375,43.317 835.312,43.728 C 836.250,44.139 837.188,44.433 838.125,45.139 C 839.062,45.844 840.000,47.372 840.938,47.960 C 841.875,48.547 842.812,48.547 843.750,48.665 C 844.688,48.783 845.625,48.430 846.562,48.665 C 847.500,48.900 848.438,50.076 849.375,50.076 C 850.312,50.076 851.250,48.724 852.188,48.665 C 853.125,48.606 854.062,49.605 855.000,49.723 C 855.938,49.840 856.875,49.664 857.812,49.370 C 858.750,49.076 859.688,48.371 860.625,47.960 C 861.562,47.548 862.500,47.196 863.438,46.902 C 864.375,46.608 865.312,46.138 866.250,46.196 C 867.188,46.255 868.125,47.078 869.062,47.254 C 870.000,47.431 870.938,47.313 871.875,47.254 C 872.812,47.196 873.750,47.490 874.688,46.902 C 875.625,46.314 876.562,44.610 877.500,43.728 C 878.438,42.846 879.375,42.141 880.312,41.612 C 881.250,41.083 882.188,40.789 883.125,40.554 C 884.062,40.319 885.000,40.143 885.938,40.202 C 886.875,40.260 887.812,40.672 888.750,40.907 C 889.688,41.142 890.625,40.907 891.562,41.612 C 892.500,42.317 893.438,44.198 894.375,45.139 C 895.312,46.079 896.250,46.549 897.188,47.254 C 898.125,47.960 899.062,49.312 900.000,49.370 C 900.938,49.429 901.875,48.077 902.812,47.607 C 903.750,47.137 904.688,46.961 905.625,46.549 C 906.562,46.138 907.500,45.491 908.438,45.139 C 909.375,44.786 910.312,44.198 911.250,44.433 C 912.188,44.668 913.125,45.726 914.062,46.549 C 915.000,47.372 915.938,48.136 916.875,49.370 C 917.812,50.605 918.750,52.779 919.688,53.955 C 920.625,55.130 921.562,56.482 922.500,56.423 C 923.438,56.364 924.375,54.249 925.312,53.602 C 926.250,52.955 927.188,52.838 928.125,52.544 C 929.062,52.250 930.000,51.898 930.938,51.839 C 931.875,51.780 932.812,52.015 933.750,52.191 C 934.688,52.368 935.625,53.191 936.562,52.897 C 937.500,52.603 938.438,50.957 939.375,50.428 C 940.312,49.899 941.250,50.134 942.188,49.723 C 943.125,49.312 944.062,48.606 945.000,47.960 C 945.938,47.313 946.875,45.961 947.812,45.844 C 948.750,45.726 949.688,46.843 950.625,47.254 C 951.562,47.666 952.500,48.077 953.438,48.312 C 954.375,48.547 955.312,48.489 956.250,48.665 C 957.188,48.841 958.125,49.194 959.062,49.370 C 960.000,49.547 960.938,49.664 961.875,49.723 C 962.812,49.782 963.750,49.782 964.688,49.723 C 965.625,49.664 966.562,49.312 967.500,49.370 C 968.438,49.429 969.375,49.782 970.312,50.076 C 971.250,50.369 972.188,50.781 973.125,51.134 C 974.062,51.486 975.000,51.721 975.938,52.191 C 976.875,52.662 977.812,53.602 978.750,53.955 C 979.688,54.307 980.625,53.955 981.562,54.307 C 982.500,54.660 983.438,55.659 984.375,56.071 C 985.312,56.482 986.250,56.423 987.188,56.776 C 988.125,57.128 989.062,57.775 990.000,58.186 C 990.938,58.598 991.875,59.538 992.812,59.244 C 993.750,58.950 994.688,57.364 995.625,56.423 C 996.562,55.483 997.500,54.601 998.438,53.602 C 999.375,52.603 1000.312,51.310 1001.250,50.428 C 1002.188,49.547 1003.125,49.135 1004.062,48.312 C 1005.000,47.490 1005.938,46.432 1006.875,45.491 C 1007.812,44.551 1008.750,43.787 1009.688,42.670 C 1010.625,41.553 1011.562,39.908 1012.500,38.791 C 1013.438,37.674 1014.375,36.499 1015.312,35.970 C 1016.250,35.441 1017.188,35.676 1018.125,35.617 C 1019.062,35.558 1020.000,35.264 1020.938,35.617 C 1021.875,35.970 1022.812,37.439 1023.750,37.733 C 1024.688,38.027 1025.625,37.439 1026.562,37.380 C 1027.500,37.322 1028.438,37.498 1029.375,37.380 C 1030.312,37.263 1031.250,36.910 1032.188,36.675 C 1033.125,36.440 1034.062,35.970 1035.000,35.970 C 1035.938,35.970 1036.875,36.616 1037.812,36.675 C 1038.750,36.734 1039.688,36.616 1040.625,36.322 C 1041.562,36.029 1042.500,34.971 1043.438,34.912 C 1044.375,34.853 1045.312,35.735 1046.250,35.970 C 1047.188,36.205 1048.125,36.381 1049.062,36.322 C 1050.000,36.264 1050.938,35.970 1051.875,35.617 C 1052.812,35.264 1053.750,34.500 1054.688,34.207 C 1055.625,33.913 1056.562,33.971 1057.500,33.854 C 1058.438,33.736 1059.375,33.619 1060.312,33.501 C 1061.250,33.384 1062.188,33.149 1063.125,33.149 C 1064.062,33.149 1065.000,33.501 1065.938,33.501 C 1066.875,33.501 1067.812,32.914 1068.750,33.149 C 1069.688,33.384 1070.625,34.442 1071.562,34.912 C 1072.500,35.382 1073.438,35.617 1074.375,35.970 C 1075.312,36.322 1076.250,36.558 1077.188,37.028 C 1078.125,37.498 1079.062,38.262 1080.000,38.791 C 1080.938,39.320 1081.875,39.731 1082.812,40.202 C 1083.750,40.672 1084.688,40.907 1085.625,41.612 C 1086.562,42.317 1087.500,43.669 1088.438,44.433 C 1089.375,45.197 1090.312,45.785 1091.250,46.196 C 1092.188,46.608 1093.125,46.725 1094.062,46.902 C 1095.000,47.078 1095.938,47.078 1096.875,47.254 C 1097.812,47.431 1098.750,48.018 1099.688,47.960 C 1100.625,47.901 1101.562,47.019 1102.500,46.902 C 1103.438,46.784 1104.375,47.196 1105.312,47.254 C 1106.250,47.313 1107.188,47.137 1108.125,47.254 C 1109.062,47.372 1110.000,47.960 1110.938,47.960 C 1111.875,47.960 1112.812,47.372 1113.750,47.254 C 1114.688,47.137 1115.625,47.196 1116.562,47.254 C 1117.500,47.313 1118.438,47.490 1119.375,47.607 C 1120.312,47.725 1121.250,48.018 1122.188,47.960 C 1123.125,47.901 1124.062,47.372 1125.000,47.254 C 1125.938,47.137 1126.875,47.313 1127.812,47.254 C 1128.750,47.196 1129.688,46.902 1130.625,46.902 C 1131.562,46.902 1132.500,47.196 1133.438,47.254 C 1134.375,47.313 1135.312,47.196 1136.250,47.254 C 1137.188,47.313 1138.125,47.666 1139.062,47.607 C 1140.000,47.548 1140.938,46.843 1141.875,46.902 C 1142.812,46.961 1143.750,47.607 1144.688,47.960 C 1145.625,48.312 1146.562,48.959 1147.500,49.018 C 1148.438,49.076 1149.375,48.783 1150.312,48.312 C 1151.250,47.842 1152.188,46.725 1153.125,46.196 C 1154.062,45.668 1155.000,45.315 1155.938,45.139 C 1156.875,44.962 1157.812,45.491 1158.750,45.139 C 1159.688,44.786 1160.625,43.317 1161.562,43.023 C 1162.500,42.729 1163.438,43.317 1164.375,43.375 C 1165.312,43.434 1166.250,43.317 1167.188,43.375 C 1168.125,43.434 1169.062,43.787 1170.000,43.728 C 1170.938,43.669 1171.875,43.317 1172.812,43.023 C 1173.750,42.729 1174.688,42.317 1175.625,41.965 C 1176.562,41.612 1177.500,41.083 1178.438,40.907 C 1179.375,40.730 1180.312,41.024 1181.250,40.907 C 1182.188,40.789 1183.125,40.319 1184.062,40.202 C 1185.000,40.084 1185.938,40.143 1186.875,40.202 C 1187.812,40.260 1188.750,40.378 1189.688,40.554 C 1190.625,40.730 1191.562,40.966 1192.500,41.259 C 1193.438,41.553 1194.375,41.906 1195.312,42.317 C 1196.250,42.729 1197.188,43.258 1198.125,43.728 C 1199.062,44.198 1200.000,44.668 1200.938,45.139 C 1201.875,45.609 1202.812,46.432 1203.750,46.549 C 1204.688,46.667 1205.625,45.961 1206.562,45.844 C 1207.500,45.726 1208.438,45.668 1209.375,45.844 C 1210.312,46.020 1211.250,46.784 1212.188,46.902 C 1213.125,47.019 1214.062,46.608 1215.000,46.549 C 1215.938,46.490 1216.875,46.432 1217.812,46.549 C 1218.750,46.667 1219.688,47.078 1220.625,47.254 C 1221.562,47.431 1222.500,47.490 1223.438,47.607 C 1224.375,47.725 1225.312,47.901 1226.250,47.960 C 1227.188,48.018 1228.125,48.077 1229.062,47.960 C 1230.000,47.842 1230.938,47.254 1231.875,47.254 C 1232.812,47.254 1233.750,47.842 1234.688,47.960 C 1235.625,48.077 1236.562,47.901 1237.500,47.960 C 1238.438,48.018 1239.375,48.371 1240.312,48.312 C 1241.250,48.254 1242.188,47.548 1243.125,47.607 C 1244.062,47.666 1245.000,48.665 1245.938,48.665 C 1246.875,48.665 1247.812,47.783 1248.750,47.607 C 1249.688,47.431 1250.625,47.607 1251.562,47.607 C 1252.500,47.607 1253.438,47.607 1254.375,47.607 C 1255.312,47.607 1256.250,47.666 1257.188,47.607 C 1258.125,47.548 1259.062,47.372 1260.000,47.254 C 1260.938,47.137 1261.875,47.137 1262.812,46.902 C 1263.750,46.667 1264.688,46.314 1265.625,45.844 C 1266.562,45.374 1267.500,44.316 1268.438,44.081 C 1269.375,43.846 1270.312,44.433 1271.250,44.433 C 1272.188,44.433 1273.125,44.257 1274.062,44.081 C 1275.000,43.904 1275.938,43.552 1276.875,43.375 C 1277.812,43.199 1278.750,42.964 1279.688,43.023 C 1280.625,43.081 1281.562,43.787 1282.500,43.728 C 1283.438,43.669 1284.375,42.905 1285.312,42.670 C 1286.250,42.435 1287.188,42.317 1288.125,42.317 C 1289.062,42.317 1290.000,42.788 1290.938,42.670 C 1291.875,42.552 1292.812,41.847 1293.750,41.612 C 1294.688,41.377 1295.625,41.201 1296.562,41.259 C 1297.500,41.318 1298.438,41.906 1299.375,41.965 C 1300.312,42.024 1301.250,41.788 1302.188,41.612 C 1303.125,41.436 1304.062,41.083 1305.000,40.907 C 1305.938,40.730 1306.875,40.613 1307.812,40.554 C 1308.750,40.495 1309.688,40.672 1310.625,40.554 C 1311.562,40.437 1312.500,39.908 1313.438,39.849 C 1314.375,39.790 1315.312,40.084 1316.250,40.202 C 1317.188,40.319 1318.125,40.319 1319.062,40.554 C 1320.000,40.789 1320.938,41.495 1321.875,41.612 C 1322.812,41.730 1323.750,41.377 1324.688,41.259 C 1325.625,41.142 1326.562,41.083 1327.500,40.907 C 1328.438,40.730 1329.375,40.260 1330.312,40.202 C 1331.250,40.143 1332.188,40.437 1333.125,40.554 C 1334.062,40.672 1335.000,40.789 1335.938,40.907 C 1336.875,41.024 1337.812,41.083 1338.750,41.259 C 1339.688,41.436 1340.625,41.847 1341.562,41.965 C 1342.500,42.082 1343.438,41.730 1344.375,41.965 C 1345.312,42.200 1346.250,43.023 1347.188,43.375 C 1348.125,43.728 1349.062,44.022 1350.000,44.081 C 1350.938,44.139 1351.875,43.728 1352.812,43.728 C 1353.750,43.728 1354.688,44.022 1355.625,44.081 C 1356.562,44.139 1357.500,43.963 1358.438,44.081 C 1359.375,44.198 1360.312,44.727 1361.250,44.786 C 1362.188,44.845 1363.125,44.374 1364.062,44.433 C 1365.000,44.492 1365.938,44.903 1366.875,45.139 C 1367.812,45.374 1368.750,45.609 1369.688,45.844 C 1370.625,46.079 1371.562,46.255 1372.500,46.549 C 1373.438,46.843 1374.375,47.313 1375.312,47.607 C 1376.250,47.901 1377.188,47.960 1378.125,48.312 C 1379.062,48.665 1380.000,49.488 1380.938,49.723 C 1381.875,49.958 1382.812,49.370 1383.750,49.723 C 1384.688,50.076 1385.625,51.310 1386.562,51.839 C 1387.500,52.368 1388.438,52.544 1389.375,52.897 C 1390.312,53.249 1391.250,53.602 1392.188,53.955 C 1393.125,54.307 1394.062,54.601 1395.000,55.013 C 1395.938,55.424 1396.875,56.188 1397.812,56.423 C 1398.750,56.658 1399.688,56.306 1400.625,56.423 C 1401.562,56.541 1402.500,56.952 1403.438,57.128 C 1404.375,57.305 1405.312,57.364 1406.250,57.481 C 1407.188,57.599 1408.125,57.834 1409.062,57.834 C 1410.000,57.834 1410.938,57.599 1411.875,57.481 C 1412.812,57.364 1413.750,57.305 1414.688,57.128 C 1415.625,56.952 1416.562,56.599 1417.500,56.423 C 1418.438,56.247 1419.375,56.247 1420.312,56.071 C 1421.250,55.894 1422.188,55.542 1423.125,55.365 C 1424.062,55.189 1425.000,55.130 1425.938,55.013 C 1426.875,54.895 1427.812,54.719 1428.750,54.660 C 1429.688,54.601 1430.625,54.660 1431.562,54.660 C 1432.500,54.660 1433.438,54.660 1434.375,54.660 C 1435.312,54.660 1436.719,54.660 1437.188,54.660 L 1437.188,107.909 C 1436.719,107.792 1435.312,107.263 1434.375,107.204 C 1433.438,107.145 1432.500,107.615 1431.562,107.557 C 1430.625,107.498 1429.688,107.028 1428.750,106.851 C 1427.812,106.675 1426.875,106.734 1425.938,106.499 C 1425.000,106.264 1424.062,105.617 1423.125,105.441 C 1422.188,105.264 1421.250,105.088 1420.312,105.441 C 1419.375,105.793 1418.438,106.969 1417.500,107.557 C 1416.562,108.144 1415.625,108.321 1414.688,108.967 C 1413.750,109.614 1412.812,111.083 1411.875,111.436 C 1410.938,111.788 1410.000,111.142 1409.062,111.083 C 1408.125,111.024 1407.188,111.259 1406.250,111.083 C 1405.312,110.907 1404.375,110.143 1403.438,110.025 C 1402.500,109.908 1401.562,110.319 1400.625,110.378 C 1399.688,110.437 1398.750,110.319 1397.812,110.378 C 1396.875,110.437 1395.938,110.672 1395.000,110.730 C 1394.062,110.789 1393.125,110.789 1392.188,110.730 C 1391.250,110.672 1390.312,110.495 1389.375,110.378 C 1388.438,110.260 1387.500,110.378 1386.562,110.025 C 1385.625,109.673 1384.688,108.556 1383.750,108.262 C 1382.812,107.968 1381.875,108.497 1380.938,108.262 C 1380.000,108.027 1379.062,106.969 1378.125,106.851 C 1377.188,106.734 1376.250,107.557 1375.312,107.557 C 1374.375,107.557 1373.438,107.145 1372.500,106.851 C 1371.562,106.558 1370.625,105.735 1369.688,105.793 C 1368.750,105.852 1367.812,107.086 1366.875,107.204 C 1365.938,107.322 1365.000,106.675 1364.062,106.499 C 1363.125,106.322 1362.188,106.087 1361.250,106.146 C 1360.312,106.205 1359.375,106.734 1358.438,106.851 C 1357.500,106.969 1356.562,106.851 1355.625,106.851 C 1354.688,106.851 1353.750,106.851 1352.812,106.851 C 1351.875,106.851 1350.938,106.734 1350.000,106.851 C 1349.062,106.969 1348.125,107.380 1347.188,107.557 C 1346.250,107.733 1345.312,107.792 1344.375,107.909 C 1343.438,108.027 1342.500,108.203 1341.562,108.262 C 1340.625,108.321 1339.688,108.203 1338.750,108.262 C 1337.812,108.321 1336.875,108.732 1335.938,108.615 C 1335.000,108.497 1334.062,107.851 1333.125,107.557 C 1332.188,107.263 1331.250,107.028 1330.312,106.851 C 1329.375,106.675 1328.438,106.616 1327.500,106.499 C 1326.562,106.381 1325.625,106.205 1324.688,106.146 C 1323.750,106.087 1322.812,106.029 1321.875,106.146 C 1320.938,106.264 1320.000,106.558 1319.062,106.851 C 1318.125,107.145 1317.188,107.851 1316.250,107.909 C 1315.312,107.968 1314.375,107.204 1313.438,107.204 C 1312.500,107.204 1311.562,107.851 1310.625,107.909 C 1309.688,107.968 1308.750,107.557 1307.812,107.557 C 1306.875,107.557 1305.938,107.674 1305.000,107.909 C 1304.062,108.144 1303.125,109.085 1302.188,108.967 C 1301.250,108.850 1300.312,107.498 1299.375,107.204 C 1298.438,106.910 1297.500,107.263 1296.562,107.204 C 1295.625,107.145 1294.688,106.969 1293.750,106.851 C 1292.812,106.734 1291.875,106.558 1290.938,106.499 C 1290.000,106.440 1289.062,106.499 1288.125,106.499 C 1287.188,106.499 1286.250,106.558 1285.312,106.499 C 1284.375,106.440 1283.438,106.381 1282.500,106.146 C 1281.562,105.911 1280.625,105.088 1279.688,105.088 C 1278.750,105.088 1277.812,106.440 1276.875,106.146 C 1275.938,105.852 1275.000,103.795 1274.062,103.325 C 1273.125,102.855 1272.188,103.266 1271.250,103.325 C 1270.312,103.384 1269.375,103.678 1268.438,103.678 C 1267.500,103.678 1266.562,103.090 1265.625,103.325 C 1264.688,103.560 1263.750,104.559 1262.812,105.088 C 1261.875,105.617 1260.938,106.029 1260.000,106.499 C 1259.062,106.969 1258.125,107.498 1257.188,107.909 C 1256.250,108.321 1255.312,108.438 1254.375,108.967 C 1253.438,109.496 1252.500,110.143 1251.562,111.083 C 1250.625,112.024 1249.688,113.846 1248.750,114.610 C 1247.812,115.374 1246.875,115.491 1245.938,115.668 C 1245.000,115.844 1244.062,115.844 1243.125,115.668 C 1242.188,115.491 1241.250,114.786 1240.312,114.610 C 1239.375,114.433 1238.438,114.610 1237.500,114.610 C 1236.562,114.610 1235.625,114.668 1234.688,114.610 C 1233.750,114.551 1232.812,114.433 1231.875,114.257 C 1230.938,114.081 1230.000,113.728 1229.062,113.552 C 1228.125,113.375 1227.188,113.199 1226.250,113.199 C 1225.312,113.199 1224.375,113.375 1223.438,113.552 C 1222.500,113.728 1221.562,114.257 1220.625,114.257 C 1219.688,114.257 1218.750,113.728 1217.812,113.552 C 1216.875,113.375 1215.938,113.317 1215.000,113.199 C 1214.062,113.081 1213.125,112.788 1212.188,112.846 C 1211.250,112.905 1210.312,113.610 1209.375,113.552 C 1208.438,113.493 1207.500,112.435 1206.562,112.494 C 1205.625,112.552 1204.688,113.669 1203.750,113.904 C 1202.812,114.139 1201.875,113.904 1200.938,113.904 C 1200.000,113.904 1199.062,113.904 1198.125,113.904 C 1197.188,113.904 1196.250,113.904 1195.312,113.904 C 1194.375,113.904 1193.438,113.787 1192.500,113.904 C 1191.562,114.022 1190.625,114.374 1189.688,114.610 C 1188.750,114.845 1187.812,114.845 1186.875,115.315 C 1185.938,115.785 1185.000,117.137 1184.062,117.431 C 1183.125,117.725 1182.188,117.078 1181.250,117.078 C 1180.312,117.078 1179.375,117.313 1178.438,117.431 C 1177.500,117.548 1176.562,117.607 1175.625,117.783 C 1174.688,117.960 1173.750,118.489 1172.812,118.489 C 1171.875,118.489 1170.938,117.725 1170.000,117.783 C 1169.062,117.842 1168.125,118.606 1167.188,118.841 C 1166.250,119.076 1165.312,119.194 1164.375,119.194 C 1163.438,119.194 1162.500,118.783 1161.562,118.841 C 1160.625,118.900 1159.688,119.312 1158.750,119.547 C 1157.812,119.782 1156.875,120.311 1155.938,120.252 C 1155.000,120.193 1154.062,119.253 1153.125,119.194 C 1152.188,119.135 1151.250,119.664 1150.312,119.899 C 1149.375,120.134 1148.438,120.487 1147.500,120.605 C 1146.562,120.722 1145.625,120.546 1144.688,120.605 C 1143.750,120.663 1142.812,120.781 1141.875,120.957 C 1140.938,121.134 1140.000,121.604 1139.062,121.662 C 1138.125,121.721 1137.188,121.427 1136.250,121.310 C 1135.312,121.192 1134.375,121.192 1133.438,120.957 C 1132.500,120.722 1131.562,120.017 1130.625,119.899 C 1129.688,119.782 1128.750,120.134 1127.812,120.252 C 1126.875,120.369 1125.938,120.428 1125.000,120.605 C 1124.062,120.781 1123.125,121.251 1122.188,121.310 C 1121.250,121.369 1120.312,121.075 1119.375,120.957 C 1118.438,120.840 1117.500,120.722 1116.562,120.605 C 1115.625,120.487 1114.688,120.428 1113.750,120.252 C 1112.812,120.076 1111.875,119.664 1110.938,119.547 C 1110.000,119.429 1109.062,119.782 1108.125,119.547 C 1107.188,119.312 1106.250,118.489 1105.312,118.136 C 1104.375,117.783 1103.438,117.490 1102.500,117.431 C 1101.562,117.372 1100.625,117.783 1099.688,117.783 C 1098.750,117.783 1097.812,117.490 1096.875,117.431 C 1095.938,117.372 1095.000,117.548 1094.062,117.431 C 1093.125,117.313 1092.188,116.843 1091.250,116.725 C 1090.312,116.608 1089.375,116.843 1088.438,116.725 C 1087.500,116.608 1086.562,116.196 1085.625,116.020 C 1084.688,115.844 1083.750,115.844 1082.812,115.668 C 1081.875,115.491 1080.938,114.962 1080.000,114.962 C 1079.062,114.962 1078.125,115.668 1077.188,115.668 C 1076.250,115.668 1075.312,115.197 1074.375,114.962 C 1073.438,114.727 1072.500,114.551 1071.562,114.257 C 1070.625,113.963 1069.688,113.669 1068.750,113.199 C 1067.812,112.729 1066.875,111.906 1065.938,111.436 C 1065.000,110.966 1064.062,110.672 1063.125,110.378 C 1062.188,110.084 1061.250,109.790 1060.312,109.673 C 1059.375,109.555 1058.438,109.908 1057.500,109.673 C 1056.562,109.437 1055.625,108.850 1054.688,108.262 C 1053.750,107.674 1052.812,106.734 1051.875,106.146 C 1050.938,105.558 1050.000,105.088 1049.062,104.736 C 1048.125,104.383 1047.188,104.559 1046.250,104.030 C 1045.312,103.501 1044.375,102.091 1043.438,101.562 C 1042.500,101.033 1041.562,101.033 1040.625,100.856 C 1039.688,100.680 1038.750,100.504 1037.812,100.504 C 1036.875,100.504 1035.938,100.680 1035.000,100.856 C 1034.062,101.033 1033.125,101.385 1032.188,101.562 C 1031.250,101.738 1030.312,101.679 1029.375,101.914 C 1028.438,102.149 1027.500,102.620 1026.562,102.972 C 1025.625,103.325 1024.688,103.795 1023.750,104.030 C 1022.812,104.265 1021.875,104.383 1020.938,104.383 C 1020.000,104.383 1019.062,103.913 1018.125,104.030 C 1017.188,104.148 1016.250,104.971 1015.312,105.088 C 1014.375,105.206 1013.438,104.853 1012.500,104.736 C 1011.562,104.618 1010.625,104.559 1009.688,104.383 C 1008.750,104.207 1007.812,103.854 1006.875,103.678 C 1005.938,103.501 1005.000,103.560 1004.062,103.325 C 1003.125,103.090 1002.188,102.561 1001.250,102.267 C 1000.312,101.973 999.375,101.738 998.438,101.562 C 997.500,101.385 996.562,101.327 995.625,101.209 C 994.688,101.092 993.750,101.268 992.812,100.856 C 991.875,100.445 990.938,99.211 990.000,98.741 C 989.062,98.270 988.125,98.094 987.188,98.035 C 986.250,97.976 985.312,98.270 984.375,98.388 C 983.438,98.505 982.500,98.505 981.562,98.741 C 980.625,98.976 979.688,99.270 978.750,99.798 C 977.812,100.327 976.875,101.268 975.938,101.914 C 975.000,102.561 974.062,103.266 973.125,103.678 C 972.188,104.089 971.250,104.324 970.312,104.383 C 969.375,104.442 968.438,104.148 967.500,104.030 C 966.562,103.913 965.625,103.678 964.688,103.678 C 963.750,103.678 962.812,104.089 961.875,104.030 C 960.938,103.971 960.000,103.442 959.062,103.325 C 958.125,103.207 957.188,103.560 956.250,103.325 C 955.312,103.090 954.375,102.267 953.438,101.914 C 952.500,101.562 951.562,101.268 950.625,101.209 C 949.688,101.150 948.750,101.620 947.812,101.562 C 946.875,101.503 945.938,101.150 945.000,100.856 C 944.062,100.563 943.125,100.092 942.188,99.798 C 941.250,99.505 940.312,99.270 939.375,99.093 C 938.438,98.917 937.500,98.858 936.562,98.741 C 935.625,98.623 934.688,98.505 933.750,98.388 C 932.812,98.270 931.875,98.035 930.938,98.035 C 930.000,98.035 929.062,98.212 928.125,98.388 C 927.188,98.564 926.250,98.917 925.312,99.093 C 924.375,99.270 923.438,99.270 922.500,99.446 C 921.562,99.622 920.625,99.916 919.688,100.151 C 918.750,100.386 917.812,100.563 916.875,100.856 C 915.938,101.150 915.000,101.738 914.062,101.914 C 913.125,102.091 912.188,101.738 911.250,101.914 C 910.312,102.091 909.375,102.561 908.438,102.972 C 907.500,103.384 906.562,103.913 905.625,104.383 C 904.688,104.853 903.750,105.500 902.812,105.793 C 901.875,106.087 900.938,106.146 900.000,106.146 C 899.062,106.146 898.125,105.852 897.188,105.793 C 896.250,105.735 895.312,105.852 894.375,105.793 C 893.438,105.735 892.500,105.264 891.562,105.441 C 890.625,105.617 889.688,106.558 888.750,106.851 C 887.812,107.145 886.875,107.263 885.938,107.204 C 885.000,107.145 884.062,106.734 883.125,106.499 C 882.188,106.264 881.250,106.087 880.312,105.793 C 879.375,105.500 878.438,104.853 877.500,104.736 C 876.562,104.618 875.625,104.794 874.688,105.088 C 873.750,105.382 872.812,105.793 871.875,106.499 C 870.938,107.204 870.000,108.673 869.062,109.320 C 868.125,109.966 867.188,109.849 866.250,110.378 C 865.312,110.907 864.375,111.788 863.438,112.494 C 862.500,113.199 861.562,113.904 860.625,114.610 C 859.688,115.315 858.750,116.784 857.812,116.725 C 856.875,116.667 855.938,115.021 855.000,114.257 C 854.062,113.493 853.125,112.670 852.188,112.141 C 851.250,111.612 850.312,111.259 849.375,111.083 C 848.438,110.907 847.500,111.024 846.562,111.083 C 845.625,111.142 844.688,111.318 843.750,111.436 C 842.812,111.553 841.875,111.730 840.938,111.788 C 840.000,111.847 839.062,111.847 838.125,111.788 C 837.188,111.730 836.250,111.612 835.312,111.436 C 834.375,111.259 833.438,110.848 832.500,110.730 C 831.562,110.613 830.625,110.672 829.688,110.730 C 828.750,110.789 827.812,110.907 826.875,111.083 C 825.938,111.259 825.000,111.612 824.062,111.788 C 823.125,111.965 822.188,112.082 821.250,112.141 C 820.312,112.200 819.375,112.024 818.438,112.141 C 817.500,112.259 816.562,112.376 815.625,112.846 C 814.688,113.317 813.750,114.845 812.812,114.962 C 811.875,115.080 810.938,113.552 810.000,113.552 C 809.062,113.552 808.125,114.081 807.188,114.962 C 806.250,115.844 805.312,117.725 804.375,118.841 C 803.438,119.958 802.500,120.898 801.562,121.662 C 800.625,122.427 799.688,123.191 798.750,123.426 C 797.812,123.661 796.875,123.191 795.938,123.073 C 795.000,122.955 794.062,122.427 793.125,122.720 C 792.188,123.014 791.250,124.131 790.312,124.836 C 789.375,125.542 788.438,126.835 787.500,126.952 C 786.562,127.070 785.625,125.953 784.688,125.542 C 783.750,125.130 782.812,124.660 781.875,124.484 C 780.938,124.307 780.000,124.366 779.062,124.484 C 778.125,124.601 777.188,125.189 776.250,125.189 C 775.312,125.189 774.375,124.777 773.438,124.484 C 772.500,124.190 771.562,123.896 770.625,123.426 C 769.688,122.955 768.750,122.133 767.812,121.662 C 766.875,121.192 765.938,120.840 765.000,120.605 C 764.062,120.369 763.125,120.311 762.188,120.252 C 761.250,120.193 760.312,120.369 759.375,120.252 C 758.438,120.134 757.500,119.488 756.562,119.547 C 755.625,119.605 754.688,120.487 753.750,120.605 C 752.812,120.722 751.875,120.428 750.938,120.252 C 750.000,120.076 749.062,119.840 748.125,119.547 C 747.188,119.253 746.250,118.665 745.312,118.489 C 744.375,118.312 743.438,118.430 742.500,118.489 C 741.562,118.547 740.625,118.959 739.688,118.841 C 738.750,118.724 737.812,118.077 736.875,117.783 C 735.938,117.490 735.000,117.372 734.062,117.078 C 733.125,116.784 732.188,116.079 731.250,116.020 C 730.312,115.961 729.375,116.667 728.438,116.725 C 727.500,116.784 726.562,116.314 725.625,116.373 C 724.688,116.432 723.750,117.019 722.812,117.078 C 721.875,117.137 720.938,116.667 720.000,116.725 C 719.062,116.784 718.125,117.313 717.188,117.431 C 716.250,117.548 715.312,117.372 714.375,117.431 C 713.438,117.490 712.500,117.666 711.562,117.783 C 710.625,117.901 709.688,118.077 708.750,118.136 C 707.812,118.195 706.875,118.136 705.938,118.136 C 705.000,118.136 704.062,118.312 703.125,118.136 C 702.188,117.960 701.250,117.313 700.312,117.078 C 699.375,116.843 698.438,116.843 697.500,116.725 C 696.562,116.608 695.625,116.549 694.688,116.373 C 693.750,116.196 692.812,115.903 691.875,115.668 C 690.938,115.432 690.000,115.197 689.062,114.962 C 688.125,114.727 687.188,114.433 686.250,114.257 C 685.312,114.081 684.375,114.139 683.438,113.904 C 682.500,113.669 681.562,112.905 680.625,112.846 C 679.688,112.788 678.750,113.610 677.812,113.552 C 676.875,113.493 675.938,112.670 675.000,112.494 C 674.062,112.317 673.125,112.494 672.188,112.494 C 671.250,112.494 670.312,112.494 669.375,112.494 C 668.438,112.494 667.500,112.494 666.562,112.494 C 665.625,112.494 664.688,112.435 663.750,112.494 C 662.812,112.552 661.875,112.788 660.938,112.846 C 660.000,112.905 659.062,112.846 658.125,112.846 C 657.188,112.846 656.250,112.670 655.312,112.846 C 654.375,113.023 653.438,113.610 652.500,113.904 C 651.562,114.198 650.625,114.727 649.688,114.610 C 648.750,114.492 647.812,113.552 646.875,113.199 C 645.938,112.846 645.000,112.611 644.062,112.494 C 643.125,112.376 642.188,112.376 641.250,112.494 C 640.312,112.611 639.375,113.199 638.438,113.199 C 637.500,113.199 636.562,112.729 635.625,112.494 C 634.688,112.259 633.750,112.141 632.812,111.788 C 631.875,111.436 630.938,110.730 630.000,110.378 C 629.062,110.025 628.125,109.849 627.188,109.673 C 626.250,109.496 625.312,109.379 624.375,109.320 C 623.438,109.261 622.500,109.555 621.562,109.320 C 620.625,109.085 619.688,108.380 618.750,107.909 C 617.812,107.439 616.875,106.969 615.938,106.499 C 615.000,106.029 614.062,105.441 613.125,105.088 C 612.188,104.736 611.250,104.736 610.312,104.383 C 609.375,104.030 608.438,103.384 607.500,102.972 C 606.562,102.561 605.625,102.326 604.688,101.914 C 603.750,101.503 602.812,101.209 601.875,100.504 C 600.938,99.798 600.000,98.329 599.062,97.683 C 598.125,97.036 597.188,96.742 596.250,96.625 C 595.312,96.507 594.375,97.154 593.438,96.977 C 592.500,96.801 591.562,95.626 590.625,95.567 C 589.688,95.508 588.750,96.566 587.812,96.625 C 586.875,96.683 585.938,96.037 585.000,95.919 C 584.062,95.802 583.125,95.684 582.188,95.919 C 581.250,96.154 580.312,96.919 579.375,97.330 C 578.438,97.741 577.500,98.094 576.562,98.388 C 575.625,98.682 574.688,99.152 573.750,99.093 C 572.812,99.034 571.875,98.212 570.938,98.035 C 570.000,97.859 569.062,98.035 568.125,98.035 C 567.188,98.035 566.250,97.506 565.312,98.035 C 564.375,98.564 563.438,100.269 562.500,101.209 C 561.562,102.149 560.625,103.090 559.688,103.678 C 558.750,104.265 557.812,104.500 556.875,104.736 C 555.938,104.971 555.000,105.088 554.062,105.088 C 553.125,105.088 552.188,104.971 551.250,104.736 C 550.312,104.500 549.375,104.383 548.438,103.678 C 547.500,102.972 546.562,101.385 545.625,100.504 C 544.688,99.622 543.750,99.387 542.812,98.388 C 541.875,97.389 540.938,94.626 540.000,94.509 C 539.062,94.391 538.125,96.977 537.188,97.683 C 536.250,98.388 535.312,98.329 534.375,98.741 C 533.438,99.152 532.500,99.798 531.562,100.151 C 530.625,100.504 529.688,101.092 528.750,100.856 C 527.812,100.621 526.875,99.505 525.938,98.741 C 525.000,97.976 524.062,97.389 523.125,96.272 C 522.188,95.155 521.250,93.333 520.312,92.040 C 519.375,90.747 518.438,88.573 517.500,88.514 C 516.562,88.455 515.625,90.982 514.688,91.688 C 513.750,92.393 512.812,92.452 511.875,92.746 C 510.938,93.039 510.000,93.333 509.062,93.451 C 508.125,93.568 507.188,93.686 506.250,93.451 C 505.312,93.216 504.375,91.864 503.438,92.040 C 502.500,92.217 501.562,93.980 500.625,94.509 C 499.688,95.038 498.750,94.920 497.812,95.214 C 496.875,95.508 495.938,95.567 495.000,96.272 C 494.062,96.977 493.125,99.093 492.188,99.446 C 491.250,99.798 490.312,98.799 489.375,98.388 C 488.438,97.976 487.500,97.271 486.562,96.977 C 485.625,96.683 484.688,96.801 483.750,96.625 C 482.812,96.448 481.875,96.096 480.938,95.919 C 480.000,95.743 479.062,95.626 478.125,95.567 C 477.188,95.508 476.250,95.508 475.312,95.567 C 474.375,95.626 473.438,95.978 472.500,95.919 C 471.562,95.861 470.625,95.449 469.688,95.214 C 468.750,94.979 467.812,94.803 466.875,94.509 C 465.938,94.215 465.000,93.862 464.062,93.451 C 463.125,93.039 462.188,92.452 461.250,92.040 C 460.312,91.629 459.375,91.394 458.438,90.982 C 457.500,90.571 456.562,89.983 455.625,89.572 C 454.688,89.160 453.750,88.866 452.812,88.514 C 451.875,88.161 450.938,87.926 450.000,87.456 C 449.062,86.986 448.125,85.516 447.188,85.693 C 446.250,85.869 445.312,87.573 444.375,88.514 C 443.438,89.454 442.500,90.336 441.562,91.335 C 440.625,92.334 439.688,93.627 438.750,94.509 C 437.812,95.390 436.875,95.861 435.938,96.625 C 435.000,97.389 434.062,98.153 433.125,99.093 C 432.188,100.034 431.250,101.033 430.312,102.267 C 429.375,103.501 428.438,105.382 427.500,106.499 C 426.562,107.615 425.625,108.438 424.688,108.967 C 423.750,109.496 422.812,109.555 421.875,109.673 C 420.938,109.790 420.000,110.025 419.062,109.673 C 418.125,109.320 417.188,107.851 416.250,107.557 C 415.312,107.263 414.375,107.792 413.438,107.909 C 412.500,108.027 411.562,108.086 410.625,108.262 C 409.688,108.438 408.750,108.791 407.812,108.967 C 406.875,109.144 405.938,109.379 405.000,109.320 C 404.062,109.261 403.125,108.673 402.188,108.615 C 401.250,108.556 400.312,108.732 399.375,108.967 C 398.438,109.202 397.500,109.908 396.562,110.025 C 395.625,110.143 394.688,109.849 393.750,109.673 C 392.812,109.496 391.875,109.026 390.938,108.967 C 390.000,108.908 389.062,109.026 388.125,109.320 C 387.188,109.614 386.250,110.378 385.312,110.730 C 384.375,111.083 383.438,111.259 382.500,111.436 C 381.562,111.612 380.625,111.671 379.688,111.788 C 378.750,111.906 377.812,112.141 376.875,112.141 C 375.938,112.141 375.000,111.788 374.062,111.788 C 373.125,111.788 372.188,112.317 371.250,112.141 C 370.312,111.965 369.375,111.201 368.438,110.730 C 367.500,110.260 366.562,109.731 365.625,109.320 C 364.688,108.908 363.750,108.732 362.812,108.262 C 361.875,107.792 360.938,106.969 360.000,106.499 C 359.062,106.029 358.125,105.911 357.188,105.441 C 356.250,104.971 355.312,104.383 354.375,103.678 C 353.438,102.972 352.500,101.856 351.562,101.209 C 350.625,100.563 349.688,100.210 348.750,99.798 C 347.812,99.387 346.875,99.034 345.938,98.741 C 345.000,98.447 344.062,98.270 343.125,98.035 C 342.188,97.800 341.250,97.271 340.312,97.330 C 339.375,97.389 338.438,98.270 337.500,98.388 C 336.562,98.505 335.625,98.094 334.688,98.035 C 333.750,97.976 332.812,98.094 331.875,98.035 C 330.938,97.976 330.000,97.683 329.062,97.683 C 328.125,97.683 327.188,97.976 326.250,98.035 C 325.312,98.094 324.375,98.094 323.438,98.035 C 322.500,97.976 321.562,97.800 320.625,97.683 C 319.688,97.565 318.750,97.330 317.812,97.330 C 316.875,97.330 315.938,97.565 315.000,97.683 C 314.062,97.800 313.125,97.976 312.188,98.035 C 311.250,98.094 310.312,97.976 309.375,98.035 C 308.438,98.094 307.500,98.388 306.562,98.388 C 305.625,98.388 304.688,98.153 303.750,98.035 C 302.812,97.918 301.875,97.624 300.938,97.683 C 300.000,97.741 299.062,98.388 298.125,98.388 C 297.188,98.388 296.250,98.035 295.312,97.683 C 294.375,97.330 293.438,96.448 292.500,96.272 C 291.562,96.096 290.625,96.154 289.688,96.625 C 288.750,97.095 287.812,98.505 286.875,99.093 C 285.938,99.681 285.000,99.975 284.062,100.151 C 283.125,100.327 282.188,99.857 281.250,100.151 C 280.312,100.445 279.375,101.620 278.438,101.914 C 277.500,102.208 276.562,101.914 275.625,101.914 C 274.688,101.914 273.750,101.973 272.812,101.914 C 271.875,101.856 270.938,101.503 270.000,101.562 C 269.062,101.620 268.125,101.973 267.188,102.267 C 266.250,102.561 265.312,103.031 264.375,103.325 C 263.438,103.619 262.500,103.854 261.562,104.030 C 260.625,104.207 259.688,104.265 258.750,104.383 C 257.812,104.500 256.875,104.618 255.938,104.736 C 255.000,104.853 254.062,105.088 253.125,105.088 C 252.188,105.088 251.250,104.912 250.312,104.736 C 249.375,104.559 248.438,104.265 247.500,104.030 C 246.562,103.795 245.625,103.736 244.688,103.325 C 243.750,102.914 242.812,102.032 241.875,101.562 C 240.938,101.092 240.000,100.974 239.062,100.504 C 238.125,100.034 237.188,98.917 236.250,98.741 C 235.312,98.564 234.375,99.328 233.438,99.446 C 232.500,99.563 231.562,99.622 230.625,99.446 C 229.688,99.270 228.750,98.505 227.812,98.388 C 226.875,98.270 225.938,98.682 225.000,98.741 C 224.062,98.799 223.125,98.799 222.188,98.741 C 221.250,98.682 220.312,98.564 219.375,98.388 C 218.438,98.212 217.500,97.859 216.562,97.683 C 215.625,97.506 214.688,97.389 213.750,97.330 C 212.812,97.271 211.875,97.154 210.938,97.330 C 210.000,97.506 209.062,98.388 208.125,98.388 C 207.188,98.388 206.250,97.506 205.312,97.330 C 204.375,97.154 203.438,97.389 202.500,97.330 C 201.562,97.271 200.625,96.977 199.688,96.977 C 198.750,96.977 197.812,97.389 196.875,97.330 C 195.938,97.271 195.000,96.566 194.062,96.625 C 193.125,96.683 192.188,97.506 191.250,97.683 C 190.312,97.859 189.375,97.624 188.438,97.683 C 187.500,97.741 186.562,98.035 185.625,98.035 C 184.688,98.035 183.750,97.683 182.812,97.683 C 181.875,97.683 180.938,97.918 180.000,98.035 C 179.062,98.153 178.125,98.153 177.188,98.388 C 176.250,98.623 175.312,98.917 174.375,99.446 C 173.438,99.975 172.500,101.327 171.562,101.562 C 170.625,101.797 169.688,100.915 168.750,100.856 C 167.812,100.798 166.875,101.033 165.938,101.209 C 165.000,101.385 164.062,101.679 163.125,101.914 C 162.188,102.149 161.250,102.678 160.312,102.620 C 159.375,102.561 158.438,101.562 157.500,101.562 C 156.562,101.562 155.625,102.385 154.688,102.620 C 153.750,102.855 152.812,102.914 151.875,102.972 C 150.938,103.031 150.000,102.914 149.062,102.972 C 148.125,103.031 147.188,103.149 146.250,103.325 C 145.312,103.501 144.375,104.030 143.438,104.030 C 142.500,104.030 141.562,103.325 140.625,103.325 C 139.688,103.325 138.750,103.854 137.812,104.030 C 136.875,104.207 135.938,104.265 135.000,104.383 C 134.062,104.500 133.125,104.677 132.188,104.736 C 131.250,104.794 130.312,104.618 129.375,104.736 C 128.438,104.853 127.500,105.323 126.562,105.441 C 125.625,105.558 124.688,105.558 123.750,105.441 C 122.812,105.323 121.875,104.971 120.938,104.736 C 120.000,104.500 119.062,104.089 118.125,104.030 C 117.188,103.971 116.250,104.324 115.312,104.383 C 114.375,104.442 113.438,104.265 112.500,104.383 C 111.562,104.500 110.625,104.971 109.688,105.088 C 108.750,105.206 107.812,105.147 106.875,105.088 C 105.938,105.029 105.000,104.912 104.062,104.736 C 103.125,104.559 102.188,104.265 101.250,104.030 C 100.312,103.795 99.375,103.384 98.438,103.325 C 97.500,103.266 96.562,103.913 95.625,103.678 C 94.688,103.442 93.750,102.326 92.812,101.914 C 91.875,101.503 90.938,101.268 90.000,101.209 C 89.062,101.150 88.125,101.562 87.188,101.562 C 86.250,101.562 85.312,101.268 84.375,101.209 C 83.438,101.150 82.500,101.327 81.562,101.209 C 80.625,101.092 79.688,100.563 78.750,100.504 C 77.812,100.445 76.875,100.915 75.938,100.856 C 75.000,100.798 74.062,100.327 73.125,100.151 C 72.188,99.975 71.250,100.034 70.312,99.798 C 69.375,99.563 68.438,99.034 67.500,98.741 C 66.562,98.447 65.625,98.329 64.688,98.035 C 63.750,97.741 62.812,97.330 61.875,96.977 C 60.938,96.625 60.000,96.154 59.062,95.919 C 58.125,95.684 57.188,95.919 56.250,95.567 C 55.312,95.214 54.375,94.274 53.438,93.804 C 52.500,93.333 51.562,93.098 50.625,92.746 C 49.688,92.393 48.750,92.099 47.812,91.688 C 46.875,91.276 45.938,90.688 45.000,90.277 C 44.062,89.866 43.125,89.454 42.188,89.219 C 41.250,88.984 40.312,88.984 39.375,88.866 C 38.438,88.749 37.500,88.631 36.562,88.514 C 35.625,88.396 34.688,88.338 33.750,88.161 C 32.812,87.985 31.875,87.515 30.938,87.456 C 30.000,87.397 29.062,87.691 28.125,87.809 C 27.188,87.926 26.250,87.985 25.312,88.161 C 24.375,88.338 23.438,88.690 22.500,88.866 C 21.562,89.043 20.625,89.043 19.688,89.219 C 18.750,89.395 17.812,89.748 16.875,89.924 C 15.938,90.101 15.000,90.160 14.062,90.277 C 13.125,90.395 12.188,90.571 11.250,90.630 C 10.312,90.688 9.375,90.630 8.438,90.630 C 7.500,90.630 6.562,90.630 5.625,90.630 C 4.688,90.630 3.750,90.630 2.812,90.630 C 1.875,90.630 0.469,90.630 0.000,90.630 Z" fill="#000000"/>
</svg>