<?xml version="1.0" encoding="UTF-8"?>
<svg id="Layer_2" data-name="Layer 2" xmlns="http://www.w3.org/2000/svg" viewBox="0 0 1437.19 37.94">
  <defs>
    <style>
      .cls-1 {
        fill: #f82828;
      }
    </style>
  </defs>
  <g id="Layer_1-2" data-name="Layer 1">
    <path class="cls-1" d="M1437.19,11.4c-.47,0-1.88-.09-2.81,0-.94.09-1.88.33-2.81.57-.94.24-1.87.52-2.81.85-.94.33-1.88,1.19-2.81,1.14-.94-.05-1.88-1.47-2.81-1.42s-1.88,1.23-2.81,1.71c-.94.47-1.87.81-2.81,1.14-.94.33-1.88.67-2.81.85-.94.19-1.88.43-2.81.29-.94-.14-1.88-.71-2.81-1.14-.94-.43-1.87-.9-2.81-1.42-.94-.52-1.88-1.23-2.81-1.71-.94-.47-1.88-.76-2.81-1.14-.94-.38-1.88-.85-2.81-1.14-.94-.28-1.87-.38-2.81-.57s-1.88-.52-2.81-.57c-.94-.05-1.88.38-2.81.28-.94-.09-1.88-.76-2.81-.85-.94-.09-1.87.19-2.81.28-.94.1-1.88.24-2.81.29-.94.05-1.88-.19-2.81,0s-1.88.81-2.81,1.14c-.94.33-1.87.71-2.81.85-.94.14-1.88,0-2.81,0s-1.88-.14-2.81,0c-.94.14-1.88.52-2.81.85-.94.33-1.87.9-2.81,1.14-.94.24-1.88.14-2.81.28-.94.14-1.88.52-2.81.57-.94.05-1.88-.29-2.81-.29s-1.87,0-2.81.29c-.94.28-1.88,1-2.81,1.42-.94.43-1.88.85-2.81,1.14-.94.29-1.88.24-2.81.57-.94.33-1.87,1.14-2.81,1.42-.94.28-1.88.14-2.81.28-.94.14-1.88.38-2.81.57-.94.19-1.88.52-2.81.57-.94.05-1.87-.28-2.81-.28s-1.88.24-2.81.28c-.94.05-1.88,0-2.81,0h-2.81c-.94,0-1.87-.05-2.81,0-.94.05-1.88.09-2.81.28-.94.19-1.88.57-2.81.85-.94.28-1.88.57-2.81.85-.94.28-1.87.47-2.81.85-.94.38-1.88,1.19-2.81,1.42-.94.24-1.88.24-2.81,0-.94-.24-1.88-1-2.81-1.42-.94-.43-1.87-1.09-2.81-1.14-.94-.05-1.88,1-2.81.85-.94-.14-1.88-1.38-2.81-1.71-.94-.33-1.88-.52-2.81-.29-.94.24-1.87,1.61-2.81,1.71-.94.1-1.88-.76-2.81-1.14-.94-.38-1.88-.76-2.81-1.14-.94-.38-1.88-.76-2.81-1.14-.94-.38-1.87-.81-2.81-1.14-.94-.33-1.88-.71-2.81-.85-.94-.14-1.88-.05-2.81,0-.94.05-1.88.24-2.81.28-.94.05-1.87-.09-2.81,0-.94.09-1.88.28-2.81.57-.94.28-1.88.9-2.81,1.14-.94.24-1.88.38-2.81.28-.94-.09-1.87-.85-2.81-.85s-1.88.66-2.81.85c-.94.19-1.88.33-2.81.28-.94-.05-1.88-.52-2.81-.57-.94-.05-1.87-.28-2.81.28-.94.57-1.88,2.47-2.81,3.13-.94.66-1.88.52-2.81.85-.94.33-1.88.76-2.81,1.14-.94.38-1.87.95-2.81,1.14s-1.88.05-2.81,0c-.94-.05-1.88-.19-2.81-.29-.94-.09-1.88-.09-2.81-.28-.94-.19-1.87-.9-2.81-.85-.94.05-1.88,1.04-2.81,1.14-.94.1-1.88-.52-2.81-.57-.94-.05-1.88.38-2.81.28-.94-.09-1.87-.81-2.81-.85-.94-.05-1.88.43-2.81.57-.94.14-1.88.24-2.81.28-.94.05-1.88,0-2.81,0s-1.87-.05-2.81,0c-.94.05-1.88.24-2.81.28-.94.05-1.88.05-2.81,0-.94-.05-1.88-.14-2.81-.28-.94-.14-1.87-.62-2.81-.57-.94.05-1.88.71-2.81.85-.94.14-1.88.1-2.81,0-.94-.09-1.88-.52-2.81-.57-.94-.05-1.87.28-2.81.28s-1.88-.24-2.81-.28c-.94-.05-1.88-.1-2.81,0-.94.09-1.88.57-2.81.57s-1.87-.57-2.81-.57-1.88.66-2.81.57c-.94-.09-1.88-.76-2.81-1.14-.94-.38-1.88-.76-2.81-1.14-.94-.38-1.87-.62-2.81-1.14-.94-.52-1.88-1.42-2.81-1.99-.94-.57-1.88-.95-2.81-1.42s-1.88-1-2.81-1.42c-.94-.43-1.87-.71-2.81-1.14s-1.88-.95-2.81-1.42c-.94-.47-1.88-1.14-2.81-1.42-.94-.28-1.88-.05-2.81-.28-.94-.24-1.87-.71-2.81-1.14s-1.88-1.23-2.81-1.42c-.94-.19-1.88.28-2.81.28s-1.88-.28-2.81-.28-1.87.24-2.81.28c-.94.05-1.88-.05-2.81,0-.94.05-1.88.14-2.81.28-.94.14-1.88.38-2.81.57-.94.19-1.87.28-2.81.57-.94.28-1.88.9-2.81,1.14-.94.24-1.88.19-2.81.29-.94.09-1.88.43-2.81.28-.94-.14-1.87-.95-2.81-1.14s-1.88-.14-2.81,0c-.94.14-1.88.62-2.81.85-.94.24-1.88.57-2.81.57s-1.87-.43-2.81-.57c-.94-.14-1.88-.05-2.81-.29-.94-.24-1.88-1.14-2.81-1.14s-1.88,1.04-2.81,1.14c-.94.1-1.87-.38-2.81-.57s-1.88-.47-2.81-.57c-.94-.09-1.88,0-2.81,0s-1.88.05-2.81,0c-.94-.05-1.87-.05-2.81-.28s-1.88-.76-2.81-1.14c-.94-.38-1.88-.71-2.81-1.14s-1.88-1.04-2.81-1.42c-.94-.38-1.87-.57-2.81-.85-.94-.28-1.88-.85-2.81-.85s-1.88.52-2.81.85c-.94.33-1.88.85-2.81,1.14-.94.29-1.87.14-2.81.57-.94.43-1.88,1.38-2.81,1.99-.94.62-1.88,1.04-2.81,1.71s-1.88,1.42-2.81,2.28c-.94.85-1.87,2.14-2.81,2.85-.94.71-1.88.9-2.81,1.42-.94.52-1.88,1.14-2.81,1.71-.94.57-1.88,1.04-2.81,1.71-.94.66-1.87,2.18-2.81,2.28-.94.09-1.88-1.33-2.81-1.71-.94-.38-1.88-.28-2.81-.57-.94-.28-1.88-.66-2.81-1.14-.94-.47-1.87-1.14-2.81-1.71-.94-.57-1.88-1.14-2.81-1.71-.94-.57-1.88-1.28-2.81-1.71s-1.88-.43-2.81-.85c-.94-.43-1.87-1.28-2.81-1.71s-1.88-.57-2.81-.85c-.94-.28-1.88-.52-2.81-.85-.94-.33-1.88-.85-2.81-1.14-.94-.28-1.87-.33-2.81-.57-.94-.24-1.88-.81-2.81-.85-.94-.05-1.88.43-2.81.57-.94.14-1.88-.14-2.81.29-.94.43-1.87,1.8-2.81,2.28-.94.47-1.88.33-2.81.57-.94.24-1.88.47-2.81.85-.94.38-1.88.81-2.81,1.42-.94.62-1.87,1.57-2.81,2.28-.94.71-1.88,1.23-2.81,1.99-.94.76-1.88,1.99-2.81,2.56-.94.57-1.88.19-2.81.85-.94.66-1.87,2.75-2.81,3.13-.94.38-1.88-.47-2.81-.85-.94-.38-1.88-.9-2.81-1.42-.94-.52-1.88-1.42-2.81-1.71-.94-.28-1.87-.05-2.81,0-.94.05-1.88.33-2.81.28-.94-.05-1.88-.47-2.81-.57-.94-.1-1.88-.05-2.81,0-.94.05-1.87.14-2.81.28-.94.14-1.88.05-2.81.57-.94.52-1.88,1.8-2.81,2.56-.94.76-1.88,1.52-2.81,1.99-.94.47-1.87.71-2.81.85-.94.14-1.88,0-2.81,0h-5.63c-.94,0-1.87.05-2.81,0-.94-.05-1.88-.19-2.81-.28-.94-.09-1.88-.24-2.81-.28-.94-.05-1.88.14-2.81,0-.94-.14-1.87-.47-2.81-.85-.94-.38-1.88-1.14-2.81-1.42-.94-.28-1.88-.19-2.81-.28-.94-.09-1.88-.05-2.81-.28-.94-.24-1.87-.95-2.81-1.14-.94-.19-1.88.09-2.81,0-.94-.1-1.88-.52-2.81-.57-.94-.05-1.88.33-2.81.28-.94-.05-1.87-.52-2.81-.57-.94-.05-1.88.38-2.81.28-.94-.1-1.88-.76-2.81-.85-.94-.1-1.88.43-2.81.28-.94-.14-1.87-.85-2.81-1.14-.94-.28-1.88-.57-2.81-.57s-1.88.52-2.81.57c-.94.05-1.88-.28-2.81-.28s-1.87.38-2.81.28c-.94-.09-1.88-.52-2.81-.85-.94-.33-1.88-.81-2.81-1.14-.94-.33-1.88-.47-2.81-.85-.94-.38-1.87-1.09-2.81-1.42-.94-.33-1.88-.38-2.81-.57-.94-.19-1.88-.38-2.81-.57-.94-.19-1.88-.71-2.81-.57-.94.14-1.87,1.38-2.81,1.42-.94.05-1.88-.81-2.81-1.14-.94-.33-1.88-.66-2.81-.85s-1.88-.24-2.81-.28c-.94-.05-1.87.09-2.81,0-.94-.1-1.88-.28-2.81-.57-.94-.28-1.88-.81-2.81-1.14-.94-.33-1.88-.62-2.81-.85-.94-.24-1.87-.57-2.81-.57s-1.88.38-2.81.57c-.94.19-1.88.66-2.81.57-.94-.1-1.88-.81-2.81-1.14-.94-.33-1.87-.85-2.81-.85s-1.88.66-2.81.85c-.94.19-1.88.24-2.81.28-.94.05-1.88-.05-2.81,0-.94.05-1.87.19-2.81.28-.94.09-1.88.24-2.81.28-.94.05-1.88.05-2.81,0-.94-.05-1.88-.24-2.81-.28-.94-.05-1.87,0-2.81,0s-1.88.09-2.81,0c-.94-.09-1.88-.52-2.81-.57-.94-.05-1.88.38-2.81.28-.94-.09-1.87-.71-2.81-.85-.94-.14-1.88.14-2.81,0-.94-.14-1.88-.66-2.81-.85s-1.88-.14-2.81-.28c-.94-.14-1.87-.43-2.81-.57-.94-.14-1.88-.14-2.81-.28-.94-.14-1.88-.38-2.81-.57s-1.88-.47-2.81-.57c-.94-.1-1.87,0-2.81,0s-1.88-.05-2.81,0c-.94.05-1.88.24-2.81.28-.94.05-1.88-.05-2.81,0-.94.05-1.87.14-2.81.28-.94.14-1.88.52-2.81.57-.94.05-1.88-.28-2.81-.28s-1.88.28-2.81.28-1.87-.33-2.81-.28c-.94.05-1.88.62-2.81.57-.94-.05-1.88-.66-2.81-.85s-1.88-.09-2.81-.28c-.94-.19-1.87-.76-2.81-.85-.94-.09-1.88.28-2.81.28s-1.88-.14-2.81-.28c-.94-.14-1.88-.38-2.81-.57-.94-.19-1.87-.38-2.81-.57s-1.88-.62-2.81-.57c-.94.05-1.88.76-2.81.85-.94.1-1.88-.24-2.81-.28-.94-.05-1.87.05-2.81,0-.94-.05-1.88-.05-2.81-.28-.94-.24-1.88-.76-2.81-1.14-.94-.38-1.88-.71-2.81-1.14-.94-.43-1.87-1.19-2.81-1.42s-1.88-.1-2.81,0c-.94.09-1.88.47-2.81.57-.94.09-1.88.14-2.81,0-.94-.14-1.87-.52-2.81-.85-.94-.33-1.88-1.28-2.81-1.14-.94.14-1.88,1.42-2.81,1.99-.94.57-1.88,1.38-2.81,1.42-.94.05-1.87-1-2.81-1.14-.94-.14-1.88-.05-2.81.28-.94.33-1.88.95-2.81,1.71-.94.76-1.88,1.95-2.81,2.85-.94.9-1.87,1.95-2.81,2.56-.94.62-1.88.62-2.81,1.14-.94.52-1.88,1.52-2.81,1.99-.94.47-1.88.71-2.81.85-.94.14-1.87.09-2.81,0-.94-.1-1.88-.33-2.81-.57-.94-.24-1.88-.81-2.81-.85-.94-.05-1.88.43-2.81.57-.94.14-1.87.28-2.81.28s-1.88-.19-2.81-.28c-.94-.1-1.88-.14-2.81-.29-.94-.14-1.88-.52-2.81-.57-.94-.05-1.87.19-2.81.28-.94.09-1.88.19-2.81.28-.94.1-1.88.24-2.81.29-.94.05-1.88-.19-2.81,0-.94.19-1.87,1.04-2.81,1.14-.94.09-1.88-.24-2.81-.57-.94-.33-1.88-1-2.81-1.42s-1.88-.81-2.81-1.14c-.94-.33-1.87-.62-2.81-.85-.94-.24-1.88-.43-2.81-.57-.94-.14-1.88-.28-2.81-.28s-1.88.19-2.81.28c-.94.1-1.87.1-2.81.29-.94.19-1.88.57-2.81.85-.94.28-1.88.81-2.81.85-.94.05-1.88-.57-2.81-.57s-1.87.19-2.81.57c-.94.38-1.88,1.33-2.81,1.71-.94.38-1.88.38-2.81.57-.94.19-1.88.57-2.81.57s-1.87-.28-2.81-.57c-.94-.29-1.88-.57-2.81-1.14-.94-.57-1.88-1.76-2.81-2.28s-1.88-.47-2.81-.85c-.94-.38-1.87-1.09-2.81-1.42-.94-.33-1.88-.33-2.81-.57-.94-.24-1.88-.76-2.81-.85-.94-.09-1.88.33-2.81.28-.94-.05-1.87-.47-2.81-.57-.94-.1-1.88-.05-2.81,0-.94.05-1.88.24-2.81.28-.94.05-1.88-.14-2.81,0-.94.14-1.87.62-2.81.85-.94.24-1.88.33-2.81.57-.94.24-1.88.76-2.81.85-.94.09-1.88-.33-2.81-.29-.94.05-1.87.29-2.81.57-.94.28-1.88.9-2.81,1.14-.94.24-1.88.1-2.81.28-.94.19-1.88.71-2.81.85-.94.14-1.87,0-2.81,0s-1.88-.14-2.81,0c-.94.14-1.88.43-2.81.85s-1.88,1.33-2.81,1.71c-.94.38-1.87.24-2.81.57-.94.33-1.88,1.09-2.81,1.42-.94.33-1.88.43-2.81.57-.94.14-1.88.14-2.81.28-.94.14-1.87.47-2.81.57-.94.09-1.88,0-2.81,0h-2.81c-.94,0-1.88-.05-2.81,0-.94.05-1.87.24-2.81.28-.94.05-1.88,0-2.81,0s-1.88-.14-2.81,0c-.94.14-1.88.62-2.81.85-.94.24-1.87.33-2.81.57-.94.24-1.88.52-2.81.85-.94.33-1.88.85-2.81,1.14-.94.29-1.88.57-2.81.57s-1.87-.19-2.81-.57c-.94-.38-1.88-1.47-2.81-1.71-.94-.24-1.88.33-2.81.28-.94-.05-1.88-.33-2.81-.57-.94-.24-1.87-1-2.81-.85-.94.14-1.88,1.33-2.81,1.71-.94.38-1.88.33-2.81.57s-1.88.52-2.81.85c-.94.33-1.87.85-2.81,1.14-.94.28-1.88.47-2.81.57-.94.09-1.88-.05-2.81,0-.94.05-1.88.28-2.81.28s-1.87-.19-2.81-.28c-.94-.1-1.88-.24-2.81-.29-.94-.05-1.88,0-2.81,0s-1.88-.05-2.81,0c-.94.05-1.87.19-2.81.29-.94.09-1.88.28-2.81.28s-1.88-.24-2.81-.28c-.94-.05-1.88.09-2.81,0-.94-.1-1.87-.38-2.81-.57-.94-.19-1.88-.43-2.81-.57-.94-.14-1.88-.33-2.81-.28-.94.05-1.88.52-2.81.57-.94.05-1.87-.29-2.81-.29s-1.88.24-2.81.29c-.94.05-1.88,0-2.81,0h-2.81c-.94,0-1.87.14-2.81,0-.94-.14-1.88-.85-2.81-.85s-1.88.57-2.81.85c-.94.28-1.88.81-2.81.85-.94.05-1.87-.33-2.81-.57s-1.88-.62-2.81-.85c-.94-.24-1.88-.38-2.81-.57s-1.88-.52-2.81-.57c-.94-.05-1.87.09-2.81.28-.94.19-1.88.71-2.81.85-.94.14-1.88.14-2.81,0-.94-.14-1.88-.81-2.81-.85-.94-.05-1.87.62-2.81.57-.94-.05-1.88-.9-2.81-.85-.94.05-1.88.9-2.81,1.14-.94.24-1.88.19-2.81.28-.94.1-1.87.19-2.81.29-.94.09-1.88.33-2.81.28-.94-.05-1.88-.52-2.81-.57s-1.88.05-2.81.29c-.94.24-1.87.85-2.81,1.14-.94.28-1.88.52-2.81.57-.94.05-1.88-.28-2.81-.28s-1.88.24-2.81.28c-.94.05-1.87-.05-2.81,0-.94.05-1.88.33-2.81.29-.94-.05-1.88-.66-2.81-.57-.94.1-1.88,1-2.81,1.14-.94.14-1.87-.52-2.81-.28s-1.88,1.33-2.81,1.71c-.94.38-1.88.47-2.81.57-.94.09-1.88,0-2.81,0h-14.06c-.94,0-1.88.05-2.81,0-.94-.05-1.88-.24-2.81-.29-.94-.05-1.88.05-2.81,0-.94-.05-1.87-.14-2.81-.28-.94-.14-1.88-.14-2.81-.57-.94-.43-1.88-1.57-2.81-1.99s-1.88-.43-2.81-.57c-.94-.14-1.87-.24-2.81-.29-.94-.05-1.88.19-2.81,0-.94-.19-1.88-.81-2.81-1.14-.94-.33-1.88-.57-2.81-.85-.94-.28-1.87-.52-2.81-.85-.94-.33-1.88-.71-2.81-1.14-.94-.43-1.88-1.14-2.81-1.42-.94-.29-1.88-.1-2.81-.29-.94-.19-1.87-.62-2.81-.85s-1.88-.28-2.81-.57c-.94-.29-1.88-.81-2.81-1.14-.94-.33-1.88-.71-2.81-.85-.94-.14-1.87.14-2.81,0-.94-.14-1.88-.71-2.81-.85-.94-.14-1.88.05-2.81,0-.94-.05-1.88-.24-2.81-.29-.94-.05-1.87.05-2.81,0s-1.88-.28-2.81-.28-1.88.28-2.81.28-1.88,0-2.81-.28c-.94-.28-1.87-1.19-2.81-1.42s-1.88.09-2.81,0c-.94-.1-1.88-.43-2.81-.57-.94-.14-1.88-.24-2.81-.28-.94-.05-1.87.14-2.81,0-.94-.14-1.88-.85-2.81-.85s-1.88.66-2.81.85c-.94.19-1.88.24-2.81.28-.94.05-1.87.05-2.81,0s-1.88-.14-2.81-.28c-.94-.14-1.88-.43-2.81-.57-.94-.14-1.88-.33-2.81-.28-.94.05-1.87.47-2.81.57-.94.09-1.88-.05-2.81,0-.94.05-1.88.19-2.81.28-.94.09-1.88.14-2.81.28-.94.14-1.87.57-2.81.57s-1.88-.52-2.81-.57c-.94-.05-1.88.14-2.81.28-.94.14-1.88.47-2.81.57-.94.09-1.87,0-2.81,0s-1.88-.19-2.81,0c-.94.19-1.88,1-2.81,1.14-.94.14-1.88-.24-2.81-.28-.94-.05-1.87-.1-2.81,0-.94.09-1.88.43-2.81.57-.94.14-1.88.19-2.81.29-.94.09-1.88.09-2.81.28-.94.19-1.87.62-2.81.85s-1.88.38-2.81.57c-.94.19-1.88.43-2.81.57-.94.14-1.88.28-2.81.28s-1.87-.28-2.81-.28-1.88.24-2.81.28c-.94.05-1.88-.09-2.81,0-.94.1-1.88.57-2.81.57s-1.87-.57-2.81-.57-1.88.48-2.81.57c-.94.1-1.88.05-2.81,0-.94-.05-1.88-.14-2.81-.28-.94-.14-1.87-.52-2.81-.57-.94-.05-1.88.19-2.81.28-.94.1-1.88.24-2.81.29s-1.88.14-2.81,0c-.94-.14-1.87-.71-2.81-.85-.94-.14-1.88.05-2.81,0-.94-.05-1.88-.29-2.81-.29s-1.88.38-2.81.29c-.94-.1-1.87-.71-2.81-.85-.94-.14-1.88-.05-2.81,0-.94.05-1.88-.28-2.81.28-.94.57-1.88,2.32-2.81,3.13-.94.81-1.87,1.23-2.81,1.71-.94.47-1.88.85-2.81,1.14-.94.29-1.88.24-2.81.57-.94.33-1.88,1.19-2.81,1.42-.94.24-1.87.05-2.81,0-.94-.05-1.88-.19-2.81-.29-.94-.09-1.88-.19-2.81-.28-.94-.1-1.88-.24-2.81-.28-.94-.05-2.34,0-2.81,0v16.58h1437.19V11.4Z"/>
  </g>
</svg>